<?xml version="1.0" encoding="utf-8"?>
<!-- Generator: Adobe Illustrator 18.0.0, SVG Export Plug-In . SVG Version: 6.00 Build 0)  -->
<!DOCTYPE svg PUBLIC "-//W3C//DTD SVG 1.1//EN" "http://www.w3.org/Graphics/SVG/1.1/DTD/svg11.dtd">
<svg version="1.1" id="Capa_1" xmlns="http://www.w3.org/2000/svg" xmlns:xlink="http://www.w3.org/1999/xlink" x="0px" y="0px"
	 viewBox="0 0 1000 1000" enable-background="new 0 0 1000 1000" xml:space="preserve">
<g>
	<g>
		<path fill="#332F2E" d="M500,1000C224.3,1000,0,775.7,0,500S224.3,0,500,0s500,224.3,500,500S775.7,1000,500,1000z M500,3.3
			C226.1,3.3,3.3,226.1,3.3,500S226.1,996.7,500,996.7S996.7,773.9,996.7,500S773.9,3.3,500,3.3z"/>
	</g>
	<g>
		<g>
			<path fill="#332F2E" d="M643.2,512.2c24.5,29.1,36.8,61.7,36.8,97.8c-0.8,41.5-15.1,76.3-42.7,104.4
				c-27.6,28-61.2,42.1-100.6,42.1H372.8c-29.1,0-46.1-7.9-51.1-23.7c-2.5-7.1-3.7-17.9-3.7-32.4V354.6c0-10,0.3-17.2,0.9-21.8
				c0.6-4.6,2.6-10,5.9-16.2c5.8-11.2,22-16.8,48.6-16.8h157c38.2,0,70.2,13.3,95.9,39.9c27,27,40.5,59.4,40.5,97.2
				C666.9,464.3,659,489.4,643.2,512.2z M569.7,603.8c0-10-1.1-17.9-3.4-23.7c-2.3-5.8-6.1-10-11.5-12.5c-8.3-3.3-19.9-5-34.9-5
				s-26.2-2.9-33.6-8.7c-7.5-5.8-11.2-17.8-11.2-35.8c0-18.1,3.8-30,11.5-35.8s20.5-8.7,38.3-8.7c16.6,0,26.6-4.4,29.9-13.1
				c1.2-4.6,1.9-12,1.9-22.4s-3.4-17.6-10.3-21.8c-6.9-4.1-17.1-6.2-30.8-6.2h-87.2v236.1h102.2C556.6,646.2,569.7,632,569.7,603.8z
				"/>
		</g>
		<g>
			<path fill="#332F2E" d="M705.3,312.8c0.6,1.5,0.9,2.6,0.9,3.3c0,1.6-1.3,2.9-3.9,4c-1.3,0.6-2.4,0.9-3.2,0.9s-1.5-0.2-2-0.6
				s-0.9-0.8-1.2-1.2c-0.4-0.8-2-4.6-4.9-11.3l-1.9,0.1h-7.9v7.1c0,1,0,1.7-0.1,2.2s-0.3,1-0.6,1.7c-0.6,1.1-2.2,1.7-4.9,1.7
				c-2.9,0-4.6-0.8-5.1-2.3c-0.3-0.7-0.4-1.8-0.4-3.3v-34.8c0-1,0-1.7,0.1-2.2s0.3-1,0.6-1.7c0.6-1.1,2.2-1.7,4.9-1.7h13.5
				c3.7,0,7.2,1.3,10.7,4c1.7,1.3,3,3,4.1,5.3c1.1,2.2,1.6,4.7,1.6,7.4c0,4.7-1.6,8.6-4.7,11.6C702,305.2,703.4,308.5,705.3,312.8z
				 M681.2,296.9h8c1.2,0,2.4-0.5,3.6-1.4c1.2-0.9,1.8-2.3,1.8-4.1s-0.6-3.2-1.8-4.2c-1.2-0.9-2.5-1.4-3.8-1.4h-7.9v11.1H681.2z"/>
		</g>
		<g>
			<path fill="#332F2E" d="M687.2,350.5c-29.5,0-53.4-24-53.4-53.4c0-29.5,24-53.4,53.4-53.4c29.5,0,53.4,24,53.4,53.4
				C740.7,326.5,716.7,350.5,687.2,350.5z M687.2,251.3c-25.2,0-45.7,20.5-45.7,45.7s20.5,45.7,45.7,45.7s45.7-20.5,45.7-45.7
				S712.4,251.3,687.2,251.3z"/>
		</g>
	</g>
</g>
</svg>
