<?xml version="1.0" encoding="utf-8"?>
<!-- Generator: Adobe Illustrator 18.0.0, SVG Export Plug-In . SVG Version: 6.00 Build 0)  -->
<!DOCTYPE svg PUBLIC "-//W3C//DTD SVG 1.1//EN" "http://www.w3.org/Graphics/SVG/1.1/DTD/svg11.dtd">
<svg version="1.1" id="Capa_1" xmlns="http://www.w3.org/2000/svg" xmlns:xlink="http://www.w3.org/1999/xlink" x="0px" y="0px"
	 viewBox="0 0 1000 1000" enable-background="new 0 0 1000 1000" xml:space="preserve">
<g>
	<g>
		<path fill="#332F2E" d="M500,1000C224.3,1000,0,775.7,0,500S224.3,0,500,0s500,224.3,500,500S775.7,1000,500,1000z M500,3.3
			C226.1,3.3,3.3,226.1,3.3,500S226.1,996.7,500,996.7S996.7,773.9,996.7,500S773.9,3.3,500,3.3z"/>
	</g>
	<g>
		<g>
			<path fill="#332F2E" d="M250.5,421.4v220.2c0,33.6,27.3,60.9,60.9,60.9h377.2c33.6,0,60.9-27.3,60.9-60.9V421.4
				c0-32-26-57.9-57.9-57.9h-81.1l-1.9-8.5c-7.8-33.9-37.7-57.5-72.5-57.5h-72.2c-34.7,0-64.6,23.6-72.5,57.5l-1.9,8.5h-81
				C276.5,363.5,250.5,389.6,250.5,421.4z M399.4,388.4c5.8,0,10.8-4,12.1-9.7l4.2-18.1c5.3-22.5,25-38.2,48.2-38.2H536
				c23.1,0,42.9,15.7,48.2,38.2l4.2,18.1c1.3,5.6,6.3,9.7,12.1,9.7h90.9c18.2,0,33,14.8,33,33v220.2c0,19.9-16.1,35.9-35.9,35.9
				H311.4c-19.9,0-35.9-16.1-35.9-35.9V421.4c0-18.2,14.8-33,33-33H399.4L399.4,388.4z"/>
			<circle fill="#332F2E" cx="334.9" cy="441.7" r="16.7"/>
			<path fill="#332F2E" d="M500,638.4c57.7,0,104.8-47,104.8-104.8s-47-104.8-104.8-104.8s-104.8,46.9-104.8,104.8
				S442.3,638.4,500,638.4z M500,453.8c44,0,79.8,35.8,79.8,79.8S544,613.5,500,613.5s-79.8-35.8-79.8-79.8S456,453.8,500,453.8z"/>
		</g>
	</g>
</g>
</svg>
