<?xml version="1.0" encoding="utf-8"?>
<!-- Generator: Adobe Illustrator 19.0.1, SVG Export Plug-In . SVG Version: 6.00 Build 0)  -->
<svg version="1.1" id="Capa_1" xmlns="http://www.w3.org/2000/svg" xmlns:xlink="http://www.w3.org/1999/xlink" x="0px" y="0px"
	 viewBox="0 0 46.8 46.8" style="enable-background:new 0 0 46.8 46.8;" xml:space="preserve">
<style type="text/css">
	.st0{fill:#FFFFFF;}
</style>
<g>
	<g>
		<path class="st0" d="M23.4,46.8C10.5,46.8,0,36.3,0,23.4C0,10.5,10.5,0,23.4,0s23.4,10.5,23.4,23.4C46.8,36.3,36.3,46.8,23.4,46.8
			z M23.4,0.6C10.8,0.6,0.6,10.8,0.6,23.4s10.2,22.8,22.8,22.8S46.2,36,46.2,23.4S36,0.6,23.4,0.6z"/>
	</g>
	<path class="st0" d="M29.7,18.6h-4.3v-2.8c0-1.1,0.7-1.3,1.2-1.3c0.5,0,3,0,3,0V9.9l-4.2,0c-4.6,0-5.7,3.5-5.7,5.7v3.1h-2.7v4.8
		h2.7c0,6.1,0,13.5,0,13.5h5.6c0,0,0-7.5,0-13.5h3.8L29.7,18.6z"/>
</g>
</svg>
