<?xml version="1.0" encoding="utf-8"?>
<!-- Generator: Adobe Illustrator 18.0.0, SVG Export Plug-In . SVG Version: 6.00 Build 0)  -->
<!DOCTYPE svg PUBLIC "-//W3C//DTD SVG 1.1//EN" "http://www.w3.org/Graphics/SVG/1.1/DTD/svg11.dtd">
<svg version="1.1" id="Capa_1" xmlns="http://www.w3.org/2000/svg" xmlns:xlink="http://www.w3.org/1999/xlink" x="0px" y="0px"
	 viewBox="0 0 1000 199.5" enable-background="new 0 0 1000 199.5" xml:space="preserve">
<path fill="#FFFFFF" d="M981.1,157.3c-2.2-2.4-4.7-4.6-7.4-6.6c0.2-3.3-0.3-6.7-1.6-9.9c-1.7-4.8-4.8-8.6-8.2-11.7
	c11.7-7.6,17.2-23,12-36.8c-5.8-16.5-24.1-24.7-40.2-18.9c-1.4,0.3-2.7,1-4.1,1.7c-0.3-1.7-0.7-3.4-1.4-5.2
	c-0.8-2.2-1.9-4.3-3.2-6.2c2.6-25.6-12.3-51.2-37.5-60.4C860-7.3,826.3,8.1,815.5,37.8c-1.3,3.4-2,6.7-2.7,10.1
	c-2.7-1.3-5.4-2.7-8.1-3.4c-31.2-11.3-66.2,4.2-78.2,35.6c-3.7-1.8-7.8-2.7-12-2.3c-1.1,0.1-2.2,0.3-3.2,0.5
	c-3.7-1.7-7.9-2.5-12.2-2.1c-13.3,0.9-24.1,12.9-25,28c-11.5,3.8-19.2,16.1-18.1,30.1c-0.9,0.8-1.7,1.7-2.6,2.6c-0.1,0-0.2,0-0.3,0
	c-13.9,0-26.3,6.6-34.1,16.8c-1,1.3-1.9,2.6-2.7,3.9c-12.4-4.7-26.2-1.1-34.6,8.5c-2.4-3.8-6-7.2-10.3-9.6c-9.6-5-20.8-3.6-28.9,2.6
	c-1.4-1.2-3.1-2.1-4.8-3.1c-10.1-5.2-21.8-4.2-30.7,1.6c-12.5-5-26.5-1.4-35,8.4c-2.4-3.8-6-7.2-10.3-9.6c-9.6-5-20.8-3.6-28.9,2.6
	c-1.4-1.2-3.1-2.1-4.8-3.1c-1.3-0.7-2.6-1.2-3.9-1.7c-9.4-8.6-21.9-13.7-35.7-13.3c-6,0.3-11.8,1.5-17.1,3.5
	c-3.1-2.2-6.5-4-10.2-5.3c-4.1-17.9-18-32-35.6-36.4C324.5,88.4,314,76.9,301,76.1c-10.1-0.9-19.2,4.6-24.5,13.4
	c-0.6-2.7-1.4-5.4-2.4-8c-11.4-32.3-47.1-48.5-78.8-37c-2.7,0.7-5.4,2-8.1,3.4c-0.7-3.4-1.3-6.7-2.7-10.1
	C173.8,8.1,140.1-7.3,110.5,3.4c-25.1,9.1-40.1,34.7-37.5,60.4c-1.3,1.9-2.4,4-3.2,6.2c-0.7,1.7-1,3.4-1.4,5.2
	c-1.4-0.7-2.7-1.4-4.1-1.7C48.2,67.6,30,75.9,24.2,92.4c-5.2,13.7,0.3,29.2,12,36.8c-3.4,3.1-6.5,6.9-8.2,11.7
	c-1.4,3.6-1.9,7.4-1.5,11.1c-13.8,8.3-23.6,22.6-25.8,39.3C0.2,194,0,196.5,0,199.5h0.1l0,0h308.5h76.5l0,0h55.3c0,0,0,0,0.1,0h57.8
	h26h90.3c0.1,0,0.3,0,0.4,0h76.5h19h74.3h104.6h104.9h5.8c0,0,0-1.7,0-2.5C999.5,181.1,992.3,167,981.1,157.3z"/>
</svg>
