<?xml version="1.0" encoding="utf-8"?>
<!-- Generator: Adobe Illustrator 18.0.0, SVG Export Plug-In . SVG Version: 6.00 Build 0)  -->
<!DOCTYPE svg PUBLIC "-//W3C//DTD SVG 1.1//EN" "http://www.w3.org/Graphics/SVG/1.1/DTD/svg11.dtd">
<svg version="1.1" id="Capa_1" xmlns="http://www.w3.org/2000/svg" xmlns:xlink="http://www.w3.org/1999/xlink" x="0px" y="0px"
	 viewBox="0 0 1000 200.6" enable-background="new 0 0 1000 200.6" xml:space="preserve">
<path fill="#FFFFFF" d="M947.4,141.8c-9.7,0.4-18.4,3.2-26.4,8.1v-0.4c0-10.6-3.8-20.4-9.8-28.3c5.4-8.1,7.2-18.6,3.5-28.3
	c-5.9-16.6-24.1-24.9-40.4-19c-1.4,0.3-2.7,1-4.1,1.7c-0.3-1.7-0.7-3.5-1.4-5.2c-0.8-2.3-1.9-4.4-3.2-6.3
	c2.6-25.8-12.4-51.5-37.7-60.7C798.2-7.4,764.3,8.2,753.5,38c-1.4,3.4-2,6.8-2.7,10.2c-2.7-1.4-5.4-2.7-8.1-3.4
	C710.9,33.2,675,49.5,663.5,82c-1,2.7-1.8,5.3-2.4,8c-5.3-8.8-14.5-14.4-24.7-13.5c-13.4,0.9-24.2,13-25.1,28.1
	c-9.2,3.1-15.9,11.5-17.8,21.8c-4.2,1.6-8.1,3.8-11.7,6.5c-2.4-2-5.2-3.6-8.1-5.2c-8-4.1-16.6-5.9-25-5.7c-6.3-2.3-13.4-2.5-20.1,0
	c-1.3,0.3-2.6,1-3.9,1.6c-0.3-1.6-0.6-3.2-1.3-4.8c-5.1-14.2-21.2-21.6-35.4-16.4c-2.6,0.9-5,2.3-7.1,3.9c-3-3.5-7-6.3-11.6-8
	c-14.7-5.4-31.5,2.3-36.9,17.1c-0.7,1.7-1,3.4-1.3,5c-1.3-0.7-2.7-1.3-4-1.7c-14.2-5.1-30,0.9-37.1,13.8c0.1-13.1-7.4-24.3-18.3-28
	c-0.9-15.2-11.7-27.3-25.1-28.1c-10.1-0.9-19.3,4.7-24.7,13.5c-0.6-2.7-1.4-5.4-2.4-8c-11.5-32.5-47.4-48.7-79.2-37.2
	c-2.7,0.7-5.4,2-8.1,3.4c-0.7-3.4-1.4-6.8-2.7-10.2C218.8,8.2,185-7.4,155.2,3.4c-25.3,9.2-40.3,34.9-37.7,60.7
	c-1.3,1.9-2.4,4-3.2,6.3c-0.7,1.7-1,3.5-1.4,5.2c-1.4-0.7-2.8-1.4-4.1-1.7c-16.2-5.9-34.6,2.4-40.4,19c-5.2,13.8,0.3,29.2,11.9,36.9
	c-7.9,5.5-13.2,14.3-14.2,24.2c-5.6-2-11.7-3.2-18.1-2.8c-27,0.8-48.4,22.5-48,49.5h999.6c0.4-3,0.3-6.4,0.3-9.2
	C999.1,163.2,975.6,141,947.4,141.8z"/>
</svg>
