<?xml version="1.0" encoding="utf-8"?>
<!-- Generator: Adobe Illustrator 18.0.0, SVG Export Plug-In . SVG Version: 6.00 Build 0)  -->
<!DOCTYPE svg PUBLIC "-//W3C//DTD SVG 1.1//EN" "http://www.w3.org/Graphics/SVG/1.1/DTD/svg11.dtd">
<svg version="1.1" id="Capa_1" xmlns="http://www.w3.org/2000/svg" xmlns:xlink="http://www.w3.org/1999/xlink" x="0px" y="0px"
	 viewBox="0 0 1000 200.7" enable-background="new 0 0 1000 200.7" xml:space="preserve">
<g>
	<g>
		<path fill="#FFFFFF" d="M711.6,132.6c-22.2-11.3-48.4-5.6-63.7,12.1c-4-6.4-10.1-12.1-17.3-16.1c-16.1-8.5-35.1-6-48.8,4.4
			c-2.4-2-5.2-3.6-8.1-5.2c-25-12.9-56-3.2-68.9,21.8c-8.5,16.5-7.3,35.5,2,50.4h228.9C746.6,174.9,736.2,145.1,711.6,132.6z"/>
		<path fill="#FFFFFF" d="M289.8,182.9c-1.2-13.7-12.9-23.4-26.6-22.6c-2,0-3.6,0.4-5.6,1.2c0-1.2,0-2,0-3.2
			c-1.2-15.3-14.9-27-30.6-25.8c-8.5,0.8-15.7,5.2-20.6,11.7c-5.2-6.4-13.3-10.1-21.8-9.3c-10.5,0.8-18.9,8.5-22.2,18.1H162v47.1
			h122.5C288.2,195.4,290.2,189.4,289.8,182.9z M205.2,177.3c0.4-0.4,0.4-0.8,0.8-0.8c0.4,0.8,0.8,1.2,1.6,2
			C206.4,178.1,205.6,177.7,205.2,177.3z"/>
		<path fill="#FFFFFF" d="M484.9,176.7c2.3-2,4.4-4.7,5.4-8c3.4-9.4-0.7-19.8-9.4-24.1c2.3-2.7,4.4-5.7,5.7-9.4
			c5.4-14.7-2.3-31.5-17.1-36.9c-14.7-5.4-31.5,2.3-36.9,17.1c-0.7,1.7-1,3.4-1.3,5c-1.3-0.7-2.7-1.3-4-1.7
			c-15.8-5.7-33.5,2.3-39.2,18.4c-5,13.4,0.3,28.5,11.7,35.9c-3.4,3-6.4,6.7-8,11.4c-2,5-2,10.4-0.7,15.4h100.2
			C492.6,191.8,490.2,183.1,484.9,176.7z"/>
		<path fill="#FFFFFF" d="M467.2,199.9h96.2c1.3-4.8,1.3-10-0.6-14.8c-1.6-4.5-4.5-8-7.7-10.9c10.9-7.1,16.1-21.6,11.3-34.4
			c-5.5-15.4-22.5-23.2-37.6-17.7c-1.3,0.3-2.6,1-3.9,1.6c-0.3-1.6-0.6-3.2-1.3-4.8c-5.1-14.2-21.2-21.6-35.4-16.4
			c-14.2,5.1-21.6,21.2-16.4,35.4c1.3,3.5,3.2,6.4,5.5,9c-8.4,4.2-12.2,14.2-9,23.2c1,3.2,2.9,5.8,5.1,7.7
			C468.2,183.8,465.9,192.2,467.2,199.9z"/>
		<path fill="#FFFFFF" d="M272.8,189.4c0-2-0.4-4-1.2-6c0.4,0,0.4,0,0.8,0c16.9-1.2,29.4-17.7,27.8-36.7
			c-1.2-17.3-13.7-30.6-28.6-32.2c0.8-3.2,0.8-6,0.8-9.7C271.2,89.1,259.1,77,245,78.2c-12.5,0.8-22.6,12.1-23.4,26.2
			c-10.9,3.6-18.1,15.3-16.9,28.6c0.8,10.9,6.9,19.7,14.9,23.8c-4.4,4-6.9,10.1-6.4,16.9c0.8,10.9,9.3,19.3,19.3,18.5
			c0.8,0,1.6-0.4,2.4-0.4c0,0,0,0,0,0.4c0.4,2.8,0.8,5.6,2,8.1h34.3C272.4,197.1,273.2,193.4,272.8,189.4z"/>
		<path fill="#FFFFFF" d="M746.2,189.4c0-2-0.4-4-1.2-6c0.4,0,0.4,0,0.8,0c16.9-1.2,29.4-17.7,27.8-36.7
			c-1.2-17.3-13.7-30.6-28.6-32.2c0.8-3.2,0.8-6,0.8-9.7c-1.2-15.7-13.3-27.8-27.4-26.6c-12.5,0.8-22.6,12.1-23.4,26.2
			c-10.9,3.6-18.1,15.3-16.9,28.6c0.8,10.9,6.9,19.7,14.9,23.8c-4.4,4-6.9,10.1-6.4,16.9c0.8,10.9,9.3,19.3,19.3,18.5
			c0.8,0,1.6-0.4,2.4-0.4c0,0,0,0,0,0.4c0.4,2.8,0.8,5.6,2,8.1h34.3C745.8,197.1,746.6,193.4,746.2,189.4z"/>
		<path fill="#FFFFFF" d="M443.2,191.4c-0.8-28.2-24.2-50.4-52.4-49.6c-9.7,0.4-18.5,3.2-26.2,8.1v-0.4c-0.8-27-23.4-48.4-50.4-47.5
			c-18.1,0.4-33.4,10.9-41.9,25.4c-4.8-2.4-10.5-3.6-16.1-3.6c-17.3,0.4-31,13.7-32.6,30.2c-5.6-2-11.7-3.2-18.1-2.8
			c-27,0.8-48.4,23-48,49.6h285.3C443.2,197.5,443.2,194.2,443.2,191.4z"/>
		<path fill="#FFFFFF" d="M285.7,191.4c-0.8-28.2-24.2-50.4-52.4-49.6c-9.7,0.4-18.5,3.2-26.2,8.1v-0.4c-0.8-27-23.4-48.4-50.4-47.5
			c-18.1,0.4-33.4,10.9-41.9,25.4c-4.8-2.4-10.5-3.6-16.1-3.6c-17.3,0.4-31,13.7-32.6,30.2c-5.6-2-11.7-3.2-18.1-2.8
			c-27,0.8-48.4,23-48,49.6h285.3C285.7,197.5,285.7,194.2,285.7,191.4z"/>
		<path fill="#FFFFFF" d="M1000,191.4c-0.8-28.2-24.2-50.4-52.4-49.6c-9.7,0.4-18.5,3.2-26.2,8.1v-0.4c-0.8-27-23.4-48.4-50.4-47.5
			c-18.1,0.4-33.4,10.9-41.9,25.4c-4.8-2.4-10.5-3.6-16.1-3.6c-17.3,0.4-31,13.7-32.6,30.2c-5.6-2-11.7-3.2-18.1-2.8
			c-27,0.8-48.4,23-48,49.6h285.3C1000,197.5,1000,194.2,1000,191.4z"/>
		<path fill="#FFFFFF" d="M162.9,147.9c-14.5-6.4-31.8-2.4-41.5,10.9c-1.2,1.6-2.4,3.6-3.2,5.2c-1.2-1.2-2.4-2.4-4-3.2
			c-16.1-11.7-39.1-8.5-50.8,8.1c-6.9,9.7-8.5,21.4-5.6,31.8h105.2L162.9,147.9L162.9,147.9z"/>
		<path fill="#FFFFFF" d="M196.1,147.9c-14.5-6.4-31.8-2.4-41.5,10.9c-1.2,1.6-2.4,3.6-3.2,5.2c-1.2-1.2-2.4-2.4-4-3.2
			c-16.1-11.7-39.1-8.5-50.8,8.1c-6.9,9.7-8.5,21.4-5.6,31.8h105.2L196.1,147.9L196.1,147.9z"/>
		<path fill="#FFFFFF" d="M667.3,200.3h122.5v-47.1h-0.4c-3.2-9.7-11.7-17.3-22.2-18.1c-8.5-0.8-16.5,2.8-21.8,9.3
			c-4.8-6.4-12.1-10.9-20.6-11.7c-15.7-1.2-29.4,10.5-30.6,25.8c0,1.2,0,2,0,3.2c-2-0.8-3.6-1.2-5.6-1.2
			c-13.7-0.8-25.4,8.9-26.6,22.6C661.6,189.4,663.7,195.4,667.3,200.3z M744.2,178.5c0.8-0.8,1.2-1.2,1.6-2c0.4,0,0.4,0.4,0.8,0.8
			C746.3,177.7,745.5,178.1,744.2,178.5z"/>
		<path fill="#FFFFFF" d="M789,147.9v52.8h105.2c2.8-10.5,1.2-22.2-5.6-31.8c-11.7-16.5-34.7-19.7-50.8-8.1c-1.6,0.8-2.8,2-4,3.2
			c-0.8-1.6-2-3.6-3.2-5.2C820.8,145.5,803.5,141.4,789,147.9L789,147.9z"/>
	</g>
	<path fill="#FFFFFF" d="M820.5,152.7c0.3-3.7-0.1-7.5-1.5-11.1c-1.7-4.8-4.8-8.6-8.3-11.8c11.8-7.6,17.3-23.2,12.1-37
		c-5.9-16.6-24.2-24.9-40.4-19c-1.4,0.3-2.8,1-4.1,1.7c-0.3-1.7-0.7-3.5-1.4-5.2c-0.8-2.3-1.9-4.4-3.2-6.3
		c2.6-25.8-12.4-51.5-37.7-60.7C706.2-7.4,672.3,8.2,661.5,38c-1.4,3.4-2,6.8-2.7,10.2c-2.7-1.4-5.4-2.7-8.1-3.4
		C618.8,33.2,583,49.5,571.5,82c-1,2.7-1.8,5.3-2.4,8c-5.3-8.8-14.5-14.4-24.7-13.5c-13.4,0.9-24.2,13-25.1,28.1
		c-11.6,3.9-19.3,16.2-18.2,30.3c-0.9,0.8-1.8,1.7-2.6,2.6c-0.1,0-0.2,0-0.3,0c-14,0-26.4,6.6-34.3,16.9c-5.6,7.3-9,16.4-9,26.4
		c0,7.2,1.8,13.9,4.8,19.9h76.9h310.2c0-0.9,0-1.7,0-2.5C846.4,178.8,835.9,162.1,820.5,152.7z"/>
	<path fill="#FFFFFF" d="M199,152.7c-0.3-3.7,0.1-7.5,1.5-11.1c1.7-4.8,4.8-8.6,8.3-11.8c-11.8-7.6-17.3-23.2-12.1-37
		c5.9-16.6,24.2-24.9,40.4-19c1.4,0.3,2.8,1,4.1,1.7c0.3-1.7,0.7-3.5,1.4-5.2c0.8-2.3,1.9-4.4,3.2-6.3
		c-2.6-25.8,12.4-51.5,37.7-60.7C313.3-7.4,347.1,8.2,358,38c1.4,3.4,2,6.8,2.7,10.2c2.7-1.4,5.4-2.7,8.1-3.4
		c31.8-11.5,67.7,4.7,79.2,37.2c1,2.7,1.8,5.3,2.4,8c5.3-8.8,14.5-14.4,24.7-13.5c13.4,0.9,24.2,13,25.1,28.1
		c11.6,3.9,19.3,16.2,18.2,30.3c0.9,0.8,1.8,1.7,2.6,2.6c0.1,0,0.2,0,0.3,0c14,0,26.4,6.6,34.3,16.9c5.6,7.3,9,16.4,9,26.4
		c0,7.2-1.8,13.9-4.8,19.9h-76.9H172.5c0-0.9,0-1.7,0-2.5C173.1,178.8,183.5,162.1,199,152.7z"/>
</g>
</svg>
