<?xml version="1.0" encoding="utf-8"?>
<!-- Generator: Adobe Illustrator 18.0.0, SVG Export Plug-In . SVG Version: 6.00 Build 0)  -->
<!DOCTYPE svg PUBLIC "-//W3C//DTD SVG 1.1//EN" "http://www.w3.org/Graphics/SVG/1.1/DTD/svg11.dtd">
<svg version="1.1" id="Capa_1" xmlns="http://www.w3.org/2000/svg" xmlns:xlink="http://www.w3.org/1999/xlink" x="0px" y="0px"
	 viewBox="0 0 1000 201.8" enable-background="new 0 0 1000 201.8" xml:space="preserve">
<path fill="#FFFFFF" d="M991.7,163.8c-13.9-19.7-41.3-23.6-60.5-9.6c-1.9,1-3.4,2.4-4.8,3.8c-1-1.9-2.4-4.3-3.9-6.2
	c-11.5-15.8-31.5-20.7-49.5-13v5c-3-10.9-13.9-19.4-25.9-20.3c-10.1-1-19.7,3.4-25.9,11c-5.8-7.7-14.4-13-24.5-13.9
	c-4.6-0.4-9,0.2-13.1,1.5c-0.9-0.5-1.9-1-2.8-1.5c-8-4.1-16.4-6.3-24.8-6.8c-6.3-8.2-15.4-13.7-25.3-14.8c1-3.8,1-7.2,1-11.5
	c-1.4-18.7-15.8-33.1-32.7-31.7c-14.9,1-26.9,14.4-27.9,31.2c-0.4,0.1-0.9,0.3-1.3,0.5c-7.7-12.6-23.6-18.3-37.8-13.2
	c-1.4,0.3-2.8,1-4.2,1.7c-0.3-1.7-0.7-3.5-1.4-5.2c-0.8-2.3-1.9-4.4-3.2-6.3c2.6-25.9-12.5-51.8-37.9-61c-19.4-7.1-40.5-3-55.9,8.9
	c-16.4-0.7-32.5,6.5-43,19.1C473.3,6,442.2-6.6,414.6,3.5c-22.5,8.2-36.9,29.4-38.1,52.2c-0.3,0-0.6,0-0.9,0
	c-10.4,0.7-19.4,7.4-24.2,17.2c-8.8,1.6-16.8,6.9-21.6,15c-7-2.7-14.6-4.1-22.6-3.8c-21.6,0.5-39.9,13-49.9,30.3
	c-5.8-2.9-12.5-4.3-19.2-4.3c-10.4,0.2-19.7,4.4-26.6,10.9c-2.7-0.5-5.5-0.6-8.3-0.4c-10.1,1-18.7,6.2-24.5,13.9
	c-6.2-7.7-15.8-12-25.9-11c-12,0.9-21.9,9.4-25.9,20.3v-5c-17-7.7-38-2.9-49.5,13c-1.4,1.9-2.9,4.3-3.9,6.2
	c-1.4-1.4-2.9-2.9-4.8-3.8c-19.2-13.9-46.6-10-60.5,9.6c-8.2,11.5-10.1,26-6.7,38h119h6.4H303l0,0h4.9h77.3h229.6h77.3h4.9
	c0,0,0,0,0,0h31.1h2.1h142.4l0,0h125.9C1001.8,189.8,999.9,175.3,991.7,163.8z M819.8,175.3c1-1,1.4-1.4,1.9-2.4c0.5,0,0.5,0.5,1,1
	C822.2,174.3,821.2,174.8,819.8,175.3z"/>
</svg>
