<?xml version="1.0" encoding="utf-8"?>
<!-- Generator: Adobe Illustrator 18.0.0, SVG Export Plug-In . SVG Version: 6.00 Build 0)  -->
<!DOCTYPE svg PUBLIC "-//W3C//DTD SVG 1.1//EN" "http://www.w3.org/Graphics/SVG/1.1/DTD/svg11.dtd">
<svg version="1.1" id="Capa_1" xmlns="http://www.w3.org/2000/svg" xmlns:xlink="http://www.w3.org/1999/xlink" x="0px" y="0px"
	 viewBox="0 0 1000 1000" enable-background="new 0 0 1000 1000" xml:space="preserve">
<path fill="#332F2E" d="M717,886.4V747.7c0-14.9-12.9-25.8-27.8-25.8h-11.3l0.2-70.2c45.5-30.2,71.1-82.8,84.9-123.8l123.3,51.9
	c8.9,3.8,18.3,5.6,27.6,5.6c9,0,18.1-1.8,26.7-5.3c17.6-7.1,31.3-20.7,38.7-38.2l15-35.5c7.4-17.5,7.5-36.8,0.4-54.4
	s-20.7-31.3-38.2-38.7l-146.4-61.5l6.8-24.5c0.1-0.3,0.2-0.6,0.2-1c4.5-19,1.4-38.7-8.9-55.3c-10.3-16.7-26.4-28.3-45.4-32.8
	l-2.8-0.7c-12.4-3-24.9-2.5-36.4,0.7c-9.2-19.5-26.8-34.8-49.4-40.2l-2.7-0.6c-12-2.9-24.1-2.6-35.5,0.3c-0.9-1.9-2-3.7-3.1-5.5
	c-10.3-16.7-26.4-28.3-45.4-32.8l-2.8-0.7c-9.9-2.4-20-2.6-29.6-0.9c-1.7-4.6-3.9-9.1-6.5-13.4c-10.3-16.7-26.4-28.3-45.5-32.8
	l-2.7-0.6c-19-4.5-38.7-1.4-55.3,8.9c-16.5,10.2-28.1,26.2-32.7,45l-4.8,17.8l-189.7-79.9c-0.1,0-0.2-0.1-0.3-0.1
	c-0.5-0.2-1-0.4-1.5-0.6c-0.3-0.1-0.7-0.2-1-0.3c-0.4-0.1-0.9-0.2-1.3-0.3c-0.5-0.1-0.9-0.2-1.4-0.3c-0.4-0.1-0.7-0.1-1.1-0.2
	c-0.6-0.1-1.1-0.1-1.7-0.2c-0.1,0-0.3,0-0.4-0.1L28.7,89.2c-11.4-0.8-21.8,5.6-26.4,15.9S0,127.5,8.1,135.4L135,259.3l0.1,0.1
	l0.1,0.1c0.1,0.1,0.2,0.1,0.2,0.2c0.5,0.5,1.1,1,1.6,1.5c0.3,0.2,0.6,0.4,0.8,0.6c0.3,0.2,0.6,0.5,0.9,0.7c0.1,0.1,0.2,0.1,0.3,0.2
	c0.5,0.3,0.9,0.6,1.4,0.9c3.4,2.2,7,4.2,10.8,5.8l115.4,48.8c-8.5,25-13.7,54.7-18.4,81.4c-14.7,84.5,45.6,172.7,65.8,199.3
	l0.1,123.1h-22.4c-14.9,0-28.8,10.9-28.8,25.8v138.7V911h454L717,886.4L717,886.4z M906,450.5l29.6,12.4c4.2,1.8,7.5,5.1,9.2,9.3
	c1.7,4.2,1.7,8.9-0.1,13.1l-15,35.5c-1.8,4.2-5.1,7.5-9.3,9.2s-8.9,1.7-13.1-0.1l-31.5-13.3L906,450.5z M777.3,470.4l18.3-66.3
	l60.7,25.5l-30.2,66.1l-49.5-20.9C776.9,473,777.1,471.5,777.3,470.4z M145.9,194.5l-48-46.9l68.2,4.4L145.9,194.5z M190.1,227.1
	l30.7-64.6l172.8,72.6l-18.8,70L190.1,227.1z M663,859.9h-0.8H321v-87h342V859.9z M639,611.6c-9,4.6-14.7,14.3-14.8,24.4l-0.3,82.9
	H368.2l-0.1-129.7c0-6.3-2.2-12.7-6.3-17.5c-0.7-0.9-73.3-88.7-60.3-162.9c4.1-23.4,8.6-49.3,15.1-69.7l48.7,20.6
	c2.9,7.9,9.5,14.3,18.2,16.6c14.4,3.9,29.2-4.7,33-19l48.1-178.8c0.1-0.3,0.1-0.5,0.2-0.8c1.2-5,4.3-9.3,8.7-12
	c4.4-2.7,9.6-3.5,14.6-2.3l2.7,0.6c5,1.2,9.3,4.3,12,8.7s3.5,9.6,2.3,14.6l-2.7,11.5l-31.8,110c-4.1,14.3,4.1,29.2,18.4,33.4
	c2.5,0.7,5,1.1,7.5,1.1c11.7,0,22.5-7.7,25.9-19.5l30.7-106.3c4.6-5.5,12-8.1,19.2-6.4l2.8,0.7c5,1.2,9.3,4.3,12,8.7
	c2.7,4.3,3.5,9.4,2.4,14.3l-28.2,95.4c-4.2,14.3,3.9,29.3,18.2,33.5c2.6,0.8,5.1,1.1,7.7,1.1c11.6,0,22.4-7.6,25.8-19.3l26.1-88.3
	c4.6-6.2,12.3-9.2,20-7.4l2.7,0.6c10.4,2.5,16.8,12.9,14.3,23.3l-4.1,17.2l-23,73.3c-4.5,14.2,3.4,29.3,17.7,33.8
	c2.7,0.8,5.4,1.2,8.1,1.2c11.5,0,22.1-7.4,25.7-18.9l23.3-74.2c0.1-0.3,0.2-0.7,0.3-1s0.2-0.6,0.3-0.9c2.5-10.4,12.9-16.8,23.2-14.3
	l2.8,0.7c10.2,2.4,16.6,12.6,14.4,22.9l-39.9,144.2c-0.3,1.1-0.6,2.3-0.7,3.5C724,462.3,707.1,577,639,611.6z"/>
</svg>
