<?xml version="1.0" encoding="utf-8"?>
<!-- Generator: Adobe Illustrator 18.0.0, SVG Export Plug-In . SVG Version: 6.00 Build 0)  -->
<!DOCTYPE svg PUBLIC "-//W3C//DTD SVG 1.1//EN" "http://www.w3.org/Graphics/SVG/1.1/DTD/svg11.dtd">
<svg version="1.1" id="Capa_1" xmlns="http://www.w3.org/2000/svg" xmlns:xlink="http://www.w3.org/1999/xlink" x="0px" y="0px"
	 viewBox="0 0 50 32.2" enable-background="new 0 0 50 32.2" xml:space="preserve">
<g>
	<defs>
		<rect id="SVGID_1_" y="0" width="50" height="32.2"/>
	</defs>
	<clipPath id="SVGID_2_">
		<use xlink:href="#SVGID_1_"  overflow="visible"/>
	</clipPath>
	<path clip-path="url(#SVGID_2_)" fill="#FFFFFF" d="M24.6,22.4h6.3c0,0-6.3,1.3-6.3-22.4c0,23.7-6.3,22.4-6.3,22.4H24.6z"/>
	<path clip-path="url(#SVGID_2_)" fill="#FFFFFF" d="M78.2,20.9c-0.8-0.3-1.7,0.1-2,0.9c0,0.1-0.1,0.2-0.1,0.3
		c-0.1,0-0.1-0.1-0.2-0.1c-0.6-0.2-1.3-0.1-1.8,0.4c-0.1-1-0.9-1.8-1.9-2c-1.1-0.2-2.2,0.4-2.7,1.3c-0.3-0.2-0.6-0.4-1-0.5
		c-0.8-0.2-1.6,0.2-2.1,0.8c-0.1-0.1-0.3-0.1-0.4-0.1c-0.7-0.1-1.3,0-1.8,0.4c-0.1-0.1-0.1-0.1-0.2-0.2c0.1-0.1,0.2-0.3,0.3-0.5
		c0.3-0.8-0.1-1.6-0.9-1.9c-0.8-0.3-1.6,0.1-1.9,0.9c0,0.1-0.1,0.2-0.1,0.3c-0.1,0-0.1-0.1-0.2-0.1c-0.7-0.3-1.5,0-1.9,0.6h0
		c0.1-0.1,0.1-0.2,0.2-0.4c0.2-0.7-0.1-1.4-0.7-1.6c-0.6-0.2-1.2,0.1-1.4,0.7c-0.5,0-1,0.4-1.2,0.9c-0.4-0.8-1.2-1.4-2.1-1.3
		c-0.8,0-1.5,0.5-1.9,1.2c-0.2-0.1-0.5-0.2-0.7-0.2c-0.8,0-1.4,0.6-1.5,1.4c-0.3-0.1-0.5-0.1-0.8-0.1c-0.6,0-1.1,0.2-1.4,0.6
		c-0.1-0.2-0.4-0.4-0.7-0.6c-0.4-0.2-0.8-0.1-1.2,0c-0.1-0.4-0.4-0.8-0.8-0.9c-0.5-0.2-1.1-0.1-1.4,0.3c-0.1-0.1-0.2-0.2-0.3-0.2
		C43,21,42.9,21,42.8,21c-0.8-0.3-1.7,0.1-2,0.9c0,0.1-0.1,0.2-0.1,0.3c-0.1,0-0.1-0.1-0.2-0.1c-0.6-0.2-1.3-0.1-1.8,0.4
		c-0.1-1-0.9-1.8-1.9-2c-1.1-0.2-2.2,0.4-2.7,1.3c-0.3-0.2-0.6-0.4-1-0.5c-0.8-0.2-1.6,0.2-2.1,0.8c-0.1-0.1-0.3-0.1-0.4-0.1
		c-0.2,0-0.4-0.1-0.5,0c0.2-0.7-0.1-1.4-0.8-1.8c0.2-0.2,0.3-0.4,0.4-0.7c0.4-1.2-0.2-2.5-1.4-2.9c-1.2-0.4-2.5,0.2-2.9,1.3
		c-0.1,0.1-0.1,0.3-0.1,0.4c-0.1-0.1-0.2-0.1-0.3-0.1c-1.3-0.5-2.7,0.2-3.1,1.4c-0.1,0.2-0.1,0.4-0.1,0.7c-0.5,0-1,0.4-1.1,0.9
		c-0.4-0.8-1.2-1.4-2.1-1.3c-0.8,0-1.5,0.5-1.9,1.2c-0.2-0.1-0.5-0.2-0.7-0.2c-0.8,0-1.4,0.6-1.5,1.4C14.2,22,13.9,22,13.6,22
		c-0.6,0-1.1,0.2-1.4,0.6c-0.1-0.2-0.4-0.4-0.7-0.6c-0.4-0.2-0.8-0.1-1.2,0c-0.1-0.4-0.4-0.8-0.8-0.9C9,20.9,8.5,21,8.1,21.4
		c-0.1-0.1-0.2-0.2-0.3-0.2v0C7.7,21.1,7.6,21,7.5,21c-0.8-0.3-1.7,0.1-2,0.9c0,0.1-0.1,0.2-0.1,0.3c-0.1,0-0.1-0.1-0.2-0.1
		c-0.6-0.2-1.3-0.1-1.8,0.4c-0.1-1-0.9-1.8-1.9-2c-1.1-0.2-2.2,0.4-2.7,1.3c-0.3-0.2-0.6-0.4-1-0.5c-0.8-0.2-1.6,0.2-2.1,0.8
		C-4.3,22-4.5,22-4.6,21.9c-0.7-0.1-1.3,0-1.8,0.4c-0.1-0.1-0.1-0.1-0.2-0.2c0.1-0.1,0.2-0.3,0.3-0.5c0.3-0.8-0.1-1.6-0.9-1.9
		c-0.8-0.3-1.6,0.1-1.9,0.9c0,0.1-0.1,0.2-0.1,0.3c-0.1,0-0.1-0.1-0.2-0.1c-0.7-0.3-1.5,0-1.9,0.6h0c0.1-0.1,0.1-0.2,0.2-0.4
		c0.2-0.7-0.1-1.4-0.7-1.6c-0.6-0.2-1.2,0.1-1.4,0.7c-0.5,0-1,0.4-1.2,0.9c-0.4-0.8-1.2-1.4-2.1-1.3c-0.8,0-1.5,0.5-1.9,1.2
		c-0.2-0.1-0.5-0.2-0.7-0.2c-0.8,0-1.4,0.6-1.5,1.4c-0.3-0.1-0.5-0.1-0.8-0.1c-0.6,0-1.1,0.2-1.4,0.6c-0.1-0.2-0.4-0.4-0.7-0.6
		c-0.4-0.2-0.8-0.1-1.2,0c-0.1-0.4-0.4-0.8-0.8-0.9c-0.5-0.2-1.1-0.1-1.4,0.3c-0.1-0.1-0.2-0.2-0.3-0.2v2.4v2.1V26h0v6.6H78.3V26
		v-0.4V21C78.3,21,78.3,20.9,78.2,20.9z M9.6,23.3c0,0.1,0,0.1,0,0.1C9.6,23.4,9.6,23.4,9.6,23.3C9.5,23.3,9.6,23.3,9.6,23.3z
		 M-25.7,23.3c0,0.1,0,0.1,0,0.1C-25.7,23.4-25.7,23.4-25.7,23.3C-25.7,23.3-25.7,23.3-25.7,23.3z"/>
</g>
</svg>
