<?xml version="1.0" encoding="utf-8"?>
<!-- Generator: Adobe Illustrator 19.0.1, SVG Export Plug-In . SVG Version: 6.00 Build 0)  -->
<svg version="1.1" id="Capa_1" xmlns="http://www.w3.org/2000/svg" xmlns:xlink="http://www.w3.org/1999/xlink" x="0px" y="0px"
	 viewBox="-424 -43 150 150" style="enable-background:new -424 -43 150 150;" xml:space="preserve">
<style type="text/css">
	.st0{fill:#FF7500;}
</style>
<g>
	<g>
		
			<ellipse transform="matrix(0.9638 0.2667 -0.2667 0.9638 -18.0847 90.041)" class="st0" cx="-340.5" cy="-21.6" rx="10.9" ry="10.8"/>
		<path class="st0" d="M-350.2,41.2c0-0.1,0-0.3,0-0.4c0.5-0.9,1-1.8,1.2-2.8l9.2-33.3c1.6-5.8-1.8-11.7-7.6-13.3l-0.9-0.2
			c-0.4-0.1-5.2-1.8-9.3-5.7c-5.5-5.3-7.1-12.1-4.7-20.7c0.9-3.2-1-6.6-4.3-7.5s-6.6,1-7.5,4.2c-4.9,17.8,2.9,29.4,11.6,35.9
			c-0.1,0.3-0.2,0.7-0.3,1l-8.6,31.2l-15.4-5.9c-2.2-0.8-4.6-0.4-6.3,1.2c-1.7,1.5-2.4,3.9-1.8,6.1l8.9,32c0.6,2.1,2.3,3.7,4.3,4.2
			c1,0.3,2.2,0.3,3.3,0c3.3-0.9,5.2-4.3,4.2-7.5l-5.7-20.3l16.2,6.3l-9.9,54c-0.6,3.1,1.4,6.1,4.4,7c0.2,0,0.4,0.1,0.5,0.1
			c3.3,0.6,6.5-1.6,7.1-4.9L-350.2,41.2z"/>
	</g>
	<path class="st0" d="M-327.6,57.6c-7.7,0.2-14.2,8.8-14.1,15c0.2,6.1,15.2,29.4,15.2,29.4c4.2-10.6,13.8-24.1,13.7-30.1
		C-313,65.8-320,57.4-327.6,57.6z"/>
	<path class="st0" d="M-311,32.5c0.7-4.5,1.1-9.5,1.1-14.8c0-15.4-10.8-24.1-17.4-28.4c-6.6,4.3-17.4,13-17.4,28.4
		c0,5.3,0.5,10.3,1.1,14.8c-5.5,8.1-9,18.9-7.7,20.1c1.5,1.4,5.4-4.9,10-8.1l0.1-0.1c1.3,4.8,2.5,8,2.9,8.9h21.9
		c0.4-0.9,1.6-4.1,2.9-8.9l0.1,0.1c4.6,3.1,8.5,9.4,10,8.1C-302,51.4-305.5,40.7-311,32.5z"/>
</g>
</svg>
