<?xml version="1.0" encoding="utf-8"?>
<!-- Generator: Adobe Illustrator 18.0.0, SVG Export Plug-In . SVG Version: 6.00 Build 0)  -->
<!DOCTYPE svg PUBLIC "-//W3C//DTD SVG 1.1//EN" "http://www.w3.org/Graphics/SVG/1.1/DTD/svg11.dtd">
<svg version="1.1" id="Capa_1" xmlns="http://www.w3.org/2000/svg" xmlns:xlink="http://www.w3.org/1999/xlink" x="0px" y="0px"
	 viewBox="0 0 100 100" enable-background="new 0 0 100 100" xml:space="preserve">
<rect fill="#FFFFFF" width="100" height="100"/>
<g>
	<path fill="#868686" d="M71,62.1c0,0-5.3,15.2-13.3,13.5c0,0-1.6-0.2-2.5-0.8c0,0-4.3-2.2-9.1,0.1c0,0-4.7,2.1-7.5-0.5
		c0,0-7.6-6.1-9.5-17.6c0,0-1.8-9.7,3.4-15.8c0,0,5.1-5.8,11.9-3.6l4.5,1.6c0,0,0.8,0.6,2.6-0.1c0,0,5.1-2.3,8.6-2
		c0,0,5.6-0.1,9.4,5c0,0-6.3,3-5.5,10.8C64.2,52.6,63.7,58.3,71,62.1z"/>
	<path fill="#868686" d="M49.9,36.2c0,0-0.7-9.9,10.5-11.9C60.3,24.3,60.5,35.9,49.9,36.2z"/>
</g>
</svg>
