<?xml version="1.0" encoding="utf-8"?>
<!-- Generator: Adobe Illustrator 18.0.0, SVG Export Plug-In . SVG Version: 6.00 Build 0)  -->
<!DOCTYPE svg PUBLIC "-//W3C//DTD SVG 1.1//EN" "http://www.w3.org/Graphics/SVG/1.1/DTD/svg11.dtd">
<svg version="1.1" id="Capa_1" xmlns="http://www.w3.org/2000/svg" xmlns:xlink="http://www.w3.org/1999/xlink" x="0px" y="0px"
	 viewBox="0 0 100 100" enable-background="new 0 0 100 100" xml:space="preserve">
<rect fill="#0094DA" width="100" height="100"/>
<g>
	<g>
		<path fill="#FFFFFF" d="M84.8,78.9h-1v3.2h-0.4v-3.2h-1v-0.4h2.5V78.9z"/>
		<path fill="#FFFFFF" d="M88.8,82.1h-0.4v-2.4c0-0.2,0-0.4,0-0.7h0c0,0.2-0.1,0.3-0.1,0.4l-1.2,2.8h-0.2l-1.2-2.7
			c0-0.1-0.1-0.2-0.1-0.4h0c0,0.1,0,0.4,0,0.7v2.4h-0.4v-3.6h0.6l1.1,2.5c0.1,0.2,0.1,0.3,0.2,0.4h0c0.1-0.2,0.1-0.3,0.2-0.4
			l1.1-2.5h0.5V82.1z"/>
	</g>
	<g>
		<polygon fill="#FFFFFF" points="80.1,50 80.1,20.5 46.2,25.5 46.2,50 		"/>
		<polygon fill="#FFFFFF" points="43.8,25.8 19.1,29.4 19.1,50 43.8,50 		"/>
		<polygon fill="#FFFFFF" points="19.1,52.4 19.1,73.3 43.8,77 43.8,52.4 		"/>
		<polygon fill="#FFFFFF" points="46.2,77.3 80.1,82.3 80.1,52.4 46.2,52.4 		"/>
	</g>
</g>
</svg>
