<?xml version="1.0" encoding="utf-8"?>
<!-- Generator: Adobe Illustrator 18.0.0, SVG Export Plug-In . SVG Version: 6.00 Build 0)  -->
<!DOCTYPE svg PUBLIC "-//W3C//DTD SVG 1.1//EN" "http://www.w3.org/Graphics/SVG/1.1/DTD/svg11.dtd">
<svg version="1.1" id="Capa_1" xmlns="http://www.w3.org/2000/svg" xmlns:xlink="http://www.w3.org/1999/xlink" x="0px" y="0px"
	 viewBox="0 0 100 100" enable-background="new 0 0 100 100" xml:space="preserve">
<rect x="0" fill="#13A438" width="100" height="100"/>
<g>
	<defs>
		<rect id="SVGID_1_" x="0" width="100" height="95.6"/>
	</defs>
	<clipPath id="SVGID_2_">
		<use xlink:href="#SVGID_1_"  overflow="visible"/>
	</clipPath>
	<g clip-path="url(#SVGID_2_)">
		<path fill="#476027" d="M39.1,71.1l0.6,13.7L49.7,78C47.4,72,42,71.1,39.1,71.1z"/>
		<path fill="#FDFBEC" d="M60.6-14.3L40.8,19.9c3.7-2.9,9.1-4.8,13.9-3.1c0.1,0,0.2,0.1,0.4,0.1l18.1-30.1
			C69.3-13.9,65.1-14.3,60.6-14.3z"/>
		<path fill="#FDFBEC" d="M103,2.4L84.2,37.2c0,0,0.1,0,0.1,0c4.2,1.4,8.4,4.3,10.6,6.6l16.7-30.6C110.4,11.2,107.7,7,103,2.4z"/>
		<path fill="#FDFBEC" d="M58.5,19.6c3.6,4,6.2,10.8,7.1,13.3l0.1,0.2c0.5,1.5,1.4,3.4,2,3.8c0.9,0.1,2.7-0.1,4.3-0.2
			c2.5-0.2,5.2-0.4,7.6-0.3L99.8-0.6c-5.4-4.5-12.7-9-22.2-11.6L58.5,19.6z"/>
		<path fill="#FDFBEC" d="M82.2,43.2c-1.9-0.6-6.6-0.3-9.8-0.1c-2.5,0.2-4.4,0.3-5.7,0.2c-4.5-0.5-6.7-6.3-7.2-8.3
			c-0.2-0.5-1.2-3.2-2.6-6.1c-2.8-5.5-4.3-6.1-4.4-6.1c-2.8-1-6.6,0.9-8.7,3.1c-2.8,2.9-5.2,3.4-6.4,3.5l1.5,37.1
			c4.7,0,11.5,1.8,14.8,8.9l37.8-25.6c-0.3-0.4-0.6-0.9-1-1.4C89.2,47,85.8,44.4,82.2,43.2z"/>
		<polygon points="92.3,51.3 92.3,51.3 92.3,51.3 		"/>
	</g>
</g>
</svg>
