<?xml version="1.0" encoding="utf-8"?>
<!-- Generator: Adobe Illustrator 18.0.0, SVG Export Plug-In . SVG Version: 6.00 Build 0)  -->
<!DOCTYPE svg PUBLIC "-//W3C//DTD SVG 1.1//EN" "http://www.w3.org/Graphics/SVG/1.1/DTD/svg11.dtd">
<svg version="1.1" id="Capa_1" xmlns="http://www.w3.org/2000/svg" xmlns:xlink="http://www.w3.org/1999/xlink" x="0px" y="0px"
	 viewBox="0 0 100 100" enable-background="new 0 0 100 100" xml:space="preserve">
<g>
	<defs>
		<filter id="Adobe_OpacityMaskFilter" filterUnits="userSpaceOnUse" x="2" y="2.1" width="7.7" height="94.9">
			<feColorMatrix  type="matrix" values="1 0 0 0 0  0 1 0 0 0  0 0 1 0 0  0 0 0 1 0"/>
		</filter>
	</defs>
	<mask maskUnits="userSpaceOnUse" x="2" y="2.1" width="7.7" height="94.9" id="SVGID_1_">
		<g filter="url(#Adobe_OpacityMaskFilter)">
			<linearGradient id="SVGID_2_" gradientUnits="userSpaceOnUse" x1="1.9879" y1="49.5457" x2="9.6391" y2="49.5457">
				<stop  offset="0" style="stop-color:#FFFFFF"/>
				<stop  offset="5.582166e-002" style="stop-color:#CBCBCA"/>
				<stop  offset="0.1285" style="stop-color:#8E8E8D"/>
				<stop  offset="0.195" style="stop-color:#5D5D5C"/>
				<stop  offset="0.2531" style="stop-color:#3A3A38"/>
				<stop  offset="0.3005" style="stop-color:#252523"/>
				<stop  offset="0.3313" style="stop-color:#1D1D1B"/>
			</linearGradient>
			<rect x="2" y="2.1" fill="url(#SVGID_2_)" width="7.7" height="94.9"/>
		</g>
	</mask>
	<linearGradient id="SVGID_3_" gradientUnits="userSpaceOnUse" x1="1.9879" y1="49.5457" x2="9.6391" y2="49.5457">
		<stop  offset="0" style="stop-color:#FFFFFF"/>
		<stop  offset="0.3313" style="stop-color:#FFFFFF"/>
	</linearGradient>
	<rect x="2" y="2.1" opacity="0.31" mask="url(#SVGID_1_)" fill="url(#SVGID_3_)" width="7.7" height="94.9"/>
	<g>
		<path fill="#135B91" d="M83.2,90.5H16.8C7.6,90.5,0,82.9,0,73.7v9.5C0,92.4,7.6,100,16.8,100h66.4c9.2,0,16.8-7.6,16.8-16.8v-9.5
			C100,82.9,92.4,90.5,83.2,90.5z"/>
		<linearGradient id="SVGID_4_" gradientUnits="userSpaceOnUse" x1="50" y1="-0.1328" x2="50" y2="90.1906">
			<stop  offset="0" style="stop-color:#009EE2"/>
			<stop  offset="1" style="stop-color:#0080C8"/>
		</linearGradient>
		<path fill="url(#SVGID_4_)" d="M83.2,0H16.8C7.6,0,0,7.6,0,16.8v56.8c0,9.2,7.6,16.8,16.8,16.8h66.4c9.2,0,16.8-7.6,16.8-16.8
			V16.8C100,7.6,92.4,0,83.2,0z M88.8,70.3C88.8,76.2,84,81,78.1,81H21.2c-5.9,0-10.7-4.8-10.7-10.7V21.2c0-5.9,4.8-10.7,10.7-10.7
			h56.9c5.9,0,10.7,4.8,10.7,10.7V70.3z"/>
		<path fill="#FFFFFF" d="M78.1,10.5H21.2c-5.9,0-10.7,4.8-10.7,10.7v49.1c0,5.9,4.8,10.7,10.7,10.7h56.9c5.9,0,10.7-4.8,10.7-10.7
			V21.2C88.8,15.3,84,10.5,78.1,10.5z M46.5,31.2H30.9v28.9h15.6v12.3H18.9V18.9h27.6V31.2z M80.6,72.3H53V60.1h15.6V31.2H53V18.9
			h27.6V72.3z"/>
		<polygon fill="#4E4D4D" points="18.9,72.3 46.5,72.3 46.5,60.1 30.9,60.1 30.9,31.2 46.5,31.2 46.5,18.9 18.9,18.9 		"/>
		<polygon fill="#4E4D4D" points="53,31.2 68.6,31.2 68.6,60.1 53,60.1 53,72.3 80.6,72.3 80.6,18.9 53,18.9 		"/>
	</g>
</g>
</svg>
