<?xml version="1.0" encoding="utf-8"?>
<!-- Generator: Adobe Illustrator 18.0.0, SVG Export Plug-In . SVG Version: 6.00 Build 0)  -->
<!DOCTYPE svg PUBLIC "-//W3C//DTD SVG 1.1//EN" "http://www.w3.org/Graphics/SVG/1.1/DTD/svg11.dtd">
<svg version="1.1" id="Capa_1" xmlns="http://www.w3.org/2000/svg" xmlns:xlink="http://www.w3.org/1999/xlink" x="0px" y="0px"
	 viewBox="0 0 1000 1000" enable-background="new 0 0 1000 1000" xml:space="preserve">
<g>
	<g>
		<path fill="#332F2E" d="M500,1000C224.3,1000,0,775.7,0,500S224.3,0,500,0s500,224.3,500,500S775.7,1000,500,1000z M500,3.3
			C226.1,3.3,3.3,226.1,3.3,500S226.1,996.7,500,996.7S996.7,773.9,996.7,500S773.9,3.3,500,3.3z"/>
	</g>
	<g>
		<path fill="#332F2E" d="M686.1,422.7c0-0.1,0-0.2-0.1-0.3c0-0.2-0.1-0.3-0.1-0.5c0-0.1,0-0.2-0.1-0.2c-0.1-0.2-0.1-0.3-0.2-0.5
			c0-0.1,0-0.1-0.1-0.2v-0.1c0,0,0,0,0-0.1l-28.2-70.3c-1.2-3-4.1-5-7.4-5c-3.3,0-6.2,2-7.4,5l-28.2,70.3l-0.1,0.1
			c0,0.1,0,0.1-0.1,0.2c-0.1,0.2-0.1,0.3-0.2,0.5c0,0.1,0,0.2-0.1,0.3c0,0.2-0.1,0.3-0.1,0.5c0,0.1,0,0.2-0.1,0.3
			c0,0.1-0.4,0.3-0.4,0.4c0,0.3-0.4,0.5-0.4,0.8v272c0,20,16.5,36.2,36.5,36.2s36.5-16.3,36.5-36.2v-272c0-0.3,0.1-0.5,0.1-0.8
			C686.1,423,686.2,422.9,686.1,422.7z M650,372.9l16.5,41.1h-33L650,372.9z M673,695.9c0,11.2-10.3,20.3-21.5,20.3
			s-21.5-9.1-21.5-20.3V673h43V695.9z M673,656h-43V430h43V656z"/>
		<path fill="#332F2E" d="M731,267h-73.2h-16H358.9h-16h-73c-10.4,0-15.9,9.4-15.9,19.8v349.5c0,10.4,5.5,19.7,15.9,19.7H444v63
			h-75.3c-4.4,0-8,0.6-8,5s3.6,5,8,5h228.2c4.4,0,8-0.6,8-5s-3.6-5-8-5H560v-63h29.9c4.4,0,8-2.1,8-6.5s-3.6-6.5-8-6.5h-320
			c-1.6,0-2.9-5-2.9-6.7V286.8c0-1.6,1.3-5.8,2.9-5.8h73h16h26.4h230h26.4h16H731c1.6,0,5,4.2,5,5.8v349.5c0,1.6-3.4,6.7-5,6.7
			h-20.9c-4.4,0-8,2.1-8,6.5s3.6,6.5,8,6.5H731c10.4,0,21-9.2,21-19.7V286.8C752,276.4,741.4,267,731,267z"/>
	</g>
</g>
</svg>
