<?xml version="1.0" encoding="utf-8"?>
<!-- Generator: Adobe Illustrator 19.0.1, SVG Export Plug-In . SVG Version: 6.00 Build 0)  -->
<svg version="1.1" id="Capa_1" xmlns="http://www.w3.org/2000/svg" xmlns:xlink="http://www.w3.org/1999/xlink" x="0px" y="0px"
	 viewBox="0 0 46.8 46.8" style="enable-background:new 0 0 46.8 46.8;" xml:space="preserve">
<style type="text/css">
	.st0{fill:#FFFFFF;}
</style>
<g>
	<g>
		<path class="st0" d="M23.4,46.8C10.5,46.8,0,36.3,0,23.4C0,10.5,10.5,0,23.4,0s23.4,10.5,23.4,23.4C46.8,36.3,36.3,46.8,23.4,46.8
			z M23.4,0.6C10.8,0.6,0.6,10.8,0.6,23.4s10.2,22.8,22.8,22.8S46.2,36,46.2,23.4S36,0.6,23.4,0.6z"/>
	</g>
	<g id="_x33_4hbmL.tif">
		<g>
			<path class="st0" d="M23.4,11.1c1.6,0,3.3,0,4.9,0.1c1.4,0,2.8,0.3,4.1,1.1c1.6,1,2.6,2.5,2.9,4.3c0.2,1.1,0.3,2.3,0.3,3.4
				c0,2.4,0,4.9,0,7.3c0,1.3-0.1,2.6-0.5,3.8c-0.8,2.4-2.5,3.8-4.9,4.3c-1.1,0.2-2.3,0.3-3.4,0.3c-2.4,0-4.8,0-7.3,0
				c-1.3,0-2.6-0.1-3.8-0.5c-2.4-0.8-3.8-2.5-4.3-4.9c-0.2-1.1-0.3-2.3-0.3-3.4c0-2.4,0-4.9,0-7.3c0-1.3,0.1-2.6,0.5-3.8
				c0.8-2.4,2.5-3.8,4.9-4.3c1.1-0.2,2.3-0.2,3.4-0.3C21.1,11.1,22.3,11.2,23.4,11.1C23.4,11.2,23.4,11.1,23.4,11.1z M33.5,23.2
				C33.4,23.2,33.4,23.2,33.5,23.2c0-1,0-1.9-0.1-2.9c0-0.9-0.1-1.9-0.2-2.8c-0.2-2.1-1.4-3.5-3.5-3.9c-1.1-0.2-2.2-0.2-3.3-0.3
				c-2.1,0-4.2,0-6.2,0c-1,0-2.1,0.1-3.1,0.2c-1.8,0.3-3,1.3-3.5,3c-0.2,0.6-0.2,1.2-0.3,1.7c-0.1,2.2-0.1,4.4-0.1,6.7
				c0,1.4,0,2.8,0.2,4.2c0.2,2.1,1.5,3.5,3.5,3.9c1.1,0.2,2.2,0.2,3.3,0.2c2,0,4.1,0,6.1,0c0.9,0,1.9-0.1,2.8-0.2
				c0.9-0.1,1.7-0.4,2.4-0.9c1.1-0.9,1.6-2.1,1.6-3.5C33.4,26.9,33.4,25.1,33.5,23.2z"/>
			<path class="st0" d="M29.7,23.4c0,3.5-2.8,6.3-6.3,6.3c-3.5,0-6.3-2.8-6.3-6.3c0-3.5,2.8-6.2,6.3-6.2
				C26.9,17.1,29.7,19.9,29.7,23.4z M23.4,27.5c2.2,0,4.1-1.8,4.1-4.1c0-2.2-1.8-4.1-4.1-4.1c-2.2,0-4.1,1.8-4.1,4.1
				C19.3,25.6,21.1,27.5,23.4,27.5z"/>
			<path class="st0" d="M31.4,16.9c0,0.8-0.7,1.5-1.5,1.5c-0.8,0-1.5-0.7-1.5-1.5c0-0.8,0.7-1.5,1.5-1.5
				C30.7,15.4,31.4,16,31.4,16.9z"/>
		</g>
	</g>
</g>
</svg>
