<?xml version="1.0" encoding="utf-8"?>
<!-- Generator: Adobe Illustrator 18.0.0, SVG Export Plug-In . SVG Version: 6.00 Build 0)  -->
<!DOCTYPE svg PUBLIC "-//W3C//DTD SVG 1.1//EN" "http://www.w3.org/Graphics/SVG/1.1/DTD/svg11.dtd">
<svg version="1.1" id="Capa_1" xmlns="http://www.w3.org/2000/svg" xmlns:xlink="http://www.w3.org/1999/xlink" x="0px" y="0px"
	 viewBox="0 0 1000 1000" enable-background="new 0 0 1000 1000" xml:space="preserve">
<g>
	<g>
		<path fill="#303030" d="M500,1000C224.3,1000,0,775.7,0,500S224.3,0,500,0s500,224.3,500,500S775.7,1000,500,1000z M500,3.3
			C226.1,3.3,3.3,226.1,3.3,500S226.1,996.7,500,996.7S996.7,773.9,996.7,500S773.9,3.3,500,3.3z"/>
	</g>
	<g>
		<rect x="343" y="385" fill="#303030" width="13" height="299"/>
		<rect x="652" y="385" fill="#303030" width="13" height="299"/>
		<path fill="#303030" d="M356,285h296v86h13v-93.2c0-3.8-3.3-5.8-7.2-5.8H349.1c-3.8,0-6.1,2-6.1,5.8V371h13V285z"/>
		<path fill="#303030" d="M652,720H356v-23h-13v31.3c0,3.8,2.3,4.7,6.1,4.7h308.8c3.8,0,7.2-0.9,7.2-4.7V697h-13v23H652z"/>
		<path fill="#303030" d="M786.9,371H665v14h113v299H665v13h121.9c3.8,0,8.1-2.9,8.1-6.8V378C795,374.2,790.7,371,786.9,371z"/>
		<path fill="#303030" d="M217,684V385h126v-14H209.7c-3.8,0-6.7,3.2-6.7,7v312.2c0,3.8,2.8,6.8,6.7,6.8H343v-13H217z"/>
		<rect x="496" y="371" fill="#303030" width="16" height="14"/>
		<rect x="652" y="684" fill="#303030" width="13" height="13"/>
		<rect x="343" y="684" fill="#303030" width="13" height="13"/>
		<rect x="652" y="371" fill="#303030" width="13" height="14"/>
		<rect x="343" y="371" fill="#303030" width="13" height="14"/>
		<g>
			<path fill="#303030" d="M656.7,351H347.9c-3.8,0-4.4-2.7-4.4-6.5s0.6-6.5,4.4-6.5h308.8c3.8,0,6.9,2.7,6.9,6.5
				S660.5,351,656.7,351z"/>
		</g>
		<g>
			<path fill="#303030" d="M656.7,571H347.9c-3.8,0-3.8-3.2-3.8-7s0-7,3.8-7h308.8c3.8,0,6.9,3.2,6.9,7S660.5,571,656.7,571z"/>
		</g>
		<g>
			<path fill="#303030" d="M577.8,421H430.3c-3.8,0-6.9-2.7-6.9-6.5s3.1-6.5,6.9-6.5h147.5c3.8,0,6.9,2.7,6.9,6.5
				S581.6,421,577.8,421z"/>
		</g>
		<g>
			<g>
				<path fill="#303030" d="M566.5,531.5c-1.8,0-3.5-0.7-4.9-2c-2.7-2.7-2.7-7.1,0-9.8l17.9-17.9L563.7,486c-2.7-2.7-2.7-7.1,0-9.8
					c2.7-2.7,7.1-2.7,9.8,0l25.6,25.6l-27.6,27.6C570.1,530.9,568.3,531.5,566.5,531.5z"/>
			</g>
			<g>
				<path fill="#303030" d="M439.5,531.5c-1.8,0-3.5-0.7-4.9-2L407,501.9l25.6-25.6c2.7-2.7,7.1-2.7,9.8,0c2.7,2.7,2.7,7.1,0,9.8
					L426.6,502l17.9,17.9c2.7,2.7,2.7,7.1,0,9.8C443,530.9,441.3,531.5,439.5,531.5z"/>
			</g>
		</g>
		<g>
			<rect x="399" y="684" fill="#303030" width="210" height="13"/>
			<g>
				<rect x="399.8" y="596.9" fill="#303030" width="62.8" height="69.1"/>
			</g>
			<g>
				<rect x="482.2" y="596.9" fill="#303030" width="123.9" height="69.1"/>
			</g>
		</g>
		<g>
			<g>
				<g>
					<circle fill="#303030" cx="617.5" cy="312.3" r="9.8"/>
				</g>
				<g>
					<circle fill="#303030" cx="586.4" cy="312.3" r="9.8"/>
				</g>
				<g>
					<circle fill="#303030" cx="555.3" cy="312.3" r="9.8"/>
				</g>
			</g>
			<g>
				<g>
					<circle fill="#303030" cx="751.2" cy="411.4" r="9.8"/>
				</g>
				<g>
					<circle fill="#303030" cx="720" cy="411.4" r="9.8"/>
				</g>
				<g>
					<circle fill="#303030" cx="688.9" cy="411.4" r="9.8"/>
				</g>
			</g>
		</g>
		<g>
			<path fill="#303030" d="M785.7,454h-576c-3.8,0-6.9-2.7-6.9-6.5s3.1-6.5,6.9-6.5h576.1c3.8,0,6.9,2.7,6.9,6.5
				S789.5,454,785.7,454z"/>
		</g>
	</g>
</g>
</svg>
