<?xml version="1.0" encoding="utf-8"?>
<!-- Generator: Adobe Illustrator 19.0.1, SVG Export Plug-In . SVG Version: 6.00 Build 0)  -->
<svg version="1.1" id="Capa_1" xmlns="http://www.w3.org/2000/svg" xmlns:xlink="http://www.w3.org/1999/xlink" x="0px" y="0px"
	 viewBox="0 0 194.5 100" style="enable-background:new 0 0 194.5 100;" xml:space="preserve">
<style type="text/css">
	.st0{fill:#FFFFFF;}
</style>
<g>
	<g>
		<polygon class="st0" points="64.6,31.2 44,9.5 30.7,9.5 10.1,9.5 30.7,31.2 44,31.2 44,69.5 64.6,91.1 64.6,69.5 		"/>
		<polygon class="st0" points="29.1,70.6 29.1,32.3 8.5,10.6 8.5,32.3 8.5,70.6 8.5,92.2 29.1,92.2 42.4,92.2 63,92.2 42.4,70.6 		
			"/>
	</g>
	<g>
		<g>
			<g>
				<path class="st0" d="M83,47.7c0,2-0.5,3.6-1.4,4.7c-1,1.1-2.3,1.7-4,1.7c-1.7,0-3-0.6-4-1.7c-1-1.1-1.5-2.7-1.5-4.6v-2.6
					c0-2.1,0.5-3.7,1.4-4.8c1-1.2,2.3-1.7,4-1.7c1.7,0,3,0.6,4,1.7c1,1.1,1.5,2.7,1.5,4.8V47.7z M80,45.2c0-1.4-0.2-2.4-0.6-3
					c-0.4-0.7-1-1-1.8-1c-0.8,0-1.4,0.3-1.8,1c-0.4,0.6-0.6,1.6-0.6,2.9v2.7c0,1.3,0.2,2.3,0.6,2.9c0.4,0.6,1,0.9,1.8,0.9
					c0.8,0,1.4-0.3,1.8-0.9c0.4-0.6,0.6-1.6,0.6-2.8V45.2z"/>
				<path class="st0" d="M89.1,38.9L92,49.7l2.8-10.9h4v15h-3v-4.1l0.3-6.3l-3,10.3h-2.1l-3-10.3l0.3,6.3v4.1h-3v-15H89.1z"/>
				<path class="st0" d="M108.6,50.8h-4.1l-0.8,3.1h-3.2l4.7-15h2.8l4.7,15h-3.2L108.6,50.8z M105.1,48.3h2.8l-1.4-5.4L105.1,48.3z"
					/>
				<path class="st0" d="M118.6,48.4h-1.5v5.5h-3v-15h4.8c1.5,0,2.7,0.4,3.5,1.2c0.8,0.8,1.2,1.9,1.2,3.4c0,2-0.7,3.4-2.2,4.2
					l2.6,6.1v0.1h-3.3L118.6,48.4z M117.1,45.9h1.7c0.6,0,1.1-0.2,1.4-0.6c0.3-0.4,0.5-0.9,0.5-1.6c0-1.5-0.6-2.3-1.8-2.3h-1.8V45.9
					z"/>
				<path class="st0" d="M133.6,51.4h5.3v2.5h-8.4v-15h3V51.4z"/>
				<path class="st0" d="M150.6,47.7c0,2-0.5,3.6-1.4,4.7c-1,1.1-2.3,1.7-4,1.7c-1.7,0-3-0.6-4-1.7c-1-1.1-1.5-2.7-1.5-4.6v-2.6
					c0-2.1,0.5-3.7,1.4-4.8c1-1.2,2.3-1.7,4-1.7c1.7,0,3,0.6,4,1.7c1,1.1,1.5,2.7,1.5,4.8V47.7z M147.6,45.2c0-1.4-0.2-2.4-0.6-3
					c-0.4-0.7-1-1-1.8-1c-0.8,0-1.4,0.3-1.8,1c-0.4,0.6-0.6,1.6-0.6,2.9v2.7c0,1.3,0.2,2.3,0.6,2.9c0.4,0.6,1,0.9,1.8,0.9
					c0.8,0,1.4-0.3,1.8-0.9c0.4-0.6,0.6-1.6,0.6-2.8V45.2z M145.8,34.8h3.3l-2.9,3.2h-2.4L145.8,34.8z"/>
				<path class="st0" d="M155.8,48.6v5.3h-3v-15h5.1c1.5,0,2.7,0.5,3.6,1.4c0.9,0.9,1.3,2.1,1.3,3.6c0,1.5-0.4,2.6-1.3,3.5
					c-0.9,0.9-2.1,1.3-3.6,1.3H155.8z M155.8,46.1h2.1c0.6,0,1-0.2,1.3-0.6c0.3-0.4,0.5-0.9,0.5-1.7c0-0.8-0.2-1.3-0.5-1.8
					c-0.3-0.4-0.8-0.7-1.3-0.7h-2.1V46.1z"/>
				<path class="st0" d="M172.6,47.4h-4.7v4h5.6v2.5h-8.6v-15h8.6v2.5h-5.6v3.5h4.7V47.4z"/>
				<path class="st0" d="M178.3,51.4h6.2v2.5h-9.7v-1.8l6.1-10.7h-6.2v-2.5h9.7v1.8L178.3,51.4z"/>
			</g>
			<g>
				<path class="st0" d="M85.2,66.8v-7.3h1.7c0.8,0,1.4,0.3,1.9,0.8c0.5,0.5,0.7,1.2,0.7,2.1v1.5c0,0.9-0.2,1.6-0.7,2.2
					c-0.5,0.5-1.1,0.8-2,0.8H85.2z M85.7,60v6.2h1.1c0.7,0,1.2-0.2,1.5-0.6c0.4-0.4,0.5-1,0.6-1.7v-1.5c0-0.8-0.2-1.3-0.5-1.7
					C88,60.2,87.5,60,86.9,60H85.7z"/>
				<path class="st0" d="M96.9,66.8h-0.6v-7.3h0.6V66.8z"/>
				<path class="st0" d="M107.3,65c0-0.4-0.1-0.7-0.3-1c-0.2-0.2-0.7-0.5-1.3-0.7c-0.6-0.2-1.1-0.5-1.4-0.7
					c-0.4-0.3-0.6-0.8-0.6-1.4c0-0.6,0.2-1,0.6-1.4c0.4-0.4,0.9-0.5,1.5-0.5c0.6,0,1.1,0.2,1.5,0.6c0.4,0.4,0.6,0.9,0.6,1.6h-0.6
					c0-0.5-0.1-0.9-0.4-1.2c-0.3-0.3-0.7-0.5-1.1-0.5c-0.5,0-0.8,0.1-1.1,0.4c-0.3,0.2-0.4,0.6-0.4,1c0,0.4,0.1,0.7,0.4,0.9
					c0.2,0.2,0.7,0.4,1.2,0.6c0.5,0.2,1,0.4,1.2,0.6c0.3,0.2,0.5,0.4,0.6,0.7c0.1,0.3,0.2,0.6,0.2,0.9c0,0.6-0.2,1-0.6,1.4
					c-0.4,0.4-0.9,0.5-1.5,0.5c-0.4,0-0.8-0.1-1.2-0.3c-0.4-0.2-0.6-0.4-0.8-0.8c-0.2-0.3-0.3-0.7-0.3-1.2h0.6
					c0,0.5,0.2,0.9,0.5,1.2s0.7,0.4,1.3,0.4c0.5,0,0.8-0.1,1.1-0.4C107.1,65.8,107.3,65.4,107.3,65z"/>
				<path class="st0" d="M117.7,63.3h-2.8v3h3.3v0.5h-3.8v-7.3h3.8V60h-3.2v2.7h2.8V63.3z"/>
				<path class="st0" d="M129.1,66.8h-0.6l-3.5-6.2v6.2h-0.6v-7.3h0.6l3.5,6.2v-6.2h0.6V66.8z M128.3,57.7c0,0.3-0.1,0.6-0.2,0.8
					c-0.2,0.2-0.4,0.3-0.6,0.3c-0.1,0-0.3,0-0.4-0.1c-0.1-0.1-0.2-0.1-0.3-0.2c-0.1-0.1-0.2-0.1-0.2-0.2c-0.1-0.1-0.2-0.1-0.3-0.1
					c-0.1,0-0.2,0.1-0.3,0.2c-0.1,0.1-0.1,0.2-0.1,0.4l-0.4,0c0-0.3,0.1-0.6,0.2-0.8c0.2-0.2,0.4-0.3,0.6-0.3c0.1,0,0.2,0,0.3,0.1
					c0.1,0,0.2,0.1,0.3,0.2c0.2,0.1,0.3,0.2,0.3,0.2c0.1,0,0.1,0,0.2,0c0.1,0,0.2-0.1,0.3-0.2c0.1-0.1,0.1-0.3,0.1-0.4L128.3,57.7z"
					/>
				<path class="st0" d="M139.4,64.8h-2.7l-0.6,2h-0.6l2.3-7.3h0.5l2.3,7.3h-0.6L139.4,64.8z M136.8,64.2h2.4l-1.2-3.9L136.8,64.2z"
					/>
				<path class="st0" d="M146.9,66.8v-7.3h1.7c0.8,0,1.4,0.3,1.9,0.8c0.5,0.5,0.7,1.2,0.7,2.1v1.5c0,0.9-0.2,1.6-0.7,2.2
					c-0.5,0.5-1.1,0.8-2,0.8H146.9z M147.4,60v6.2h1.1c0.7,0,1.2-0.2,1.5-0.6c0.4-0.4,0.5-1,0.6-1.7v-1.5c0-0.8-0.2-1.3-0.5-1.7
					c-0.3-0.4-0.9-0.6-1.5-0.6H147.4z"/>
				<path class="st0" d="M162.4,63.9c0,0.9-0.2,1.7-0.6,2.2c-0.4,0.5-1,0.8-1.7,0.8c-0.7,0-1.3-0.3-1.7-0.8
					c-0.4-0.5-0.6-1.2-0.6-2.2v-1.6c0-0.9,0.2-1.7,0.6-2.2c0.4-0.5,1-0.8,1.7-0.8c0.8,0,1.3,0.3,1.7,0.8c0.4,0.5,0.6,1.3,0.6,2.2
					V63.9z M161.8,62.4c0-0.8-0.2-1.4-0.5-1.8c-0.3-0.4-0.8-0.6-1.3-0.6c-0.6,0-1,0.2-1.3,0.6c-0.3,0.4-0.5,1-0.5,1.8v1.6
					c0,0.8,0.2,1.4,0.5,1.8c0.3,0.4,0.8,0.6,1.3,0.6c0.6,0,1-0.2,1.3-0.6c0.3-0.4,0.5-1,0.5-1.8V62.4z"/>
				<path class="st0" d="M171.4,63.8h-1.7v3h-0.6v-7.3h2c0.7,0,1.2,0.2,1.6,0.6c0.4,0.4,0.5,0.9,0.5,1.6c0,0.5-0.1,0.9-0.3,1.2
					c-0.2,0.4-0.5,0.6-0.9,0.7l1.5,3.1v0.1h-0.6L171.4,63.8z M169.6,63.2h1.5c0.4,0,0.8-0.1,1-0.4c0.3-0.3,0.4-0.7,0.4-1.1
					c0-0.5-0.1-0.9-0.4-1.2c-0.3-0.3-0.6-0.4-1.1-0.4h-1.4V63.2z"/>
			</g>
		</g>
	</g>
</g>
</svg>
