<?xml version="1.0" encoding="utf-8"?>
<!-- Generator: Adobe Illustrator 19.0.1, SVG Export Plug-In . SVG Version: 6.00 Build 0)  -->
<svg version="1.1" id="Capa_1" xmlns="http://www.w3.org/2000/svg" xmlns:xlink="http://www.w3.org/1999/xlink" x="0px" y="0px"
	 viewBox="-548 365.5 125.1 63.5" style="enable-background:new -548 365.5 125.1 63.5;" xml:space="preserve">
<style type="text/css">
	.st0{fill:#FF7500;}
	.st1{fill:#312B2A;}
</style>
<g>
	<polygon class="st0" points="-521.4,369 -530.1,369 -543.8,369 -530.1,383 -522,383 -522,390.9 -522,408.4 -522,410 -522.4,410 
		-532,410 -532,383.8 -545,369.4 -545,424 -508.7,424 -508,424 -508,422.8 -508,383 	"/>
	<g>
		<path class="st1" d="M-494.9,403.8c-0.4,0.4-0.9,0.7-1.5,1c-0.6,0.2-1.2,0.3-1.9,0.3c-1.2,0-2.1-0.4-2.7-1.1c-0.6-0.7-1-1.8-1-3.1
			V399c0-1.4,0.3-2.5,0.9-3.2c0.6-0.8,1.5-1.1,2.7-1.1c1.1,0,1.9,0.3,2.5,0.8c0.6,0.5,0.9,1.4,1,2.6h-2c-0.1-0.6-0.2-1.1-0.4-1.3
			c-0.2-0.2-0.5-0.4-1-0.4c-0.6,0-1,0.2-1.2,0.6c-0.3,0.4-0.4,1-0.4,1.9v1.8c0,0.9,0.1,1.6,0.4,2c0.3,0.4,0.7,0.6,1.4,0.6
			c0.4,0,0.7-0.1,1-0.2l0.2-0.1v-1.9h-1.4v-1.5h3.5V403.8z"/>
		<path class="st1" d="M-486.1,401.2h-1v3.7h-2v-10.1h3.3c1,0,1.8,0.3,2.4,0.8s0.8,1.3,0.8,2.3c0,1.3-0.5,2.3-1.5,2.8l1.8,4.1v0.1
			h-2.2L-486.1,401.2z M-487.1,399.5h1.2c0.4,0,0.7-0.1,0.9-0.4c0.2-0.3,0.3-0.6,0.3-1.1c0-1-0.4-1.5-1.2-1.5h-1.2V399.5z"/>
		<path class="st1" d="M-472.1,402.8h-2.8l-0.5,2.1h-2.2l3.2-10.1h1.9l3.2,10.1h-2.2L-472.1,402.8z M-473.1,392.1h2.2l-1.9,2.2h-1.6
			L-473.1,392.1z M-474.5,401.1h1.9l-0.9-3.6L-474.5,401.1z"/>
		<path class="st1" d="M-459,400.8h-3.2v4.1h-2v-10.1h5.6v1.7h-3.6v2.6h3.2V400.8z"/>
		<path class="st1" d="M-451,404.9h-2v-10.1h2V404.9z"/>
		<path class="st1" d="M-438.1,401.5c-0.1,1.2-0.4,2-1,2.6c-0.6,0.6-1.4,0.9-2.5,0.9c-1.1,0-2-0.4-2.6-1.1c-0.6-0.8-0.9-1.8-0.9-3.2
			V399c0-1.4,0.3-2.5,0.9-3.2c0.6-0.8,1.5-1.1,2.6-1.1c1.1,0,1.9,0.3,2.5,0.9c0.6,0.6,0.9,1.5,1,2.7h-2.1c0-0.7-0.1-1.2-0.3-1.5
			c-0.2-0.3-0.6-0.4-1.1-0.4c-0.5,0-0.9,0.2-1.2,0.6c-0.2,0.4-0.3,1-0.4,1.9v1.9c0,1,0.1,1.7,0.3,2.1c0.2,0.4,0.6,0.6,1.2,0.6
			c0.5,0,0.9-0.1,1.1-0.4c0.2-0.3,0.3-0.7,0.3-1.4H-438.1z"/>
		<path class="st1" d="M-425.4,400.8c0,1.4-0.3,2.4-1,3.2c-0.6,0.8-1.5,1.1-2.7,1.1c-1.1,0-2-0.4-2.7-1.1c-0.6-0.7-1-1.8-1-3.1v-1.7
			c0-1.4,0.3-2.5,1-3.3c0.6-0.8,1.5-1.2,2.7-1.2c1.1,0,2,0.4,2.7,1.2c0.6,0.8,1,1.8,1,3.2V400.8z M-427.5,399.1c0-0.9-0.1-1.6-0.4-2
			s-0.7-0.7-1.2-0.7c-0.5,0-0.9,0.2-1.2,0.6c-0.3,0.4-0.4,1.1-0.4,2v1.8c0,0.9,0.1,1.5,0.4,2c0.3,0.4,0.7,0.6,1.2,0.6
			c0.5,0,0.9-0.2,1.2-0.6c0.3-0.4,0.4-1,0.4-1.9V399.1z"/>
	</g>
</g>
</svg>
