<?xml version="1.0" encoding="utf-8"?>
<!-- Generator: Adobe Illustrator 18.0.0, SVG Export Plug-In . SVG Version: 6.00 Build 0)  -->
<!DOCTYPE svg PUBLIC "-//W3C//DTD SVG 1.1//EN" "http://www.w3.org/Graphics/SVG/1.1/DTD/svg11.dtd">
<svg version="1.1" id="Capa_1" xmlns="http://www.w3.org/2000/svg" xmlns:xlink="http://www.w3.org/1999/xlink" x="0px" y="0px"
	 viewBox="0 0 1000 1000" enable-background="new 0 0 1000 1000" xml:space="preserve">
<g>
	<g>
		<path fill="#332F2E" d="M500,1000C224.3,1000,0,775.7,0,500S224.3,0,500,0s500,224.3,500,500S775.7,1000,500,1000z M500,3.3
			C226.1,3.3,3.3,226.1,3.3,500S226.1,996.7,500,996.7S996.7,773.9,996.7,500S773.9,3.3,500,3.3z"/>
	</g>
	<g>
		<path fill="#332F2E" d="M749.1,729.2l-30.8-98.8c-0.2-0.7-5.2-16.4-19.4-34.2c-13.1-16.4-36.8-37.7-75.6-46.6
			c-0.1,0-0.2,0-0.3-0.1l-52.9-9.4c-0.4-0.1-0.8-0.1-1.2-0.1h-1.3l-13.8,5.5c-0.7,1.5-2.1,4.6-4.5,8.3
			c-7.1,11.2-22.5,28.3-49.6,28.3c-16.6,0-30.9-6.2-42.4-18.5c-3.2-3.4-5.7-6.8-7.7-9.8c-2.4-3.7-3.9-6.8-4.7-8.3l-13.8-5.5h-1.9
			c-0.4,0-0.7,0-1.1,0.1l-56,8.8c-0.2,0-0.4,0.1-0.6,0.1c-0.7,0.2-18.1,4.6-38,16.7c-26.6,16.1-45.2,38.2-53.7,64
			c-19.4,58.8-29,99.6-29.1,100c-0.5,2.1,0,4.2,1.3,5.9s3.3,2.6,5.4,2.6h98.3l0,0l0,0h286.9l0,0l0,0h99.9c2.2,0,4.3-1,5.6-2.8
			C749.4,733.6,749.8,731.3,749.1,729.2z M552.2,572.6c6.5-7.2,10.7-14.4,12.9-18.8h3.1l16.5,3l-19.3,86.1l-50.3-48.5
			C529.3,591.3,542,583.9,552.2,572.6z M512.2,651.6l12,72.7h-51.1l12-72.7c0.3-2-0.3-4.1-1.6-5.7L467.8,628l31.7-29.5l30.2,29.1
			l-15.9,18.3C512.4,647.5,511.9,649.6,512.2,651.6z M429.7,553.8h3.9c2.3,4.5,6.5,11.7,13.2,18.9c10.4,11.2,23,18.5,37.1,21.6
			L431.6,643l-18.3-86.6L429.7,553.8z M292.9,634c7.5-22.8,23.5-41.7,47.4-56.3c16.9-10.3,32.1-14.7,34.3-15.2l25-3.9l20.9,99.2
			c0.5,2.4,2.3,4.4,4.7,5.2c2.4,0.8,5,0.2,6.8-1.5l25.7-23.9l13.2,15.1L459,724.3h-95.4l9.8-70.1c0.5-3.8-2.1-7.3-5.9-7.8
			s-7.3,2.1-7.8,5.9l-10,72.1h-83.4C270,709.5,278.9,676.5,292.9,634z M648.7,724.3l-10-72.1c-0.5-3.8-4-6.4-7.8-5.9s-6.4,4-5.9,7.8
			l9.8,70.1h-96.5l-11.8-71.7l13.3-15.3l24.9,24c1.3,1.3,3,1.9,4.8,1.9c0.7,0,1.3-0.1,2-0.3c2.4-0.7,4.2-2.7,4.8-5.1l22.2-98.7
			l21.9,3.9c27.7,6.4,50.4,20.3,67.3,41.3c12.8,15.8,17.4,30,17.4,30.1l28,89.8h-84.4V724.3z"/>
		<path fill="#332F2E" d="M499.5,551.8c25.4,0,46-18.8,46-48.8h-92.1C453.5,533,474.1,551.8,499.5,551.8z"/>
		<path fill="#332F2E" d="M499.5,261L499.5,261L499.5,261c-54.7,3-104.8,39.5-104.8,106.5c0,62.9,59.8,82.5,62.1,112.5h85.4
			c2.3-30,62.1-49.6,62.1-112.5C604.3,300.5,554.2,264,499.5,261z M507,455.6c0,4.4-4.1,8.1-8.5,8.1s-8.5-3.6-8.5-8.1v-45.2
			c0-4.4,4.1-8.1,8.5-8.1s8.5,3.6,8.5,8.1V455.6z M507,377.8c0,4.4-4.1,8.1-8.5,8.1s-8.5-3.6-8.5-8.1v-4.3c0-4.4,4.1-8.1,8.5-8.1
			s8.5,3.6,8.5,8.1V377.8z"/>
	</g>
</g>
</svg>
