<?xml version="1.0" encoding="utf-8"?>
<!-- Generator: Adobe Illustrator 18.0.0, SVG Export Plug-In . SVG Version: 6.00 Build 0)  -->
<!DOCTYPE svg PUBLIC "-//W3C//DTD SVG 1.1//EN" "http://www.w3.org/Graphics/SVG/1.1/DTD/svg11.dtd">
<svg version="1.1" id="Capa_1" xmlns="http://www.w3.org/2000/svg" xmlns:xlink="http://www.w3.org/1999/xlink" x="0px" y="0px"
	 viewBox="0 0 1000 1000" enable-background="new 0 0 1000 1000" xml:space="preserve">
<g>
	<g>
		<path fill="#332F2E" d="M500,1000C224.3,1000,0,775.7,0,500S224.3,0,500,0s500,224.3,500,500S775.7,1000,500,1000z M500,3.3
			C226.1,3.3,3.3,226.1,3.3,500S226.1,996.7,500,996.7S996.7,773.9,996.7,500S773.9,3.3,500,3.3z"/>
	</g>
	<path fill="#332F2E" d="M730.5,268h-73.2h-16H358.4h-16h-73c-10.4,0-15.4,8.5-15.4,18.9v349.5c0,10.4,4.9,23.6,15.4,23.6H443v59
		h-74.8c-4.4,0-8,2.6-8,7s3.6,7,8,7h228.2c4.4,0,8-2.6,8-7s-3.6-7-8-7H559v-59h9.7h20.6h120.3h7.5h13.3c10.4,0,21.5-13.2,21.5-23.6
		V286.9C752,276.5,740.9,268,730.5,268z M735,636.4c0,1.6-2.9,6.6-4.5,6.6h-13.3h-7.5H589.3h-20.6H269.4c-1.6,0-2.4-5-2.4-6.6V286.9
		c0-1.6,0.8-2.9,2.4-2.9h73h16h26.4h230h26.4h16h73.2c1.6,0,4.5,1.3,4.5,2.9L735,636.4L735,636.4z"/>
</g>
</svg>
