<?xml version="1.0" encoding="utf-8"?>
<!-- Generator: Adobe Illustrator 18.0.0, SVG Export Plug-In . SVG Version: 6.00 Build 0)  -->
<!DOCTYPE svg PUBLIC "-//W3C//DTD SVG 1.1//EN" "http://www.w3.org/Graphics/SVG/1.1/DTD/svg11.dtd">
<svg version="1.1" id="Capa_1" xmlns="http://www.w3.org/2000/svg" xmlns:xlink="http://www.w3.org/1999/xlink" x="0px" y="0px"
	 viewBox="0 0 1000 1000" enable-background="new 0 0 1000 1000" xml:space="preserve">
<g>
	<g>
		<path fill="#332F2E" d="M500,1000C224.3,1000,0,775.7,0,500S224.3,0,500,0s500,224.3,500,500S775.7,1000,500,1000z M500,3.3
			C226.1,3.3,3.3,226.1,3.3,500S226.1,996.7,500,996.7S996.7,773.9,996.7,500S773.9,3.3,500,3.3z"/>
	</g>
	<g>
		<g>
			<g>
				<path fill="#332F2E" d="M739.1,312.9H323.3c-5.7,0-10.4,4.6-10.4,10.4v52h-52c-5.7,0-10.4,4.6-10.4,10.4v259.9
					c0,22.9,18.7,41.6,41.6,41.6h415.8c22.9,0,41.6-18.6,41.6-41.6V323.3C749.5,317.5,744.8,312.9,739.1,312.9z M312.9,645.5
					c0,11.5-9.3,20.8-20.8,20.8s-20.8-9.3-20.8-20.8V396.1h41.6L312.9,645.5L312.9,645.5z M728.7,645.5c0,11.5-9.3,20.8-20.8,20.8
					H328.1c3.6-6.1,5.6-13.2,5.6-20.8V333.7h395V645.5L728.7,645.5z"/>
				<path fill="#332F2E" d="M364.9,479.2c5.7,0,10.4-4.6,10.4-10.4V396h10.4c5.7,0,10.4,4.7,10.4,10.4v62.4
					c0,5.7,4.6,10.4,10.4,10.4c5.7,0,10.4-4.6,10.4-10.4v-62.4c0-17.2-14-31.2-31.2-31.2h-20.8c-5.7,0-10.4,4.6-10.4,10.4v83.2
					C354.5,474.6,359.1,479.2,364.9,479.2z"/>
				<path fill="#332F2E" d="M448,479.2h41.6c5.7,0,10.4-4.6,10.4-10.4s-4.6-10.4-10.4-10.4h-31.2v-20.8h20.8
					c5.7,0,10.4-4.6,10.4-10.4c0-5.7-4.6-10.4-10.4-10.4h-20.8V396h31.2c5.7,0,10.4-4.6,10.4-10.4c0-5.7-4.6-10.4-10.4-10.4H448
					c-5.7,0-10.4,4.6-10.4,10.4v83.2C437.6,474.6,442.3,479.2,448,479.2z"/>
				<path fill="#332F2E" d="M543.3,474.6c1.9,2.9,5.2,4.6,8.6,4.6c3.5,0,6.7-1.7,8.6-4.6l12.1-18.2l12.1,18.2
					c1.9,2.9,5.2,4.6,8.6,4.6s6.7-1.7,8.6-4.6l20.8-31.2c1.1-1.7,1.7-3.7,1.7-5.8v-52c0-5.7-4.6-10.4-10.4-10.4
					c-5.7,0-10.4,4.6-10.4,10.4v48.8L593.2,450l-10.4-15.6v-48.8c0-5.7-4.6-10.4-10.4-10.4c-5.7,0-10.4,4.6-10.4,10.4v48.8l-10,15.7
					l-10.4-15.6v-48.8c0-5.7-4.6-10.4-10.4-10.4c-5.7,0-10.4,4.6-10.4,10.4v52c0,2.1,0.6,4.1,1.7,5.8L543.3,474.6z"/>
				<path fill="#332F2E" d="M676.7,458.4h-20.8c-5.7,0-10.4,4.6-10.4,10.4s4.6,10.4,10.4,10.4h20.8c17.2,0,31.2-14,31.2-31.2
					s-14-31.2-31.2-31.2c-5.7,0-10.4-4.7-10.4-10.4S671,396,676.7,396h20.8c5.7,0,10.4-4.6,10.4-10.4c0-5.7-4.6-10.4-10.4-10.4
					h-20.8c-17.2,0-31.2,14-31.2,31.2s14,31.2,31.2,31.2c5.7,0,10.4,4.7,10.4,10.4S682.4,458.4,676.7,458.4z"/>
				<path fill="#332F2E" d="M364.9,624.7h145.5c5.7,0,10.4-4.6,10.4-10.4V510.4c0-5.7-4.6-10.4-10.4-10.4H364.9
					c-5.7,0-10.4,4.6-10.4,10.4v103.9C354.5,620.1,359.1,624.7,364.9,624.7z M375.3,520.8H500V604H375.3V520.8z"/>
				<path fill="#332F2E" d="M697.5,520.8H552c-5.7,0-10.4,4.6-10.4,10.4s4.6,10.4,10.4,10.4h145.5c5.7,0,10.4-4.6,10.4-10.4
					S703.3,520.8,697.5,520.8z"/>
				<path fill="#332F2E" d="M697.5,562.4H552c-5.7,0-10.4,4.6-10.4,10.4c0,5.7,4.6,10.4,10.4,10.4h145.5c5.7,0,10.4-4.6,10.4-10.4
					S703.3,562.4,697.5,562.4z"/>
				<path fill="#332F2E" d="M697.5,604H552c-5.7,0-10.4,4.6-10.4,10.4c0,5.7,4.6,10.4,10.4,10.4h145.5c5.7,0,10.4-4.6,10.4-10.4
					S703.3,604,697.5,604z"/>
			</g>
		</g>
	</g>
</g>
</svg>
