<?xml version="1.0" encoding="utf-8"?>
<!-- Generator: Adobe Illustrator 18.0.0, SVG Export Plug-In . SVG Version: 6.00 Build 0)  -->
<!DOCTYPE svg PUBLIC "-//W3C//DTD SVG 1.1//EN" "http://www.w3.org/Graphics/SVG/1.1/DTD/svg11.dtd">
<svg version="1.1" id="Capa_1" xmlns="http://www.w3.org/2000/svg" xmlns:xlink="http://www.w3.org/1999/xlink" x="0px" y="0px"
	 viewBox="0 0 200 200" enable-background="new 0 0 200 200" xml:space="preserve">
<g>
	<path fill="#FF8B00" d="M132.9,95c-0.1-1.8-0.3-3.6-0.7-5.4l0,0l-0.1-0.4c0,0,0,0,0,0l-0.1-0.6l0,0c-2-7.9-7.3-14.7-14.4-18.6l0,0
		l-0.5-0.3l-0.3-0.2l0,0c-2.2-1.2-4.6-2-7.1-2.6l0,0l-0.5-0.1l0,0l-0.1,0l-0.3-0.1l0,0l-0.6-0.1l0,0c-1.7-0.3-3.5-0.4-5.2-0.4
		c-5.6,0-11,1.5-15.7,4.4l0,0l-0.3,0.2c-0.6,0.4-1.2,0.8-1.7,1.2l0,0l-0.7,0.5l-0.2,0.2v0c-3.6,2.9-6.7,6.6-8.7,10.8
		c-0.9,2-1.7,4.1-2.2,6.3c-0.5,2.1-0.7,4.3-0.7,6.4c0,2.8,0.3,5.6,1.1,8.2c0.6,2,1.3,4,2.3,5.9l0,0c0,0,0,0.1,0.1,0.1
		c0,0,0,0.1,0.1,0.1l0,0c0.6,1.2,1.3,2,1.7,2.6c0.1,0.1,0.1,0.2,0.2,0.3c0,0,0,0,0,0.1c0.1,0.1,0.1,0.2,0.2,0.3
		c0.4,0.6,0.8,1.1,1.3,1.7c0.6,0.7,5,5.1,8.7,8.8l0,0c0.1,0.1,0.4,0.2,0.5,0.3l0.5,0.3v0c0.7,1.4,2.5,2.1,4,4.3h0l1,1
		c3.9,3.8,8,7.9,8.4,8.3l0.3,0.3l0.3-0.3c0.4-0.3,3.7-4.2,6.5-6.4h0c3.2-3.6,13.1-13.2,13.7-13.9c1.5-1.6,2.5-2.7,2.7-3
		c1.8-2.2,3.3-4.7,4.5-7.6h0l0.3-0.4l0,0.1c0,0,0,0.1,0,0.1l0,0l0.1,0l0,0l-0.1-0.1l0.2-0.5l0,0c0.3-1.1,0.8-3,1.1-4.2l0,0l0.1-0.8
		c0,0,0,0,0,0l0-0.2l0,0C132.9,98.1,132.9,95,132.9,95z M116.1,71.6c0.1-0.1,0.1-0.2,0.2-0.2c0-0.1,0.1-0.1,0.1-0.2
		c0.1-0.1,0.1-0.1,0.2-0.2c0-0.1,0.1-0.1,0.1-0.2c0,0,0,0,0.1-0.1C123.9,74.6,129,81.2,131,89c-0.1,0-0.1,0.1-0.2,0.1
		c-0.1,0-0.2,0.1-0.3,0.1c-0.1,0-0.2,0.1-0.3,0.1c-0.1,0-0.2,0.1-0.3,0.1c-0.1,0-0.2,0.1-0.3,0.1c-0.1,0-0.2,0.1-0.3,0.1
		c-0.1,0-0.2,0.1-0.4,0.1c-0.1,0-0.2,0-0.3,0.1c-0.1,0-0.2,0.1-0.4,0.1c-0.1,0-0.2,0-0.3,0.1c-0.1,0-0.3,0-0.4,0.1
		c-0.1,0-0.2,0-0.3,0c-0.1,0-0.3,0-0.4,0c-0.1,0-0.1,0-0.2,0c-0.2,0-0.4,0-0.7,0c-6.6,0-11.9-5.3-11.9-11.9c0-0.2,0-0.4,0-0.5
		c0-0.1,0-0.1,0-0.2c0-0.1,0-0.2,0-0.3c0-0.1,0-0.1,0-0.2c0-0.1,0-0.2,0-0.3c0-0.1,0-0.1,0-0.2c0-0.1,0-0.2,0-0.3c0-0.1,0-0.2,0-0.2
		c0-0.1,0-0.2,0.1-0.3c0-0.1,0-0.2,0.1-0.2c0-0.1,0-0.2,0.1-0.3c0-0.1,0-0.2,0.1-0.2c0-0.1,0.1-0.2,0.1-0.3c0-0.1,0.1-0.2,0.1-0.2
		c0-0.1,0.1-0.2,0.1-0.3c0-0.1,0.1-0.2,0.1-0.2c0-0.1,0.1-0.2,0.1-0.3c0-0.1,0.1-0.2,0.1-0.2c0-0.1,0.1-0.2,0.1-0.2
		c0-0.1,0.1-0.1,0.1-0.2c0-0.1,0.1-0.2,0.1-0.2c0-0.1,0.1-0.1,0.1-0.2c0-0.1,0.1-0.2,0.1-0.2c0-0.1,0.1-0.1,0.1-0.2
		c0-0.1,0.1-0.2,0.1-0.2C116,71.8,116.1,71.7,116.1,71.6z M116,70.3c-0.1,0.1-0.2,0.3-0.3,0.4c0,0-0.1,0.1-0.1,0.1
		c-0.1,0.1-0.2,0.2-0.2,0.3c0,0.1-0.1,0.1-0.1,0.2c-0.1,0.1-0.1,0.2-0.2,0.3c0,0.1-0.1,0.1-0.1,0.2c-0.1,0.1-0.1,0.2-0.2,0.3
		c0,0.1-0.1,0.1-0.1,0.2c0,0.1-0.1,0.2-0.1,0.3c0,0.1-0.1,0.1-0.1,0.2c0,0.1-0.1,0.2-0.1,0.3c0,0.1-0.1,0.2-0.1,0.2
		c0,0.1-0.1,0.2-0.1,0.3c0,0.1-0.1,0.2-0.1,0.2c0,0.1-0.1,0.2-0.1,0.3c0,0.1-0.1,0.2-0.1,0.2c0,0.1-0.1,0.2-0.1,0.3
		c0,0.1,0,0.2-0.1,0.2c0,0.1-0.1,0.2-0.1,0.3c0,0.1,0,0.2-0.1,0.2c0,0.1,0,0.2-0.1,0.3c0,0.1,0,0.2,0,0.2c0,0.1,0,0.2-0.1,0.3
		c0,0.1,0,0.2,0,0.2c0,0.1,0,0.2,0,0.3c0,0.1,0,0.1,0,0.2c0,0.1,0,0.2,0,0.4c0,0.1,0,0.1,0,0.2c0,0.2,0,0.4,0,0.6
		c0,7.1,5.8,12.8,12.8,12.8c0.2,0,0.5,0,0.7,0c0.1,0,0.2,0,0.2,0c0.2,0,0.3,0,0.5,0c0.1,0,0.2,0,0.3,0c0.1,0,0.3,0,0.4-0.1
		c0.1,0,0.2,0,0.3-0.1c0.1,0,0.3-0.1,0.4-0.1c0.1,0,0.2,0,0.3-0.1c0.1,0,0.3-0.1,0.4-0.1c0.1,0,0.2-0.1,0.3-0.1
		c0.1,0,0.3-0.1,0.4-0.1c0.1,0,0.2-0.1,0.3-0.1c0.1,0,0.3-0.1,0.4-0.2c0.1,0,0.2-0.1,0.3-0.1c0,0,0.1,0,0.1,0
		c0.3,1.4,0.5,2.9,0.6,4.3c0,0,0,0,0,0c-0.1,0-0.1-0.1-0.2-0.1c-0.1-0.1-0.2-0.1-0.3-0.2c-0.1,0-0.1-0.1-0.2-0.1
		c-0.1,0-0.2-0.1-0.3-0.1c-0.1,0-0.1-0.1-0.2-0.1c-0.1,0-0.2-0.1-0.3-0.1c-0.1,0-0.1-0.1-0.2-0.1c-0.1,0-0.2-0.1-0.3-0.1
		c-0.1,0-0.1,0-0.2-0.1c-0.1,0-0.2-0.1-0.3-0.1c0,0-0.1,0-0.1-0.1c-0.1-0.1-0.3-0.1-0.4-0.2c0,0,0,0,0,0c-0.2-0.1-0.3-0.1-0.5-0.1
		c0,0-0.1,0-0.1,0c-0.1,0-0.2-0.1-0.3-0.1c-0.1,0-0.1,0-0.2,0c-0.1,0-0.2,0-0.3-0.1c-0.1,0-0.1,0-0.2,0c-0.1,0-0.2,0-0.3-0.1
		c-0.1,0-0.1,0-0.2,0c-0.1,0-0.2,0-0.3,0c-0.1,0-0.1,0-0.2,0c-0.1,0-0.2,0-0.3,0c-0.1,0-0.1,0-0.2,0c-0.1,0-0.2,0-0.3,0
		c-0.1,0-0.1,0-0.2,0c-0.2,0-0.3,0-0.5,0c-0.2,0-0.3,0-0.5,0c-0.1,0-0.1,0-0.2,0c-0.1,0-0.2,0-0.3,0c-0.1,0-0.1,0-0.2,0
		c-0.1,0-0.2,0-0.3,0c-0.1,0-0.1,0-0.2,0c-0.1,0-0.2,0-0.3,0c-0.1,0-0.1,0-0.2,0c-0.1,0-0.2,0-0.3,0.1c-0.1,0-0.1,0-0.2,0
		c-0.1,0-0.2,0-0.3,0.1c0,0-0.1,0-0.1,0c-0.1,0-0.2,0.1-0.4,0.1c0,0-0.1,0-0.1,0c-0.1,0-0.3,0.1-0.4,0.1c0,0-2.7,1.2-2.8,1.3
		c0,0,0,0-0.1,0.1c-0.1,0-0.1,0.1-0.2,0.1c-0.8-6.2-5.5-11.3-11.6-12.7c-0.3-0.1-0.5-0.1-0.8-0.1c0.1-0.1,0.2-0.2,0.3-0.2
		c0,0,0.1-0.1,0.1-0.1c0.1-0.1,0.3-0.2,0.4-0.4c0.5-0.5,0.9-0.9,1.3-1.4c1.7-2.2,2.6-5.5,2.6-7.7h0.2v-0.2c0-0.2-0.1-0.4-0.1-0.5
		c0-0.1-0.1-0.1-0.1-0.2c0-0.1,0-0.2,0-0.4c0-0.1,0-0.1,0-0.2c0-0.1,0-0.2,0-0.3c0-0.1,0-0.1,0-0.2c0-0.1,0-0.2-0.1-0.3
		c0-0.1,0-0.1,0-0.2c0-0.1,0-0.3-0.1-0.4c0,0,0-0.1,0-0.1c0-0.2-0.1-0.3-0.1-0.5c0,0,0-0.1,0-0.1c0-0.1-0.1-0.2-0.1-0.3
		C111.6,68.4,113.9,69.2,116,70.3z M106.4,110.4L106.4,110.4C106.4,110.4,106.4,110.4,106.4,110.4z M117.1,95.2
		c-0.2-3.2-1.5-6.1-3.5-8.4c0,0,0,0,0,0c-0.1-0.1-0.2-0.3-0.4-0.4c0,0,0,0,0,0c-0.1-0.1-0.3-0.3-0.4-0.4c0,0,0,0,0,0
		c-0.1-0.1-0.3-0.2-0.4-0.4c0,0,0,0,0,0c-0.1-0.1-0.3-0.2-0.4-0.3c0,0,0,0-0.1-0.1c-0.1-0.1-0.2-0.2-0.4-0.3c0,0-0.1,0-0.1-0.1
		c-0.1-0.1-0.2-0.2-0.4-0.3c0,0-0.1,0-0.1-0.1c0,0,0.1,0,0.1,0.1c0.1,0.1,0.2,0.2,0.4,0.3c0,0,0.1,0,0.1,0.1
		c0.1,0.1,0.3,0.2,0.4,0.3c0,0,0,0,0.1,0.1c0.1,0.1,0.3,0.2,0.4,0.3c0,0,0,0,0,0c0.1,0.1,0.3,0.2,0.4,0.4c0,0,0,0,0,0
		c0.1,0.1,0.3,0.3,0.4,0.4c0,0,0,0,0,0c0.1,0.1,0.3,0.3,0.4,0.4c0,0,0,0,0,0C115.6,89.1,116.9,92,117.1,95.2z M117.2,95.3
		L117.2,95.3C117.2,95.3,117.2,95.3,117.2,95.3C117.2,95.3,117.2,95.3,117.2,95.3C117.1,95.3,117.1,95.3,117.2,95.3L117.2,95.3
		c-0.1,0-0.2,0-0.3,0C117,95.3,117.1,95.3,117.2,95.3z M117.1,95.2C117.2,95.2,117.2,95.2,117.1,95.2
		C117.2,95.2,117.2,95.2,117.1,95.2L117.1,95.2C117.2,95.2,117.2,95.2,117.1,95.2z M115.6,95.2c0.2,0,0.3,0,0.5,0
		C115.9,95.2,115.8,95.2,115.6,95.2z M116.2,95.3c-0.2,0-0.4,0.1-0.6,0.2C115.8,95.4,116,95.4,116.2,95.3z M116.2,95.3
		c0.2,0,0.5-0.1,0.7-0.1C116.7,95.3,116.5,95.3,116.2,95.3c-0.6,0.1-1.3,0.4-1.8,0.8c0.3-0.2,0.5-0.4,0.8-0.5
		C115.6,95.5,115.9,95.4,116.2,95.3z M116.3,96.1c0.3-0.3,0.6-0.5,0.9-0.8c0,0,0,0,0,0c-0.2,0.2-0.5,0.4-0.7,0.6
		c0.2-0.2,0.5-0.4,0.7-0.6c-0.1,0-0.2,0-0.2,0c0.1,0,0.2,0,0.2,0c0,0,0,0,0,0c0,0,0,0,0,0C116.9,95.5,116.6,95.8,116.3,96.1z
		 M116.8,94.7c-0.3,0-0.7,0-1,0c-2,0-3.5,0.2-4.3,0.4c-0.5-4.7-2.6-9.2-5.9-12.5c0.1,0,0.2,0,0.3,0.1
		C111.7,83.9,116.1,88.9,116.8,94.7z M114,96l-3.1,3.1l-4.2,4.1l-1-1.2l0,0c-0.8-0.8-1.9-1.3-3.2-1.3c-0.4,0-0.7,0-1.1,0.1
		c0,0,0,0,0,0c-0.1,0-0.3,0.1-0.4,0.1c0,0-0.1,0-0.1,0c-0.1,0-0.2,0.1-0.3,0.1c0,0,0,0-0.1,0c1.1-0.9,2.3-1.8,3.6-2.5
		c0.1-0.1,0.2-0.1,0.3-0.2c0.1,0,0.1-0.1,0.2-0.1c1.7-0.9,3.5-1.6,5.4-2.1c0,0,0,0,0.1,0c0.2,0,0.3-0.1,0.5-0.1
		c0.2,0,0.4-0.1,0.6-0.1l0,0c0,0,0.1,0,0.1,0l0.4-0.1l0,0c0.6-0.1,1.5-0.3,2.8-0.4C114.2,95.8,114.1,95.9,114,96z M110.8,94.8
		c-0.7-4.4-2.3-7.9-4.7-10.7C108.5,86.9,110.1,90.3,110.8,94.8z M110.6,93.1c0.2,0.8,0.3,1.6,0.4,2.4
		C110.8,94.7,110.7,93.9,110.6,93.1z M110.9,95.7C110.9,95.7,110.9,95.7,110.9,95.7L110.9,95.7C110.9,95.7,110.9,95.7,110.9,95.7z
		 M107.4,85.8c-1-1.4-2.1-2.7-3.4-3.8c0,0,0,0,0,0c0,0,0,0,0,0c0,0,0,0,0,0c0,0,0,0,0,0c0,0,0,0,0,0
		C105.3,83.1,106.5,84.4,107.4,85.8z M103.9,82.4l0.2,0.1l0,0c3.6,3.3,6,7.9,6.5,12.8c0,0,0,0,0,0c-2.6,0.5-5,1.5-7.3,2.8
		c-3.1,1.8-5.8,4.4-7.9,7.4l-3.9-3.9l-1.3-1.3c-0.3-0.3-0.5-0.5-0.9-0.7c-0.1-0.4-0.1-3.3-0.1-3.4v0c0-3.4,1.1-6.7,3.3-9.2
		c0.9-1,1.9-1.9,3.1-2.7c0.4-0.3,0.8-0.5,1.2-0.7c1.9-0.9,3.9-1.4,6-1.4l0,0L103.9,82.4z M90.8,102l4,3.8h0l0.4,0.6l0,0.1
		c0,0,0,0.1,0,0.1l0.2,0.3l0.1,0.1l0,0l4.2-4.1l0,0c0.7-0.7,1.7-1.1,2.7-1.1c0.9,0,1.8,0.4,2.5,1l1.7,1.9l0.1-0.1l0,0l4.1-4.1
		l0.7-0.7l3.1-3c0.4-0.4,1-0.6,1.4-0.8c-2.5,2.5-3.7,5.7-3.7,9.3c0,0,0,0,0,0c0,0,0,0,0,0c0,0.6-0.1,1.3-0.1,1.8
		c-1.2,1-3.1,1.9-5,2.4c-1.6,0.5-3.5,0.7-5.3,0.7c-0.7,0-1.6-0.1-2.5-0.3c-1.4-0.3-3.1-1-4.7-2.2c0,0,0,0,0,0c0,0,0,0,0,0
		c-1.5-1.1-2.9-2.6-4-4.8c-0.3-0.5-0.6-1.2-0.8-1.8L90.8,102z M112.3,106.5C112.3,106.5,112.3,106.5,112.3,106.5c0-0.2,0-0.4,0-0.6
		c0,0,0,0,0,0C112.3,106.1,112.3,106.3,112.3,106.5z M112.5,107.3c0-0.1,0-0.2-0.1-0.3C112.5,107.1,112.5,107.2,112.5,107.3
		C112.5,107.3,112.5,107.3,112.5,107.3C112.5,107.3,112.5,107.3,112.5,107.3z M112.6,107.3L112.6,107.3c-0.1,0.1-0.1,0.1-0.2,0.2
		C112.4,107.4,112.5,107.3,112.6,107.3z M117.3,95.2C117.3,95.2,117.3,95.2,117.3,95.2C117.3,95.2,117.3,95.2,117.3,95.2
		C117.3,95.2,117.3,95.2,117.3,95.2z M117.2,95.2C117.2,95.2,117.2,95.2,117.2,95.2C117.2,95.2,117.2,95.2,117.2,95.2
		C117.2,95.2,117.2,95.2,117.2,95.2z M108,77.4c0.1-0.2,0.2-0.4,0.3-0.6C108.2,77,108.1,77.2,108,77.4L108,77.4z M108.3,76.7
		c0.1-0.2,0.2-0.4,0.2-0.6c0,0.1-0.1,0.2-0.1,0.3C108.3,76.5,108.3,76.6,108.3,76.7z M108.7,75.5c0-0.1,0.1-0.3,0.1-0.4
		C108.8,75.3,108.8,75.4,108.7,75.5z M109,74.7L109,74.7L109,74.7L109,74.7z M109.3,71.7L109.3,71.7c0-0.4,0-0.8-0.1-1.1
		C109.3,70.9,109.3,71.3,109.3,71.7z M109.2,73.2c0,0.1,0,0.3-0.1,0.4c0,0.2-0.1,0.3-0.1,0.5v0c0-0.2,0.1-0.3,0.1-0.5
		C109.2,73.5,109.2,73.4,109.2,73.2z M87,71.7L87,71.7l0.3-0.2c4.6-2.9,10-4.4,15.5-4.4c1.9,0,3.7,0.2,5.6,0.5c0,0.1,0,0.1,0.1,0.2
		c0,0.1,0.1,0.2,0.1,0.2c0,0.1,0.1,0.2,0.1,0.3c0,0.1,0,0.2,0.1,0.2c0,0.1,0,0.2,0.1,0.3c0,0.1,0,0.2,0.1,0.2c0,0.1,0,0.2,0.1,0.3
		c0,0.1,0,0.1,0,0.2c0,0.1,0,0.2,0,0.3c0,0.1,0,0.1,0,0.2c0,0.1,0,0.2,0,0.3c0,0.1,0,0.1,0,0.2c0,0.1,0,0.2,0,0.4c0,0.1,0,0.1,0,0.2
		c0,0.2,0,0.4,0,0.5c0,2.6-0.8,5.2-2.4,7.2c-0.4,0.5-0.8,0.9-1.2,1.4c-0.2,0.2-0.4,0.3-0.6,0.5c0,0-0.1,0.1-0.1,0.1
		c-0.2,0.2-0.4,0.3-0.6,0.5c0,0,0,0,0,0c-3.6-3-8.2-4.7-12.9-4.8l0,0l-0.3,0l-0.1,0c-1.3,0-2.7,0.1-4,0.4c-0.2,0-0.4,0.1-0.6,0.1
		c-0.1-0.2-0.2-0.3-0.2-0.5c0-0.1,0-0.1-0.1-0.2c0-0.1-0.1-0.2-0.1-0.3c0-0.1-0.1-0.1-0.1-0.2c0-0.1-0.1-0.2-0.1-0.3
		c0-0.1,0-0.1-0.1-0.2c0-0.1-0.1-0.2-0.1-0.3c0-0.1,0-0.2-0.1-0.2c0-0.1-0.1-0.2-0.1-0.3c0-0.1,0-0.2-0.1-0.2c0-0.1,0-0.2-0.1-0.3
		c0-0.1,0-0.2,0-0.2c0-0.1,0-0.2,0-0.3c0-0.1,0-0.2,0-0.3c0-0.1,0-0.1,0-0.2C85.7,72.5,86.3,72.1,87,71.7z M74.5,103.9
		c-0.7-2.5-1-5.2-1-7.9c0-2.1,0.3-4.2,0.7-6.2c0.5-2.1,1.2-4.1,2.1-6.1c1.9-3.9,4.6-7.4,8-10.1c0,0.1,0,0.2,0.1,0.3
		c0,0.1,0,0.1,0,0.2c0,0.2,0.1,0.4,0.1,0.6c0,0,0,0.1,0,0.1c0,0.2,0.1,0.3,0.1,0.5c0,0.1,0,0.1,0.1,0.2c0,0.1,0.1,0.3,0.1,0.4
		c0,0.1,0.1,0.1,0.1,0.2c0,0.1,0.1,0.2,0.1,0.4c0,0.1,0.1,0.1,0.1,0.2c0.1,0.1,0.1,0.3,0.2,0.4c0,0.1,0.1,0.1,0.1,0.2
		c0.1,0.2,0.2,0.4,0.3,0.5l0.2,0.3c0,0,1.3-0.5,5.1-0.6c3.8-0.1,8.3,1.4,11.7,3.9c-2.7,0-5.3,0.5-7.6,1.9c-4.4,2.7-7.1,7.3-7.1,12.4
		h0c0,1.4,0.1,2.3,0.3,3.3l0,0.2l0,0.2c-1.1-0.2-2.1,0.2-2.8,1l0,0c-0.1,0-0.1,0.1-0.2,0.2l-8.6,8.8C75.7,107.5,75,105.7,74.5,103.9
		z M78,111.6C78,111.6,78,111.6,78,111.6c-0.3-0.4-0.7-1.1-0.8-1.3L86,101c0.5-0.4,1.2-0.7,1.8-0.7c0.2,0,0.4,0,0.6,0.1
		c0.6,2.3,1.7,4.3,3.1,5.9c0.8,1,1.7,1.8,2.6,2.4l0,0c1,0.7,2.1,1.2,3.1,1.6c0,0,0,0,0,0c0.1,0,0.1,0,0.2,0.1
		c1.7,0.6,3.5,0.9,5.4,0.9c1,0,2-0.1,3-0.3c2.5-0.5,4.7-1.6,6.6-3.1c0,0,0,0,0,0c0.1-0.1,0.2-0.2,0.3-0.3c0,0,0,0,0,0l0.2-0.2l0,0h0
		l0-0.2c-0.1-0.6-0.1-1.3-0.1-2c0-3.3,1.3-6.4,3.7-8.7c0.3-0.3,0.6-0.5,0.9-0.8c0.9,0.1,1.7,0.5,2.3,1.2l9.2,9.5
		c-2.3-0.1-4.7-0.1-7,0.2c-2.4,0.3-5.8,0.6-9.3,2h0c-3.1,0.7-6.3,2.5-8.9,4.4c0,0,0,0-0.1,0c-3.5-0.9-7.1-1.5-10.7-1.8
		c0,0,0,0-0.1,0c-2.1-0.2-4.1-0.3-6.2-0.3C83.9,111,80.9,111.2,78,111.6z M89.1,123.1c-0.1,0.1-0.1,0.1-0.2,0.2c0,0,0,0-0.1,0
		c-5.1-5.1-8.2-8.2-8.6-8.8c-0.2-0.2-0.3-0.4-0.5-0.6c-0.4-0.5-0.7-1-1.1-1.5c2.7-0.3,5.5-0.5,8.3-0.5c2,0,3.9,0.1,5.9,0.3
		c0,0,0,0,0.1,0c3.4,0.3,6.8,0.4,10.1,1.2c0,0-0.1-0.4-0.1-0.4h0.5c0.2,0,0.4,0.6,0.6,0.6l0.1,0.3c0.9,0.2,2.9,0.9,3.7,1.2
		c0,0,0,0.1,0,0.1c0,0,0,0,0,0.1c0,0,0,0,0,0c0,0,0,0,0,0c0,0,0,0,0,0c0,0,0,0,0,0c0,0,0,0,0,0c0,0,0,0,0,0c0,0,0,0,0,0c0,0,0,0,0,0
		c0,0,0,0,0,0c0,0,0,0,0,0c0,0,0,0,0,0.1c0,0,0,0,0,0c0,0,0,0,0.1,0.1c0,0,0,0,0,0c0,0,0,0,0.1,0.1c0,0,0,0,0,0c0,0,0,0.1,0.1,0.1
		c0,0,0,0,0,0c0.1,0.1,0.1,0.2,0.2,0.3c0,0,0,0,0,0c0,0,0.1,0.1,0.1,0.1c0,0,0,0,0,0c0,0,0,0.1,0.1,0.1c0,0,0,0,0,0.1
		c0,0,0,0.1,0.1,0.1c0,0,0,0,0,0.1c0,0,0,0.1,0,0.1c0,0,0,0,0,0.1c0,0,0,0.1,0,0.1c0,0,0,0,0,0.1c0,0,0,0.1,0,0.1c0,0,0,0.1,0,0.1
		c0,0,0,0.1,0,0.1c0,0,0,0.1,0,0.1c0,0,0,0.1,0,0.1c0,0,0,0.1,0,0.1c0,0,0,0.1,0,0.1c0,0,0.1,0.1,0.1,0.1c0,0,0.1,0.1,0.1,0.1
		c0,0,0,0.1,0,0.1c0,0-0.1,0.1-0.1,0.1c0,0,0,0.1,0,0.1c0,0,0,0.1,0,0.1c0,0,0,0.1,0,0.1c0,0,0,0.1,0,0.1c0,0,0,0.1,0,0.1
		c0,0,0,0.1,0,0.1c0,0,0,0.1,0,0.1c0,0,0,0.1,0,0.1c0,0,0,0.1,0,0.1c0,0,0,0.1-0.1,0.1c0,0,0,0.1,0,0.1c0,0.1-0.1,0.1-0.1,0.2
		c0,0,0,0.1,0,0.1c0,0.1-0.1,0.1-0.1,0.2c0,0,0,0.1,0,0.1c-0.1,0.1-0.1,0.2-0.2,0.3c0,0.1-0.1,0.1-0.1,0.2c-0.7,0.9-1.7,1.4-3,1.4
		c-1.1,0-2.3-0.3-3.7-0.6c-0.2-0.1-0.5-0.1-0.7-0.2c-0.7-0.2-1.5-0.7-2.3-0.9c-0.8-0.1-1.5-0.6-2.2-0.6c0,0,0,0,0,0
		c-0.2,0-0.4,0.4-0.5,0.4c-0.1,0-0.1,0.2-0.2,0.2c-0.1,0-0.2,0.1-0.4,0.1c-0.1,0-0.1,0.1-0.2,0.1c-0.1,0-0.2,0-0.3,0.1
		c-0.1,0-0.2,0-0.2,0.1c-0.1,0-0.2,0-0.3,0.1c-0.1,0-0.2,0-0.2,0.1c-0.1,0-0.2,0-0.3,0.1c-0.1,0-0.2,0-0.2,0.1c-0.1,0-0.2,0-0.3,0.1
		c-0.1,0-0.2,0-0.2,0.1c-0.1,0-0.2,0.1-0.3,0.1c-0.1,0-0.2,0.1-0.2,0.1c-0.1,0-0.2,0.1-0.3,0.1c-0.1,0-0.2,0.1-0.2,0.1
		c-0.1,0-0.2,0.1-0.3,0.1c-0.1,0-0.2,0.1-0.2,0.1c-0.1,0-0.2,0.1-0.2,0.1c-0.1,0-0.2,0.1-0.2,0.1c-0.1,0-0.2,0.1-0.2,0.1
		c-0.1,0-0.1,0.1-0.2,0.1c-0.1,0-0.2,0.1-0.2,0.2c-0.1,0-0.1,0.1-0.2,0.1c-0.1,0.1-0.2,0.1-0.2,0.2c-0.1,0.1-0.1,0.1-0.2,0.2
		c-0.1,0.1-0.2,0.1-0.2,0.2c-0.1,0.1-0.1,0.1-0.2,0.2C89.2,123,89.2,123.1,89.1,123.1z M102.8,137.2c-0.9-0.9-3.8-3.7-7.2-7.1
		c0.1,0,0.1,0,0.2,0c0,0,0,0,0,0c0.3,0,0.6-0.1,0.8-0.2c0,0,0,0,0,0c0.3-0.1,0.5-0.2,0.8-0.4c0,0,0,0,0.1,0c0.1-0.1,0.2-0.2,0.4-0.3
		c0.9-0.7,1.4-1.6,1.5-2.6c0-0.1,0-0.2,0-0.2c0-1.2-0.5-2.3-0.9-3c2.2,0.3,5,1.8,5.9,4.8c0,0.1,0.1,0.2,0.1,0.3c0,0,0,0,0,0.1
		c0.8,2.4,2.5,3.2,3.8,3.4C105.6,134.5,103.6,136.5,102.8,137.2z M109.1,131c-1.4,0-3.1-0.6-3.9-3.2c-1.1-3.6-4.7-5.5-7.6-5.5
		c0,0-0.1,0-0.1,0l-1,0l0.6,0.7c0,0,0,0,0,0c0.1,0.1,1.2,1.5,1.3,3c0,0,0,0.1,0,0.1c0,0.1,0,0.1,0,0.2c0,0.1,0,0.1,0,0.2
		c0,0,0,0.1,0,0.1c0,0.1,0,0.1,0,0.2c0,0,0,0.1,0,0.1c0,0.1,0,0.1-0.1,0.2c0,0,0,0.1,0,0.1c0,0.1,0,0.1-0.1,0.1c0,0,0,0.1-0.1,0.1
		c0,0,0,0.1-0.1,0.1c0,0-0.1,0.1-0.1,0.1c0,0,0,0.1-0.1,0.1c0,0.1-0.1,0.1-0.1,0.2c0,0,0,0-0.1,0.1c-0.1,0.1-0.3,0.3-0.4,0.4
		c-0.1,0.1-0.2,0.1-0.3,0.2c0,0-0.1,0-0.1,0.1c-0.1,0-0.1,0.1-0.2,0.1c0,0-0.1,0-0.1,0.1c-0.1,0-0.1,0.1-0.2,0.1c0,0-0.1,0-0.1,0
		c-0.1,0-0.1,0-0.2,0.1c0,0-0.1,0-0.1,0c-0.1,0-0.1,0-0.2,0c0,0-0.1,0-0.1,0c-0.1,0-0.1,0-0.2,0c-0.1,0-0.1,0-0.2,0
		c-0.1,0-0.1,0-0.2,0c-0.1,0-0.1,0-0.2,0c0,0-0.1,0-0.1,0l-0.5-0.5c-1.6-1.5-3.2-3.1-4.7-4.7c0,0,0,0,0,0c0.1-0.1,0.1-0.1,0.2-0.2
		c0.1-0.1,0.2-0.1,0.2-0.2c0.1-0.1,0.1-0.1,0.2-0.1c0.1-0.1,0.2-0.1,0.2-0.2c0.1,0,0.1-0.1,0.2-0.1c0.1-0.1,0.2-0.1,0.2-0.2
		c0.1,0,0.1-0.1,0.2-0.1c0.1,0,0.2-0.1,0.2-0.1c0.1,0,0.1-0.1,0.2-0.1c0.1,0,0.2-0.1,0.2-0.1c0.1,0,0.1-0.1,0.2-0.1
		c0.1,0,0.2-0.1,0.2-0.1c0.1,0,0.1-0.1,0.2-0.1c0.1,0,0.2-0.1,0.2-0.1c0.1,0,0.1-0.1,0.2-0.1c0.1,0,0.2-0.1,0.2-0.1
		c0.1,0,0.1-0.1,0.2-0.1c0.1,0,0.2-0.1,0.2-0.1c0.1,0,0.1,0,0.2-0.1c0.1,0,0.2,0,0.3-0.1c0.1,0,0.1,0,0.2-0.1c0.1,0,0.2,0,0.3-0.1
		c0.1,0,0.1,0,0.2,0c0.1,0,0.2,0,0.3,0c0.1,0,0.1,0,0.2,0c0.1,0,0.2,0,0.3,0c0.1,0,0.1,0,0.2,0c0.1,0,0.2,0,0.3,0c0.1,0,0.1,0,0.2,0
		c0.2,0,0.3,0,0.5,0c0.6,0,1.3,0.1,2.1,0.2c1,0.1,2,0.4,2.9,0.6c1.4,0.3,2.7,0.6,3.8,0.6c0,0,0,0,0,0l0,0c1.4,0,2.5-0.4,3.4-1.3
		c0.2-0.2,0.4-0.4,0.6-0.7c0.1-0.1,0.1-0.2,0.2-0.3c0,0,0-0.1,0.1-0.1c0-0.1,0.1-0.1,0.1-0.2c0,0,0-0.1,0.1-0.1
		c0-0.1,0.1-0.1,0.1-0.2c0,0,0-0.1,0-0.1c0-0.1,0-0.1,0.1-0.2c0,0,0-0.1,0-0.1c0-0.1,0-0.1,0.1-0.2c0,0,0,0,0-0.1
		c0-0.1,0.1-0.2,0.1-0.2c0,0,0,0,0-0.1c0-0.1,0-0.1,0-0.2c0,0,0-0.1,0-0.1c0,0,0-0.1,0-0.1c0,0,0-0.1,0-0.1c0,0,0-0.1,0-0.1
		c0,0,0-0.1,0-0.1c0,0,0-0.1,0-0.1c0,0,0-0.1,0-0.1c0-0.1,0-0.1,0-0.2c0,0,0,0,0-0.1c0-0.1,0-0.1,0-0.2c0,0,0-0.1,0-0.1
		c0,0,0-0.1,0-0.1c0,0,0-0.1,0-0.1c0,0,0-0.1,0-0.1c0,0,0-0.1,0-0.1c0,0,0-0.1,0-0.1c0,0,0-0.1,0-0.1c0,0,0-0.1,0-0.1
		c0,0,0-0.1,0-0.1c0,0,0-0.1-0.1-0.1c0,0,0-0.1,0-0.1c0,0,0-0.1,0-0.1c0,0,0-0.1,0-0.1c0,0,0-0.1,0-0.1c0,0,0-0.1,0-0.1
		c0,0,0,0,0-0.1c0,0,0-0.1-0.1-0.1c0,0,0,0,0-0.1c0,0,0-0.1-0.1-0.1c0,0,0,0,0,0c-0.1-0.1-0.1-0.2-0.2-0.2c0,0,0,0,0,0
		c0,0,0-0.1-0.1-0.1c0,0,0,0,0,0c0,0,0-0.1-0.1-0.1c0,0,0,0,0,0c0,0,0-0.1-0.1-0.1c0,0,0,0,0,0c0,0-0.1-0.1-0.1-0.1c0,0,0,0,0,0
		c0,0-0.1-0.1-0.1-0.1c0.1,0,0.1,0,0.2-0.1c0.1,0,0.1,0,0.2,0c0.1,0,0.1,0,0.2,0c0.1,0,0.1,0,0.2,0c0.1,0,0.1,0,0.2,0
		c0,0,0.1,0,0.1,0c0.1,0,0.1,0,0.2,0c0,0,0.1,0,0.1,0c0.1,0,0.1,0,0.2,0c0,0,0.1,0,0.1,0c0.1,0,0.2,0,0.2,0c0,0,0.7,0,0.7,0
		c0.1,0,0.2,0,0.3,0c0,0,0,0,0,0c0.1,0,0.2,0,0.3,0c0,0,0,0,0,0c0.1,0,0.2,0,0.3,0c0,0,0,0,0,0c0.1,0,0.2,0,0.3,0.1c0,0,0,0,0,0
		c1,0.3,2,0.8,2.9,1.6c0,0,0,0,0,0c0.1,0.1,0.1,0.1,0.2,0.2c0,0,0,0,0,0c0.1,0.1,0.1,0.1,0.2,0.2c0,0,0,0,0,0
		c0.1,0.1,0.1,0.1,0.2,0.2c0,0,0,0,0,0c0.1,0.1,0.1,0.1,0.2,0.2c0,0,0,0,0,0.1c0.1,0.1,0.1,0.1,0.2,0.2c0,0,0,0,0.1,0.1
		c0.1,0.1,0.1,0.1,0.2,0.2c0,0,0,0.1,0.1,0.1c0,0.1,0.1,0.1,0.1,0.2c0,0,0,0.1,0.1,0.1c0,0.1,0.1,0.1,0.1,0.2c0,0,0,0.1,0.1,0.1
		c0.1,0.1,0.1,0.2,0.2,0.3c0.1,0.2,0.2,0.4,0.3,0.6c0,0.1,0.1,0.1,0.1,0.2c0.1,0.2,0.1,0.3,0.2,0.5c0,0.1,0.1,0.2,0.1,0.3
		c0.1,0.1,0.1,0.3,0.2,0.4c0,0.1,0.1,0.2,0.1,0.3c0,0.1,0.1,0.2,0.1,0.3C115.8,124.4,112.4,127.8,109.1,131z M126,113.9
		c-0.2,0.2-0.3,0.4-0.5,0.6c-0.1,0.2-0.7,0.8-2.6,2.7c-0.7,0.7-1.5,1.5-2.4,2.4c-0.3-0.2-0.6-0.3-0.8-0.4c-0.1-0.1-0.2-0.1-0.3-0.2
		c-0.4-0.2-0.8-0.4-1.3-0.6c0-0.1-0.1-0.2-0.1-0.2c-0.1-0.1-0.1-0.2-0.2-0.3c-0.1-0.1-0.1-0.2-0.2-0.3c-0.1-0.1-0.1-0.2-0.2-0.3
		c-0.1-0.1-0.1-0.2-0.2-0.3c-0.1-0.1-0.1-0.2-0.2-0.2c-0.1-0.1-0.1-0.2-0.2-0.2c-0.1-0.1-0.1-0.2-0.2-0.2c-0.1-0.1-0.1-0.1-0.2-0.2
		c-0.1-0.1-0.1-0.1-0.2-0.2c-0.1-0.1-0.1-0.1-0.2-0.2c-0.1-0.1-0.1-0.1-0.2-0.2c-0.1-0.1-0.1-0.1-0.2-0.2c-0.1-0.1-0.1-0.1-0.2-0.2
		c-0.1-0.1-0.1-0.1-0.2-0.2c-0.1-0.1-0.1-0.1-0.2-0.2c-0.1-0.1-0.2-0.1-0.2-0.1c-0.1,0-0.1-0.1-0.2-0.1c-0.1,0-0.2-0.1-0.2-0.1
		c-0.1,0-0.1-0.1-0.2-0.1c-0.1,0-0.2-0.1-0.2-0.1c-0.1,0-0.2-0.1-0.2-0.1c-0.1,0-0.2-0.1-0.3-0.1c-0.1,0-0.2-0.1-0.2-0.1
		c-0.1,0-0.2,0-0.3-0.1c0,0,0,0,0,0c-0.1,0-0.1,0-0.2-0.1c-0.1,0-0.2,0-0.3-0.1c-0.1,0-0.1,0-0.2,0c-0.1,0-0.2,0-0.3,0
		c-0.1,0-0.1,0-0.2,0c-0.2,0-0.4,0-0.5,0c-0.1,0-0.3,0-0.4,0c0,0-0.1,0-0.1,0c-0.1,0-0.2,0-0.3,0c-0.1,0-0.1,0-0.2,0
		c-0.1,0-0.2,0-0.2,0c-0.1,0-0.1,0-0.2,0c-0.1,0-0.1,0-0.2,0c-0.1,0-0.1,0-0.2,0c-0.1,0-0.1,0-0.2,0c0,0,0,0,0,0c-0.1,0-0.1,0-0.2,0
		c-0.1,0-0.1,0-0.2,0.1c-0.1,0-0.1,0-0.2,0.1c-0.1,0-0.1,0-0.2,0.1c-0.1,0-0.1,0-0.2,0.1c0,0-0.1,0-0.1,0.1
		c-0.4-0.1-0.8-0.2-1.1-0.3c-0.4-0.1-0.7-0.2-1.1-0.3c-0.2-0.1-0.5-0.3-0.7-0.4c2.4-1.6,5.2-3.2,8-3.9h0c3.4-1.4,6.8-1.5,9.1-1.9
		c2.5-0.4,5.1-0.4,7.6-0.2C128.8,109.6,127.5,111.9,126,113.9z M130.3,107L120,96.5c-0.8-0.8-1.7-1.2-2.8-1.2c0,0,0,0,0,0
		c1,0.1,2,0.5,2.8,1.2L130.3,107C130.3,107,130.3,107,130.3,107z M130.2,106.1l-9.8-9.9c0,0-0.1-0.1-0.1-0.1c4.1,0.8,8,2.8,11.1,5.6
		C131.2,102.6,130.6,104.9,130.2,106.1z M131.9,97.7c0,1-0.1,1.9-0.3,2.9c-3.6-3.2-8-5.1-12.8-5.8c0.1,0,0.1-0.1,0.2-0.1
		c0,0,0.1,0,0.1-0.1c0.1,0,0.2-0.1,0.3-0.1c0,0,0.1,0,0.1-0.1c0.1,0,0.2-0.1,0.3-0.1c0,0,0,0,0.1,0c0.2-0.1,0.4-0.2,0.6-0.3
		c0,0,0,0,0.1,0c0.1,0,0.2-0.1,0.3-0.1c0.1,0,0.1,0,0.2-0.1c0.1,0,0.2-0.1,0.2-0.1c0.1,0,0.1,0,0.2-0.1c0.1,0,0.2,0,0.2-0.1
		c0.1,0,0.1,0,0.2-0.1c0.1,0,0.2,0,0.2-0.1c0.1,0,0.2,0,0.2-0.1c0.1,0,0.2,0,0.3-0.1c0.1,0,0.2,0,0.3-0.1c0.1,0,0.1,0,0.2,0
		c0.1,0,0.2,0,0.3,0c0.1,0,0.1,0,0.2,0c0.1,0,0.2,0,0.3,0c0.1,0,0.1,0,0.2,0c0.1,0,0.2,0,0.3,0c0.1,0,0.1,0,0.2,0c0.2,0,0.3,0,0.5,0
		c0.2,0,0.3,0,0.5,0c0.1,0,0.1,0,0.2,0c0.1,0,0.2,0,0.3,0c0.1,0,0.1,0,0.2,0c0.1,0,0.2,0,0.3,0c0.1,0,0.1,0,0.2,0c0.1,0,0.2,0,0.3,0
		c0.1,0,0.1,0,0.2,0c0.1,0,0.2,0,0.3,0c0.1,0,0.1,0,0.2,0c0.1,0,0.2,0,0.3,0.1c0.1,0,0.1,0,0.2,0.1c0.1,0,0.2,0,0.3,0.1
		c0.1,0,0.1,0,0.2,0.1c0.1,0,0.2,0.1,0.2,0.1c0.1,0,0.1,0,0.2,0.1c0.1,0,0.2,0.1,0.2,0.1c0.1,0,0.1,0.1,0.2,0.1
		c0.1,0,0.2,0.1,0.2,0.1c0.1,0,0.1,0.1,0.2,0.1c0.1,0,0.2,0.1,0.2,0.1c0.1,0,0.1,0.1,0.2,0.1c0.1,0,0.2,0.1,0.2,0.1
		c0.1,0,0.1,0.1,0.2,0.1c0.1,0,0.2,0.1,0.2,0.1c0.1,0,0.1,0.1,0.2,0.1c0.1,0,0.1,0.1,0.2,0.1c0.1,0,0.1,0.1,0.2,0.1
		c0.1,0,0.1,0.1,0.2,0.1c0.1,0,0.1,0.1,0.2,0.1c0,0,0.1,0.1,0.1,0.1c0,0.3,0,0.5,0,0.7C131.9,96.7,131.9,97.2,131.9,97.7z"/>
</g>
</svg>
