<?xml version="1.0" encoding="utf-8"?>
<!-- Generator: Adobe Illustrator 18.0.0, SVG Export Plug-In . SVG Version: 6.00 Build 0)  -->
<!DOCTYPE svg PUBLIC "-//W3C//DTD SVG 1.1//EN" "http://www.w3.org/Graphics/SVG/1.1/DTD/svg11.dtd">
<svg version="1.1" id="Capa_1" xmlns="http://www.w3.org/2000/svg" xmlns:xlink="http://www.w3.org/1999/xlink" x="0px" y="0px"
	 viewBox="0 0 200 200" enable-background="new 0 0 200 200" xml:space="preserve">
<g>
	<g>
		<g>
			<path fill="#FF8B00" d="M70.5,68.1h3.1v3.1V77l-1.5,0.9l1.5,0.9v0.1v0.3V82v0.3v4.1v3.1h-3.1h-2.6h-3.1v-3.1v-9.2v-0.3V74v-0.3
				v-2.5v-3.1h3.1H70.5z M70.5,77v-5.8h-2.6v4.3L70.5,77z M70.5,81h1l-0.1,0l-0.9-0.5L67.9,79v7.4h2.6V81z"/>
			<path fill="#FF8B00" d="M81,68.1h3.1v3.1V77l-1.5,0.9l1.5,0.9v0.1v0.3V82v0.3v7.2H81V81h1l-0.1,0L81,80.5L78.4,79v10.5h-3.1V77.2
				v-0.3V74v-0.3v-2.5v-3.1h3.1H81z M81,77v-5.8h-2.6v4.3L81,77z"/>
			<path fill="#FF8B00" d="M94.6,71.2v15.1v3.1h-3.1h-2.6h-3.1v-3.1V71.2v-3.1h3.1h2.6h3.1V71.2z M91.5,86.3V71.2h-2.6v15.1H91.5z"
				/>
			<path fill="#FF8B00" d="M105.2,71.2h-2.9v18.2h-3.1V71.2h-2.9v-3.1h2.9h3.1h2.9V71.2z"/>
			<path fill="#FF8B00" d="M115.7,68.1v10.8v0.3V82v0.3v7.2h-3.1V81h1l-0.1,0l-0.9-0.5l-2.6-1.5v10.5h-3.1V77.2v-0.3V74v-0.3v-5.7
				h3.1v7.4l2.6,1.5v-8.9H115.7z"/>
			<path fill="#FF8B00" d="M126.4,68.1v3.1v3.5h-3.1v-3.5h-2.6v4.3l3.2,1.8v3.4l-3.2-1.8v7.4h2.6v-0.1v-0.6v-0.1v-0.3v-0.3v-2.5
				v-0.3l3.1,1.8v1.7v0.7v1v2.1h-3.1h-2.6h-3.1v-3.1v-8.7h0.8l-0.8-0.5l-0.8-0.5v-0.3v-2.8v-0.3l0.8,0.4v-2.5v-3.1h3.1h2.6H126.4z"
				/>
			<path fill="#FF8B00" d="M133.8,68.1h3.1v3.1V77l-1.5,0.9l1.5,0.9v0.1v0.3V82v0.3v7.2h-3.1V81h1l-0.1,0l-0.9-0.5l-2.6-1.5v10.5
				h-3.1V77.2v-0.3V74v-0.3v-2.5v-3.1h3.1H133.8z M133.8,77v-5.8h-2.6v4.3L133.8,77z"/>
		</g>
		<path fill="#FF8B00" d="M78.8,95.2v17.1v0.5v4.5v0.4v11.4h-5v-13.4h1.5l-0.1,0l-1.4-0.8l-4.1-2.4v16.7h-5v-19.6v-0.5v-4.5v-0.4v-9
			h5V107l4.1,2.4V95.2H78.8z"/>
		<path fill="#FF8B00" d="M132.4,95.2l4.5,2.6v0.3v0.4v4.8v0.7v3.4v9.7v3.4v0.7v4.8v0.4v0.2l-4.5,2.6h0h-4.5h-2.2h-2.7v-5v-24v-5
			h2.7h2.2H132.4L132.4,95.2z M132,117v-9.7V101l-1.5-0.9h-2.6v24h2.6l1.5-0.9V117z"/>
		<path fill="#FF8B00" d="M95.9,95.2h-2.8h0h-5.4h0h-2.8l-3.7,4v16.9v5l5.6,8.1h2.5h1.9h2.5l5.6-8.1v-5V99.2L95.9,95.2z M92.7,125.7
			h-0.9v-0.9h-2.6v0.9h-0.9l-1.7-2.4l2.7-1.8h2.3l2.9,1.7L92.7,125.7z M95.7,121.5l-3.6-2.1h-3.5l-3.4,2.1l-1-1.5v-19.7l2.1-2.3h1.5
			h5.4h1.5l2.1,2.3V120L95.7,121.5z"/>
		<g>
			<path fill="#FF8B00" d="M116.8,95.2l-5.5-3.3l-5.5,3.3l-3.7,4v16.8v5l5.6,8h2.5h1.9h2.5l5.6-8v-5V99.3L116.8,95.2z M113,126.7
				h-3.4L105,120v-19.7h12.6V120L113,126.7z"/>
		</g>
	</g>
</g>
</svg>
