<?xml version="1.0" encoding="utf-8"?>
<!-- Generator: Adobe Illustrator 18.0.0, SVG Export Plug-In . SVG Version: 6.00 Build 0)  -->
<!DOCTYPE svg PUBLIC "-//W3C//DTD SVG 1.1//EN" "http://www.w3.org/Graphics/SVG/1.1/DTD/svg11.dtd">
<svg version="1.1" id="Capa_1" xmlns="http://www.w3.org/2000/svg" xmlns:xlink="http://www.w3.org/1999/xlink" x="0px" y="0px"
	 viewBox="0 0 800 800" enable-background="new 0 0 800 800" xml:space="preserve">
<g>
	<g>
		<g>
			<path fill="#FF8B00" d="M461.2,322c-3.2,0-6.4,0-10,0.4c-18,1.6-33.6,7.2-43.2,11.6c-7.6,3.6-12.8,6.8-15.2,8.4
				c-2.4-1.6-7.6-4.8-15.2-8.4c-9.6-4.4-24.8-10-43.2-11.6c-3.6-0.4-6.8-0.4-10-0.4c-18.4,0-24.4,5.2-26.4,9.6
				c-1.6,3.6-0.4,7.6,2.8,10.4c6.4,6,42.4,36,44,37.2c0.4,0.4,0.8,0.4,1.6,0.8l5.6,0.4c-2.8,8-2.4,15.2,1.2,21.6
				c8.4,14.4,30.4,17.2,31.2,17.6h0.4c0.8,0,1.2-0.4,2-0.8l6-5.2l6,5.2c0.4,0.4,1.2,0.8,2,0.8h0.4c0.8,0,22.8-3.2,31.2-17.6
				c3.6-6,4-13.2,1.2-21.6l5.6-0.4c0.4,0,1.2-0.4,1.6-0.8c1.6-1.2,37.6-31.2,44-37.2c3.2-3.2,4.4-7.2,2.8-10.4
				C485.6,327.2,479.6,322,461.2,322z M355.6,375.2l-6.8-0.8c-5.2-4-37.6-30.8-43.2-36.4c-0.8-0.8-2.4-2.4-1.6-4.4
				c1.2-2.8,7.2-6,21.2-6c2.8,0,6,0,9.6,0.4c26.4,2,46.8,13.6,54,18L356,374.8L355.6,375.2z M389.6,408.8l-5.2,4.8
				c-4.4-0.8-20-4.4-26-14.4c-3.2-5.2-3.2-12,0-19.6l13.6-12l18.4-16L389.6,408.8z M427.6,399.2c-6,10.4-21.6,13.6-26,14.4l-5.2-4.8
				l-0.4-57.2l31.6,28C430.8,387.2,430.8,393.6,427.6,399.2z M480.8,338c-5.6,5.6-38,32.4-43.2,36.4l-6.8,0.8L397.6,346
				c7.2-4.4,27.6-16,54-18c3.2-0.4,6.4-0.4,9.6-0.4c13.6,0,20,3.2,21.2,6C483.2,335.6,481.6,337.2,480.8,338z"/>
		</g>
	</g>
	<g>
		<path fill="#FF8B00" d="M289.6,433.6V478h-8.8v-25.6c0-0.4,0-1.2,0-2s0-1.2,0-2l-11.6,22.8c-0.4,0.8-0.8,1.2-1.6,1.6
			c-0.8,0.4-1.2,0.4-2,0.4H264c-0.8,0-1.6,0-2-0.4c-0.8-0.4-1.2-0.8-1.6-1.6l-11.6-22.8c0,0.8,0,1.6,0,2c0,0.8,0,1.2,0,2V478h-9.2
			v-44.4h8c0.4,0,0.8,0,1.2,0s0.8,0,0.8,0c0.4,0,0.4,0.4,0.8,0.4c0.4,0.4,0.4,0.4,0.8,0.8l11.6,22.4c0.4,0.8,0.8,1.6,1.2,2.4
			c0.4,0.8,0.8,1.6,1.2,2.4c0.4-0.8,0.8-1.6,1.2-2.8c0.4-0.8,0.8-1.6,1.2-2.4l11.2-22.4c0.4-0.4,0.4-0.8,0.8-0.8
			c0.4-0.4,0.4-0.4,0.8-0.4s0.4,0,0.8,0s0.8,0,1.2,0h7.2V433.6z"/>
		<path fill="#FF8B00" d="M342,455.6c0,3.2-0.4,6-1.6,8.8s-2.8,5.2-4.8,7.2s-4.4,3.6-7.2,4.8c-2.8,1.2-6,1.6-9.6,1.6
			s-6.8-0.4-9.6-1.6c-2.8-1.2-5.2-2.8-7.2-4.8s-3.6-4.4-4.8-7.2c-1.2-2.8-1.6-5.6-1.6-8.8c0-3.2,0.4-6,1.6-8.8s2.8-5.2,4.8-7.2
			s4.4-3.6,7.2-4.8c2.8-1.2,6-1.6,9.6-1.6s6.4,0.4,9.6,1.6c2.8,1.2,5.2,2.8,7.2,4.8s3.6,4.4,4.8,7.2
			C341.2,449.6,342,452.4,342,455.6z M331.2,455.6c0-2-0.4-4-0.8-6c-0.4-1.6-1.2-3.2-2.4-4.4c-1.2-1.2-2.4-2-4-2.8s-3.2-0.8-5.2-0.8
			s-3.6,0.4-5.2,0.8c-1.6,0.8-2.8,1.6-4,2.8c-1.2,1.2-2,2.8-2.4,4.4s-0.8,3.6-0.8,6s0.4,4,0.8,6c0.4,1.6,1.2,3.2,2.4,4.4
			c1.2,1.2,2.4,2,4,2.8s3.2,0.8,5.2,0.8s3.6-0.4,5.2-0.8c1.6-0.8,2.8-1.6,4-2.8c1.2-1.2,2-2.8,2.4-4.4
			C331.2,460,331.2,458,331.2,455.6z"/>
		<path fill="#FF8B00" d="M386.8,433.6V478h-5.2c-0.8,0-1.6,0-2-0.4s-1.2-0.8-1.6-1.2l-21.2-26.8c0,0.8,0,1.6,0,2.4s0,1.6,0,2v23.6
			h-9.2v-44h5.6c0.4,0,0.8,0,1.2,0c0.4,0,0.4,0,0.8,0.4c0.4,0,0.4,0.4,0.8,0.4c0.4,0.4,0.4,0.4,0.8,0.8L378,462c0-0.8,0-1.6-0.4-2.4
			c0-0.8,0-1.6,0-2.4v-23.6H386.8z"/>
		<path fill="#FF8B00" d="M435.2,478h-8c-0.8,0-1.6-0.4-2-0.8s-0.8-0.8-1.2-1.6l-2.8-7.6h-16.8l-2.8,7.6c-0.4,0.4-0.8,1.2-1.2,1.6
			c-0.4,0.4-1.2,0.8-2,0.8h-8l17.2-44.4H418L435.2,478z M418.8,460.8l-4-12c-0.4-0.8-0.8-1.6-0.8-2.8c-0.4-1.2-0.8-2-1.2-3.2
			c-0.4,1.2-0.8,2.4-0.8,3.6c-0.4,1.2-0.8,2-0.8,2.8l-4,12h11.6V460.8z"/>
		<path fill="#FF8B00" d="M474.8,478h-9.2c-1.6,0-2.8-0.8-3.6-2l-7.2-12.8c-0.4-0.4-0.8-0.8-1.2-1.2c-0.4-0.4-1.2-0.4-2-0.4h-2.8
			V478h-10.4v-44.4h14.4c3.2,0,6,0.4,8.4,0.8c2.4,0.8,4,1.6,5.6,2.8c1.6,1.2,2.4,2.4,3.2,4c0.8,1.6,0.8,3.2,0.8,5.2
			c0,1.6,0,2.8-0.4,4s-0.8,2.4-1.6,3.6c-0.8,1.2-1.6,2-2.8,2.8c-1.2,0.8-2.4,1.6-4,2c0.8,0.4,1.2,0.8,2,1.2c0.4,0.4,1.2,1.2,1.6,2
			L474.8,478z M452.8,454.4c1.6,0,2.4,0,3.6-0.4c0.8-0.4,1.6-0.8,2.4-1.6c0.8-0.8,1.2-1.2,1.2-2.4c0.4-0.8,0.4-1.6,0.4-2.8
			c0-2-0.8-3.6-2-4.4c-1.2-1.2-3.2-1.6-6-1.6h-4v13.2L452.8,454.4L452.8,454.4z"/>
		<path fill="#FF8B00" d="M507.6,466.4c0.4,0,0.4,0,0.8,0s0.4,0.4,0.8,0.4l4,4.4c-1.6,2.4-4,4-6.8,5.2s-6,1.6-9.6,1.6
			c-3.2,0-6.4-0.4-9.2-1.6c-2.8-1.2-4.8-2.8-6.8-4.8s-3.2-4.4-4.4-7.2c-0.8-2.8-1.6-5.6-1.6-9.2c0-3.2,0.4-6.4,1.6-9.2
			c1.2-2.8,2.4-5.2,4.4-7.2s4.4-3.6,7.2-4.8c2.8-1.2,5.6-1.6,8.8-1.6c1.6,0,3.2,0,4.8,0.4c1.6,0.4,2.8,0.8,4,1.2
			c1.2,0.4,2.4,1.2,3.6,2s2,1.6,2.8,2.4l-3.6,4.8c-0.4,0.4-0.4,0.4-0.8,0.8s-0.8,0.4-1.2,0.4c-0.4,0-0.8,0-1.2-0.4
			c-0.4,0-0.8-0.4-1.2-0.4c-0.4-0.4-0.8-0.4-1.2-0.8c-0.4-0.4-0.8-0.4-1.6-0.8c-0.4-0.4-1.2-0.4-2-0.4s-1.6-0.4-2.8-0.4
			c-1.6,0-3.2,0.4-4.8,0.8c-1.6,0.8-2.8,1.6-3.6,2.8c-1.2,1.2-2,2.8-2.4,4.4s-0.8,3.6-0.8,6s0.4,4.4,0.8,6c0.8,1.6,1.6,3.2,2.4,4.4
			c1.2,1.2,2.4,2,3.6,2.8c1.6,0.8,2.8,0.8,4.4,0.8c0.8,0,1.6,0,2.4,0s1.6-0.4,2-0.4c0.8-0.4,1.2-0.4,2-0.8c0.4-0.4,1.2-0.8,1.6-1.2
			c0.4-0.4,0.4-0.4,0.8-0.4C507.2,466.4,507.6,466.4,507.6,466.4z"/>
		<path fill="#FF8B00" d="M560.4,455.6c0,3.2-0.4,6-1.6,8.8c-1.2,2.8-2.8,5.2-4.8,7.2s-4.4,3.6-7.2,4.8c-2.8,1.2-6,1.6-9.6,1.6
			s-6.8-0.4-9.6-1.6s-5.2-2.8-7.2-4.8s-3.6-4.4-4.8-7.2c-1.2-2.8-1.6-5.6-1.6-8.8c0-3.2,0.4-6,1.6-8.8s2.8-5.2,4.8-7.2
			s4.4-3.6,7.2-4.8c2.8-1.2,6-1.6,9.6-1.6s6.4,0.4,9.6,1.6c2.8,1.2,5.2,2.8,7.2,4.8s3.6,4.4,4.8,7.2
			C559.6,449.6,560.4,452.4,560.4,455.6z M549.6,455.6c0-2-0.4-4-0.8-6c-0.4-1.6-1.2-3.2-2.4-4.4c-1.2-1.2-2.4-2-4-2.8
			s-3.2-0.8-5.2-0.8s-3.6,0.4-5.2,0.8c-1.6,0.8-2.8,1.6-4,2.8c-1.2,1.2-2,2.8-2.4,4.4s-0.8,3.6-0.8,6s0.4,4,0.8,6
			c0.4,1.6,1.2,3.2,2.4,4.4c1.2,1.2,2.4,2,4,2.8s3.2,0.8,5.2,0.8s3.6-0.4,5.2-0.8c1.6-0.8,2.8-1.6,4-2.8c1.2-1.2,2-2.8,2.4-4.4
			C549.6,460,549.6,458,549.6,455.6z"/>
	</g>
</g>
</svg>
