<?xml version="1.0" encoding="utf-8"?>
<!-- Generator: Adobe Illustrator 18.0.0, SVG Export Plug-In . SVG Version: 6.00 Build 0)  -->
<!DOCTYPE svg PUBLIC "-//W3C//DTD SVG 1.1//EN" "http://www.w3.org/Graphics/SVG/1.1/DTD/svg11.dtd">
<svg version="1.1" id="Capa_1" xmlns="http://www.w3.org/2000/svg" xmlns:xlink="http://www.w3.org/1999/xlink" x="0px" y="0px"
	 viewBox="0 0 200 200" enable-background="new 0 0 200 200" xml:space="preserve">
<g>
	<g>
		<path fill="#FF8B00" d="M77.3,88.9c3.6,0,6.6-3,6.6-6.6c0-3.6-3-6.6-6.6-6.6c-3.6,0-6.6,3-6.6,6.6C70.7,85.9,73.7,88.9,77.3,88.9z
			 M77.3,77.6c2.6,0,4.7,2.1,4.7,4.7c0,2.6-2.1,4.7-4.7,4.7c-2.6,0-4.7-2.1-4.7-4.7C72.6,79.7,74.7,77.6,77.3,77.6z"/>
		<path fill="#FF8B00" d="M77.3,93.9c6.4,0,11.6-5.2,11.6-11.6c0-6.4-5.2-11.6-11.6-11.6c-6.4,0-11.6,5.2-11.6,11.6
			C65.7,88.7,70.9,93.9,77.3,93.9z M77.3,72.6c5.4,0,9.7,4.4,9.7,9.7c0,5.4-4.4,9.7-9.7,9.7s-9.7-4.4-9.7-9.7
			C67.6,76.9,72,72.6,77.3,72.6z"/>
		<path fill="#FF8B00" d="M128.5,77c3.3,0,6.3,0.8,9.1,2.1l1.1-1.6c-3.1-1.6-6.5-2.5-10.2-2.5c-1.1,0-2.2,0.1-3.3,0.2
			c-0.6,0.1-1.3,0.2-1.9,0.4c0.1-0.5,0.2-1,0.4-1.5c0.6-2.1,1.6-4.1,2.8-5.9l-1.3-1.5c-1.9,2.6-3.3,5.7-3.9,9.1
			c-5.3-3.4-11.6-5.4-18.4-5.4c-0.1,0-0.2,0-0.3,0l0.7,1.9c5.9,0.1,11.5,1.8,16.2,4.6c-5,2.2-9.1,6.2-11.4,11.2l1.4,1.7
			c2.1-5.2,6.3-9.4,11.5-11.5c0,0.2,0,0.3,0,0.5c-1.1,2.6-1.7,5.5-1.7,8.6c0,2.9,0.6,5.7,1.6,8.2l1.5-1.5c-0.7-2.1-1.1-4.4-1.1-6.7
			c0-1.1,0.1-2.1,0.2-3.1c0.3-1.8,0.8-3.4,1.5-5c0,0,0,0,0,0c7.3,5.9,12,14.9,12,25c0,4.4-0.9,8.6-2.5,12.4c0,0,0,0,0,0
			c0.1-0.6,0.1-1.3,0.1-1.9c0-2.5-0.4-4.9-1.1-7.2c-0.1-0.3-0.2-0.6-0.3-0.9c-0.4-1.1-0.9-2.2-1.5-3.2c-0.6-1.1-1.3-2.2-2.1-3.2
			c0.1,0,0.2-0.1,0.4-0.1c1.1-0.4,2.2-0.6,3.5-0.6c0.5,0,1.1,0,1.6,0.1l-0.4-2c-0.4,0-0.8-0.1-1.2-0.1c-1.7,0-3.3,0.4-4.8,1
			c-0.2-0.9-0.4-1.8-0.4-2.8c0-2,0.6-3.8,1.5-5.4l-1.3-1.5c-1.4,2-2.2,4.4-2.2,6.9c0,0.4,0,0.7,0,1c0,0.3,0.1,0.6,0.1,0.8
			c-1.1-0.5-2.2-0.9-3.5-1c-0.5-0.1-1.1-0.1-1.6-0.1c-2.6,0-5,0.8-7,2.2l1,1.6c1.7-1.2,3.7-1.9,6-1.9c1.8,0,3.6,0.5,5.1,1.4
			c-2.8,2-4.7,5-5.1,8.6c-3.1-1.2-6.2-2.1-9-2.9c-6.4-1.8-11.9-3.4-14.6-7.4c-1-1.5-1.3-3-1-4.4c0.6-2.8,3.7-4.6,3.7-4.6l2.2-1.2
			l-2.5-0.5c-5.4-1.1-7.1,1-8.9,3.2c-1.5,1.9-3.3,4-7.8,5c-4.4,1-8.5,0.3-12.1-2.2c-2.7-1.8-4.2-4-4.2-4l-1.6,1
			c0.1,0.1,1.4,2.2,4.1,4.1l-0.9-0.3c-0.3,1-0.5,2-0.7,2.9c-0.1,0.6-0.2,1.3-0.3,1.9c0.1,0,0.2,0,0.2,0c0.5,0,1,0.1,1.6,0.2
			c2.9,0.6,7,2.5,12.4,7.5c8.3,7.8,15.6,11,20.3,11c1.1,0,2.1-0.2,2.9-0.5c1.7-0.7,2.6-2.2,2.6-4.1c0-1.5-0.7-2.4-1.2-2.8
			c3.8-0.7,9.4-1,14.9,1.5c3.8,1.7,7,4.6,9.6,8.5c-2-0.5-4-0.9-6-1.3c-6.1-1-11.8-0.9-16.9,0.2c-3.5,0.8-6.2,1.9-8.3,3
			c-0.6-0.5-1.3-1-1.9-1.5c-13.6-10.9-22.5-13.6-28.1-13.6c-0.3-1.7-0.4-3.4-0.3-5.1c-0.6-0.1-1.3-0.1-1.9,0.1
			c0,1.8,0.1,3.6,0.3,5.2c0.1,0.6,0.2,1.3,0.4,1.9c0.6-0.1,1.2-0.1,1.9-0.1c5.2,0.1,13.6,2.8,26.6,13.2c0.4,0.4,0.9,0.7,1.3,1
			c0.6,0.4,1.1,0.8,1.7,1.2c5.6,4,11.5,6.5,17.6,7.7c0.3,0.1,0.6,0.1,1,0.2c-8.3,0.2-16.2-1.4-22.8-4.7c-6.8-3.4-12.8-4.8-17.7-4.1
			c0.7,0.8,1.1,1.2,1.1,1.2l0,0c0,0-0.4-0.4-1.1-1.2c-1.2-1.4-3.2-3.9-4.9-7.3c-0.4-0.8-0.8-1.7-1.2-2.5c-0.6,0.3-1.1,0.6-1.7,1
			c0.4,0.9,0.7,1.7,1.1,2.4c1.5,3,3.2,5.3,4.5,6.9c0.6,0.7,1.1,1.3,1.4,1.6c0.4-0.1,0.8-0.1,1.2-0.2l0,0c4.5-0.5,10.1,0.8,16.4,3.9
			c6.4,3.2,13.8,4.9,21.5,5c1.4-0.5,2.7-1.1,4-1.8c0.2-0.2,0.5-0.2,0.7-0.4c0,0,0,0,0,0c-0.2,0.1-0.5,0.2-0.7,0.4
			c0.1,0,0.2-0.1,0.2-0.1c-0.1,0-0.2,0.1-0.2,0.1c-1.3,0.7-2.6,1.3-4,1.8c-3.4,1.2-7,1.9-10.7,1.9c-8,0-15.2-2.9-20.8-7.7l-1.8,0.9
			c6,5.4,13.9,8.7,22.7,8.7c5.7,0,11.1-1.4,15.8-3.9c0.8-0.4,1.6-0.9,2.3-1.4c0.6-0.4,1.1-0.7,1.6-1.1c0.4-0.3,0.7-0.5,1.1-0.8
			c2.6-2.1,5-4.5,6.9-7.3c0.2-0.2,0.3-0.5,0.5-0.7c0.2-0.4,0.5-0.7,0.7-1.1c0.1-0.2,0.2-0.4,0.3-0.6c0.2-0.4,0.5-0.8,0.7-1.2
			c0.3-0.6,0.6-1.2,0.9-1.9c1.9-4.2,3-9,3-13.9c0-10.8-5.1-20.5-13.1-26.7c0,0,0,0,0,0C125.3,77.2,126.8,77,128.5,77z M98.7,109.8
			l0.6,1.8c0.6-0.2,2.7-0.6,3.6,0.1c0.1,0.1,0.5,0.4,0.5,1.4c0,1.2-0.5,1.9-1.5,2.4c-3.5,1.5-11.9-1.4-21.1-10.1
			c-5.5-5.2-10-7.3-13.4-8c0.2-0.8,0.4-1.6,0.6-2.4c2.8,1.9,7.4,3.7,13.4,2.3c5.2-1.2,7.3-3.7,8.9-5.7c1.4-1.7,2.4-2.9,4.9-2.8
			c-1.1,1-2.2,2.4-2.7,4.3c-0.5,1.9,0,3.9,1.3,5.9c3.1,4.5,8.9,6.2,15.7,8.2c1,0.3,2,0.6,3,0.9C105.2,107.2,99.1,109.7,98.7,109.8z
			 M117.6,132.6c-0.6,0-1.2-0.1-1.7-0.2c0,0,0,0,0,0C116.5,132.4,117.1,132.6,117.6,132.6z M120.5,130.9c-7.3-0.3-14.4-2.8-21.3-7.5
			c1.9-0.9,4.2-1.8,7.1-2.4c5.2-1.1,12.8-1.5,22.9,1.3C126.9,125.8,123.9,128.7,120.5,130.9z M121,108.9c0.2-3.2,1.9-6,4.5-7.7
			c0.1-0.1,0.2-0.1,0.2-0.2c0.9,1.1,1.7,2.3,2.3,3.5c0.6,1.1,1,2.2,1.4,3.3c0.6,1.7,0.9,3.5,1,5.3c0,0.5,0.1,1,0.1,1.5
			c0,0.1,0,0.1,0,0.2c-3.1-2.7-6.4-4.5-9.9-6L121,108.9z M124.6,112.9c2,1.2,4,2.6,5.7,4.3c-0.1,0.6-0.2,1.1-0.3,1.7
			C128.5,116.6,126.6,114.6,124.6,112.9z"/>
		<path fill="#FF8B00" d="M93.6,75l0.4,0.3l0.5-0.1c0,0,4.2-1.1,7.2,1.9l1.4-1.3c-3.1-3.1-7.1-2.8-8.5-2.5c-3.6-2.9-7.8-2-7.9-1.9
			l0.4,1.8C87.1,73.2,90.7,72.4,93.6,75z"/>
		<path fill="#FF8B00" d="M93.9,78l0,1.9c0,0,3.7,0.1,5.9,3.4l0.3,0.4l0.5,0c0,0,4.3,0,6.5,3.6l1.6-1c-2.2-3.8-6.2-4.4-7.6-4.5
			C98.3,78.1,94,78,93.9,78z"/>
	</g>
</g>
</svg>
