<?xml version="1.0" encoding="utf-8"?>
<!-- Generator: Adobe Illustrator 18.0.0, SVG Export Plug-In . SVG Version: 6.00 Build 0)  -->
<!DOCTYPE svg PUBLIC "-//W3C//DTD SVG 1.1//EN" "http://www.w3.org/Graphics/SVG/1.1/DTD/svg11.dtd">
<svg version="1.1" id="Capa_1" xmlns="http://www.w3.org/2000/svg" xmlns:xlink="http://www.w3.org/1999/xlink" x="0px" y="0px"
	 viewBox="0 0 200 200" enable-background="new 0 0 200 200" xml:space="preserve">
<g>
	<g>
		<g>
			<path fill="#FF8B00" d="M114.1,79.1c-0.8,0-1.6,0-2.5,0.1c-4.5,0.4-8.4,1.8-10.8,2.9c-1.9,0.9-3.2,1.7-3.8,2.1
				c-0.6-0.4-1.9-1.2-3.8-2.1c-2.4-1.1-6.2-2.5-10.8-2.9c-0.9-0.1-1.7-0.1-2.5-0.1c-4.6,0-6.1,1.3-6.6,2.4c-0.4,0.9-0.1,1.9,0.7,2.6
				c1.6,1.5,10.6,9,11,9.3c0.1,0.1,0.2,0.1,0.4,0.2l1.4,0.1c-0.7,2-0.6,3.8,0.3,5.4c2.1,3.6,7.6,4.3,7.8,4.4c0,0,0.1,0,0.1,0
				c0.2,0,0.3-0.1,0.5-0.2l1.5-1.3l1.5,1.3c0.1,0.1,0.3,0.2,0.5,0.2c0,0,0.1,0,0.1,0c0.2,0,5.7-0.8,7.8-4.4c0.9-1.5,1-3.3,0.3-5.4
				l1.4-0.1c0.1,0,0.3-0.1,0.4-0.2c0.4-0.3,9.4-7.8,11-9.3c0.8-0.8,1.1-1.8,0.7-2.6C120.2,80.4,118.7,79.1,114.1,79.1z M87.7,92.4
				l-1.7-0.2c-1.3-1-9.4-7.7-10.8-9.1c-0.2-0.2-0.6-0.6-0.4-1.1c0.3-0.7,1.8-1.5,5.3-1.5c0.7,0,1.5,0,2.4,0.1
				c6.6,0.5,11.7,3.4,13.5,4.5l-8.2,7.2L87.7,92.4z M96.2,100.8l-1.3,1.2c-1.1-0.2-5-1.1-6.5-3.6c-0.8-1.3-0.8-3,0-4.9l3.4-3l4.6-4
				L96.2,100.8z M105.7,98.4c-1.5,2.6-5.4,3.4-6.5,3.6l-1.3-1.2l-0.1-14.3l7.9,7C106.5,95.4,106.5,97,105.7,98.4z M119,83.1
				c-1.4,1.4-9.5,8.1-10.8,9.1l-1.7,0.2l-8.3-7.3c1.8-1.1,6.9-4,13.5-4.5c0.8-0.1,1.6-0.1,2.4-0.1c3.4,0,5,0.8,5.3,1.5
				C119.6,82.5,119.2,82.9,119,83.1z"/>
		</g>
	</g>
	<g>
		<path fill="#FF8B00" d="M71.2,107v11.1H69v-6.4c0-0.1,0-0.3,0-0.5c0-0.2,0-0.3,0-0.5l-2.9,5.7c-0.1,0.2-0.2,0.3-0.4,0.4
			c-0.2,0.1-0.3,0.1-0.5,0.1h-0.4c-0.2,0-0.4,0-0.5-0.1c-0.2-0.1-0.3-0.2-0.4-0.4l-2.9-5.7c0,0.2,0,0.4,0,0.5c0,0.2,0,0.3,0,0.5v6.4
			h-2.3V107h2c0.1,0,0.2,0,0.3,0c0.1,0,0.2,0,0.2,0c0.1,0,0.1,0.1,0.2,0.1c0.1,0.1,0.1,0.1,0.2,0.2l2.9,5.6c0.1,0.2,0.2,0.4,0.3,0.6
			c0.1,0.2,0.2,0.4,0.3,0.6c0.1-0.2,0.2-0.4,0.3-0.7c0.1-0.2,0.2-0.4,0.3-0.6l2.8-5.6c0.1-0.1,0.1-0.2,0.2-0.2
			c0.1-0.1,0.1-0.1,0.2-0.1c0.1,0,0.1,0,0.2,0c0.1,0,0.2,0,0.3,0H71.2z"/>
		<path fill="#FF8B00" d="M84.3,112.5c0,0.8-0.1,1.5-0.4,2.2c-0.3,0.7-0.7,1.3-1.2,1.8c-0.5,0.5-1.1,0.9-1.8,1.2
			c-0.7,0.3-1.5,0.4-2.4,0.4c-0.9,0-1.7-0.1-2.4-0.4c-0.7-0.3-1.3-0.7-1.8-1.2c-0.5-0.5-0.9-1.1-1.2-1.8c-0.3-0.7-0.4-1.4-0.4-2.2
			c0-0.8,0.1-1.5,0.4-2.2c0.3-0.7,0.7-1.3,1.2-1.8c0.5-0.5,1.1-0.9,1.8-1.2c0.7-0.3,1.5-0.4,2.4-0.4c0.9,0,1.6,0.1,2.4,0.4
			c0.7,0.3,1.3,0.7,1.8,1.2c0.5,0.5,0.9,1.1,1.2,1.8C84.1,111,84.3,111.7,84.3,112.5z M81.6,112.5c0-0.5-0.1-1-0.2-1.5
			c-0.1-0.4-0.3-0.8-0.6-1.1c-0.3-0.3-0.6-0.5-1-0.7c-0.4-0.2-0.8-0.2-1.3-0.2c-0.5,0-0.9,0.1-1.3,0.2c-0.4,0.2-0.7,0.4-1,0.7
			c-0.3,0.3-0.5,0.7-0.6,1.1c-0.1,0.4-0.2,0.9-0.2,1.5c0,0.6,0.1,1,0.2,1.5c0.1,0.4,0.3,0.8,0.6,1.1c0.3,0.3,0.6,0.5,1,0.7
			c0.4,0.2,0.8,0.2,1.3,0.2c0.5,0,0.9-0.1,1.3-0.2c0.4-0.2,0.7-0.4,1-0.7c0.3-0.3,0.5-0.7,0.6-1.1C81.6,113.6,81.6,113.1,81.6,112.5
			z"/>
		<path fill="#FF8B00" d="M95.5,107v11.1h-1.3c-0.2,0-0.4,0-0.5-0.1c-0.1-0.1-0.3-0.2-0.4-0.3L88,111c0,0.2,0,0.4,0,0.6
			c0,0.2,0,0.4,0,0.5v5.9h-2.3V107h1.4c0.1,0,0.2,0,0.3,0c0.1,0,0.1,0,0.2,0.1c0.1,0,0.1,0.1,0.2,0.1c0.1,0.1,0.1,0.1,0.2,0.2
			l5.3,6.7c0-0.2,0-0.4-0.1-0.6c0-0.2,0-0.4,0-0.6V107H95.5z"/>
		<path fill="#FF8B00" d="M107.6,118.1h-2c-0.2,0-0.4-0.1-0.5-0.2c-0.1-0.1-0.2-0.2-0.3-0.4l-0.7-1.9h-4.2l-0.7,1.9
			c-0.1,0.1-0.2,0.3-0.3,0.4c-0.1,0.1-0.3,0.2-0.5,0.2h-2l4.3-11.1h2.6L107.6,118.1z M103.5,113.8l-1-3c-0.1-0.2-0.2-0.4-0.2-0.7
			c-0.1-0.3-0.2-0.5-0.3-0.8c-0.1,0.3-0.2,0.6-0.2,0.9c-0.1,0.3-0.2,0.5-0.2,0.7l-1,3H103.5z"/>
		<path fill="#FF8B00" d="M117.5,118.1h-2.3c-0.4,0-0.7-0.2-0.9-0.5l-1.8-3.2c-0.1-0.1-0.2-0.2-0.3-0.3c-0.1-0.1-0.3-0.1-0.5-0.1
			H111v4.1h-2.6V107h3.6c0.8,0,1.5,0.1,2.1,0.2c0.6,0.2,1,0.4,1.4,0.7c0.4,0.3,0.6,0.6,0.8,1c0.2,0.4,0.2,0.8,0.2,1.3
			c0,0.4,0,0.7-0.1,1c-0.1,0.3-0.2,0.6-0.4,0.9c-0.2,0.3-0.4,0.5-0.7,0.7c-0.3,0.2-0.6,0.4-1,0.5c0.2,0.1,0.3,0.2,0.5,0.3
			c0.1,0.1,0.3,0.3,0.4,0.5L117.5,118.1z M112,112.2c0.4,0,0.6,0,0.9-0.1c0.2-0.1,0.4-0.2,0.6-0.4c0.2-0.2,0.3-0.3,0.3-0.6
			c0.1-0.2,0.1-0.4,0.1-0.7c0-0.5-0.2-0.9-0.5-1.1c-0.3-0.3-0.8-0.4-1.5-0.4h-1v3.3H112z"/>
		<path fill="#FF8B00" d="M125.7,115.2c0.1,0,0.1,0,0.2,0c0.1,0,0.1,0.1,0.2,0.1l1,1.1c-0.4,0.6-1,1-1.7,1.3
			c-0.7,0.3-1.5,0.4-2.4,0.4c-0.8,0-1.6-0.1-2.3-0.4c-0.7-0.3-1.2-0.7-1.7-1.2c-0.5-0.5-0.8-1.1-1.1-1.8c-0.2-0.7-0.4-1.4-0.4-2.3
			c0-0.8,0.1-1.6,0.4-2.3c0.3-0.7,0.6-1.3,1.1-1.8c0.5-0.5,1.1-0.9,1.8-1.2c0.7-0.3,1.4-0.4,2.2-0.4c0.4,0,0.8,0,1.2,0.1
			c0.4,0.1,0.7,0.2,1,0.3c0.3,0.1,0.6,0.3,0.9,0.5c0.3,0.2,0.5,0.4,0.7,0.6l-0.9,1.2c-0.1,0.1-0.1,0.1-0.2,0.2
			c-0.1,0.1-0.2,0.1-0.3,0.1c-0.1,0-0.2,0-0.3-0.1c-0.1,0-0.2-0.1-0.3-0.1c-0.1-0.1-0.2-0.1-0.3-0.2c-0.1-0.1-0.2-0.1-0.4-0.2
			c-0.1-0.1-0.3-0.1-0.5-0.1c-0.2,0-0.4-0.1-0.7-0.1c-0.4,0-0.8,0.1-1.2,0.2c-0.4,0.2-0.7,0.4-0.9,0.7c-0.3,0.3-0.5,0.7-0.6,1.1
			c-0.1,0.4-0.2,0.9-0.2,1.5c0,0.6,0.1,1.1,0.2,1.5c0.2,0.4,0.4,0.8,0.6,1.1c0.3,0.3,0.6,0.5,0.9,0.7c0.4,0.2,0.7,0.2,1.1,0.2
			c0.2,0,0.4,0,0.6,0c0.2,0,0.4-0.1,0.5-0.1c0.2-0.1,0.3-0.1,0.5-0.2c0.1-0.1,0.3-0.2,0.4-0.3c0.1-0.1,0.1-0.1,0.2-0.1
			C125.6,115.2,125.7,115.2,125.7,115.2z"/>
		<path fill="#FF8B00" d="M138.9,112.5c0,0.8-0.1,1.5-0.4,2.2c-0.3,0.7-0.7,1.3-1.2,1.8c-0.5,0.5-1.1,0.9-1.8,1.2
			c-0.7,0.3-1.5,0.4-2.4,0.4c-0.9,0-1.7-0.1-2.4-0.4c-0.7-0.3-1.3-0.7-1.8-1.2c-0.5-0.5-0.9-1.1-1.2-1.8c-0.3-0.7-0.4-1.4-0.4-2.2
			c0-0.8,0.1-1.5,0.4-2.2c0.3-0.7,0.7-1.3,1.2-1.8c0.5-0.5,1.1-0.9,1.8-1.2c0.7-0.3,1.5-0.4,2.4-0.4c0.9,0,1.6,0.1,2.4,0.4
			c0.7,0.3,1.3,0.7,1.8,1.2c0.5,0.5,0.9,1.1,1.2,1.8C138.7,111,138.9,111.7,138.9,112.5z M136.2,112.5c0-0.5-0.1-1-0.2-1.5
			c-0.1-0.4-0.3-0.8-0.6-1.1c-0.3-0.3-0.6-0.5-1-0.7c-0.4-0.2-0.8-0.2-1.3-0.2c-0.5,0-0.9,0.1-1.3,0.2c-0.4,0.2-0.7,0.4-1,0.7
			c-0.3,0.3-0.5,0.7-0.6,1.1c-0.1,0.4-0.2,0.9-0.2,1.5c0,0.6,0.1,1,0.2,1.5c0.1,0.4,0.3,0.8,0.6,1.1c0.3,0.3,0.6,0.5,1,0.7
			c0.4,0.2,0.8,0.2,1.3,0.2c0.5,0,0.9-0.1,1.3-0.2c0.4-0.2,0.7-0.4,1-0.7c0.3-0.3,0.5-0.7,0.6-1.1
			C136.2,113.6,136.2,113.1,136.2,112.5z"/>
	</g>
</g>
</svg>
