<?xml version="1.0" encoding="utf-8"?>
<!-- Generator: Adobe Illustrator 18.0.0, SVG Export Plug-In . SVG Version: 6.00 Build 0)  -->
<!DOCTYPE svg PUBLIC "-//W3C//DTD SVG 1.1//EN" "http://www.w3.org/Graphics/SVG/1.1/DTD/svg11.dtd">
<svg version="1.1" id="Capa_1" xmlns="http://www.w3.org/2000/svg" xmlns:xlink="http://www.w3.org/1999/xlink" x="0px" y="0px"
	 viewBox="0 0 200 200" enable-background="new 0 0 200 200" xml:space="preserve">
<g>
	<g>
		<path fill="#FF8B00" d="M127.8,85.8c-4.4,0.8-9.4,9.4-9.4,9.4l0,0c-7.8-10.3-17.5-25.3-26.5-24.4c-7,0.2-15.5,13.9-18.1,20.6
			c-2-1.3-3.7-1.9-4.9-1.5c-3.7,1-7.2,3.8-10.3,7.3c7,9.5,17.1,16.4,28.7,19.4c4.3,1.1,8.8,1.7,13.5,1.6c1.4,0,2.7-0.1,4.1-0.2
			c5.7-0.5,11-2,16-4.2c2.7-1.2,5.3-2.6,7.7-4.2c5.2-3.4,9.6-7.8,13.3-12.7C136.8,91.5,130.4,85.3,127.8,85.8z M69,91.7
			c0,0,0.5-2.6,4.7,0.7c0,0-3.5,7.6,3,14.2C76.7,106.6,68.1,103.4,69,91.7z M118.1,105c0,0-5.6,4.8-5.5,7.2c0,0-1.8-4.9,1.7-7.9
			c0,0-4.1-8.8-10.1-11.8c-6-3.1-3.9,6.6-3.9,6.6s-6.1-7.8-7.2-19.7c-0.5-7.7,1.7-7.5,3.2-6.9c1.5,0.6,9.2,4.9,22,23.7
			C118.2,96.2,117.1,99.4,118.1,105z M134.3,93.9c-2.4-1.1-3.3,2.1-3.3,2.1s-1.9-2.1-2.9-5.6c-1-3.5,1-3.8,1-3.8
			c7,4.4,11.5,9.9,11.5,9.9C136.8,93.9,136.7,95,134.3,93.9z"/>
	</g>
	<g>
		<path fill="#FF8B00" d="M69.8,120.4l-0.1,0.2l-0.4,0.6l-0.1,0.1l-0.1,0.1l-0.1,0l-1.5-0.9l-0.2-0.1l-0.6-0.4l-0.2-0.1l-0.6-0.3
			l-0.2-0.1l-0.8-0.5l-0.6-0.4l-0.2-0.1l-1-0.6l-0.4-0.3l-0.1-0.1l0-0.1l0-0.1l0.1-0.1l0.1-0.3l0.1-0.2l0.1-0.2l0.1-0.2l0.4-0.6
			l0.1-0.2l0.4-0.6l0.1-0.2l0.3-0.6l0.1-0.2l0.4-0.6l0.6-1l0.4-0.6l0.1-0.2l0.3-0.6l0.1-0.2l0.2-0.3l0.2-0.3l0.1-0.2l0.4-0.6
			l0.1-0.2l0.1-0.1l0.1,0l0.1,0l0.2,0.1l0.7,0.5l0.7,0.4l0.2,0.1l0.7,0.5l0.2,0.1l0.7,0.4l0.2,0.1l1.5,1l0.2,0.1l0.4,0.2l0.3,0.2
			l0.1,0.1l0,0.1l0,0.1l-0.1,0.2l-0.2,0.3l-0.2,0.3l-0.1,0.2l-0.2,0.3l-0.1,0.2l-0.1,0.2l-0.1,0.1l-0.1,0.1l-0.1,0l-0.2-0.1
			l-0.1-0.1l-0.2-0.1l-1.1-0.7l-0.2-0.1l-0.6-0.3l-0.2-0.1l-0.6-0.4l-0.5-0.4l-0.2-0.1l-0.1,0l-0.1,0l-0.1,0l-0.1,0.1l-0.1,0.1
			l-0.2,0.3l-0.1,0.2l-0.1,0.2l-0.1,0.1l0,0.1l0,0.1l0.1,0.1l0.3,0.3l0.4,0.2l1.1,0.7l1.3,0.7l0.3,0.2l0.1,0.1l0,0.1l0,0.1l-0.1,0.1
			l-0.1,0.2l-0.1,0.2l-0.2,0.4l-0.1,0.3l-0.2,0.3l-0.1,0.1l-0.1,0.1l-0.1,0l-0.1,0l-0.2-0.1l-0.5-0.4l-0.2-0.1l-0.9-0.5l-0.7-0.5
			l-0.2-0.1l-0.4-0.3l-0.2-0.1l-0.1-0.1l-0.1,0l-0.1,0.1l-0.1,0.2l-0.2,0.3l-0.1,0.2l-0.2,0.2l-0.1,0.1l0,0.1l0,0.1l0.1,0.1l0.6,0.4
			l0.2,0.1l0.6,0.3l0.8,0.6l0.2,0.1l0.8,0.5l0.2,0.1l0.2,0.1l0.4,0.3l0,0.1l0,0.1l-0.1,0.1L69.8,120.4z"/>
		<path fill="#FF8B00" d="M78.6,125l-0.1,0.2l0,0.1l-0.1,0.1l-0.1,0.1l-0.1,0l-0.1,0l-0.1,0l-0.2-0.1l-1.3-0.7l-0.9-0.4l-1.1-0.4
			l-0.7-0.4l-0.9-0.4l-0.6-0.2l-0.2-0.1l-0.2-0.1l-0.1-0.1l-0.1-0.1l0-0.1l0-0.2l0.1-0.2l0.3-0.4l0.1-0.2l0.2-0.7l0.1-0.2l0.3-0.6
			l0.1-0.2l0.7-1.5l0.1-0.2l0.6-1.5l0.1-0.2l0.3-0.7l0.4-1.1l0.1-0.4l0.1-0.2l0.1-0.1l0.1-0.1l0.1-0.1l0.1,0l0.1,0l0.1,0l0.2,0.1
			l0.6,0.3l0.2,0.1l0.9,0.4l0.1,0.1l0.1,0.1l0,0.1l-0.5,1.1l-0.3,0.7l-0.1,0.2l-0.3,0.7l-0.1,0.2l-0.3,0.7l-0.1,0.2l-0.3,0.7
			l-0.1,0.2l-0.8,1.6l0,0.1l0,0.1l0,0.1l0,0.1l0.1,0.1l0.4,0.2l0.4,0.1l0.2,0.1l1.8,0.7l0.2,0.1l0.4,0.1l0.2,0.1l0.2,0.1l0.1,0.1
			l0.1,0.1l0,0.1l0,0.1l-0.3,0.7l-0.1,0.2L78.6,125z"/>
		<path fill="#FF8B00" d="M95.2,127.8l-0.1,0.1l-0.3,0.2l-0.2,0.1l-0.3,0.2l-0.2,0.1l-0.3,0.1l-0.2,0.1l-0.3,0.1l-0.2,0l-0.2,0
			l-0.2,0l-0.3,0l-0.5,0l-0.2,0l-0.3,0l-0.7-0.1l-0.2,0l-0.2-0.1l-0.2-0.1l-0.2-0.1l-0.2-0.1l-0.6-0.2l-0.3-0.1l-0.2-0.1l-0.2-0.2
			l-0.1-0.1l-0.2-0.1l-0.2-0.1l-0.3-0.3l-0.1-0.2l-0.1-0.2l-0.1-0.2l-0.1-0.2l-0.1-0.2l-0.1-0.2l-0.1-0.3l-0.1-0.6l-0.1-0.3
			l-0.1-0.4l0-0.2l0-0.3l0-0.2l0-0.2l0-0.2l0.1-0.4l0-0.2l0.1-0.2l0.1-0.3l0.1-0.2l0.1-0.2l0.1-0.2l0.1-0.3l0.1-0.2l0.1-0.2l0.1-0.2
			l0.1-0.2l0.1-0.2l0.2-0.2l0.2-0.2l0.2-0.2l0.2-0.1l0.2-0.1l0.2-0.1l0.5-0.2l0.2-0.1l0.2-0.1l0.4-0.1l0.2,0l0.2,0l0.5,0l0.2,0
			l0.2,0l0.4,0l0.3,0l0.2,0l0.3,0.1l0.5,0.1l0.2,0.1L94,119l0.4,0.2l0.2,0.1l0.3,0.2l0.2,0.1l0.3,0.3l0.4,0.4l0.1,0.1l0.1,0.1
			l0.1,0.1l0,0.1l0,0.1l-0.1,0.1l-0.1,0.1l-0.2,0.1l-0.2,0.1l-0.2,0.1l-0.2,0.1l-0.3,0.2l-0.2,0.1l-0.1,0.1l-0.1,0.1l-0.1,0h-0.1
			l-0.1,0L94,122l-0.2-0.2l-0.2-0.1l-0.3-0.2l-0.2-0.1l-0.3-0.1l-0.2-0.1l-0.3-0.1l-0.2,0l-0.3,0l-0.2,0l-0.3,0.1l-0.2,0.1l-0.2,0
			l-0.3,0.1l-0.2,0.1l-0.1,0.1l-0.2,0.2l-0.1,0.2l-0.1,0.2l-0.1,0.2l-0.1,0.2l-0.1,0.2l-0.1,0.2l-0.1,0.2l-0.1,0.4l0,0.2l0,0.3
			l0,0.2l0,0.3l0,0.2l0.1,0.2l0.1,0.2l0.2,0.3l0.1,0.2l0.2,0.2l0.2,0.1l0.2,0.2l0.2,0.1l0.3,0.1l0.2,0.1l0.3,0.1l0.3,0l0.2,0l0.1,0
			l0.2,0l0.3-0.1l0.2-0.1l0.2-0.1l0.2-0.1l0.3-0.1l0.2-0.1l0.1-0.1l0.1,0l0.1,0l0.1,0.1l0.1,0.2l0,0.1l0.1,0.2l0.2,0.3l0.1,0.2
			l0.3,0.5l0.1,0.2l0.1,0.1L95.2,127.8L95.2,127.8z"/>
		<path fill="#FF8B00" d="M104.9,127.8l0,0.2l0,0.7l0,0.1l-0.1,0.1l-0.1,0.1l-1.8,0.1l-0.2,0l-0.7,0l-0.2,0l-0.7,0.1l-0.2,0l-0.9,0
			l-0.7,0l-0.2,0l-1.2,0.1l-0.5,0l-0.2,0l-0.1-0.1l0-0.1l0-0.1l0-0.3l0-0.2l0-0.2l0-0.2l0-0.7l0-0.2l0-0.7l0-0.2l0-0.7l0-0.2l0-0.7
			l0-1.1l0-0.7l0-0.2l0-0.7l0-0.2l0-0.3l0-0.4l0-0.2l0-0.7l0-0.2l0-0.1l0.1-0.1l0.1,0l0.2,0l0.9,0l0.8,0l0.2,0l0.8,0l0.2,0l0.8-0.1
			l0.2,0l1.8,0l0.2,0l0.5,0l0.3,0l0.2,0l0.1,0.1l0,0.1l0,0.2l0,0.4l0,0.3l0,0.2l0,0.3l0,0.2l0,0.2l0,0.2l-0.1,0.1l-0.1,0.1l-0.2,0
			l-0.1,0l-0.2,0l-1.3,0l-0.2,0l-0.7,0l-0.2,0l-0.7,0l-0.6,0l-0.2,0l-0.1,0l-0.1,0l-0.1,0.1l0,0.1l0,0.1l0,0.3l0,0.2l0,0.2l0,0.1
			l0,0.1l0.1,0.1l0.1,0l0.4,0l0.4,0l1.3,0l1.5-0.1l0.4,0l0.1,0l0.1,0.1l0,0.1l0,0.1l0,0.2l0,0.2l0,0.4l0,0.3l0,0.4l0,0.2l-0.1,0.1
			l-0.1,0.1l-0.1,0l-0.3,0l-0.6-0.1l-0.2,0l-1.1,0.1l-0.9,0l-0.2,0l-0.5,0l-0.2,0l-0.2,0l-0.1,0l0,0.1l0,0.2l0,0.3l0,0.2l0,0.3
			l0,0.1l0,0.1l0.1,0.1l0.1,0l0.7,0l0.2,0l0.7-0.1l1,0l0.2,0l1-0.1l0.2,0l0.2,0l0.5,0l0.1,0l0.1,0.1l0,0.1L104.9,127.8z"/>
		<path fill="#FF8B00" d="M116.3,127.2l-0.2,0.1l-0.9,0.2l-0.7,0.1l-0.2,0l-0.6,0.1l-0.2,0l-0.1,0l-0.1-0.1l-0.5-0.5l-0.1-0.1
			l-0.5-0.5l-0.1-0.1l-0.5-0.5l-0.1-0.1l-0.5-0.5l-0.1-0.1l-0.1,0l-0.2,0l-0.4,0.1l-0.2,0l-0.1,0.1l0,0.2l0.1,0.7l0.1,0.2l0.2,0.7
			l0.1,0.2l0.1,0.3l0,0.2l0,0.2l0,0.2l-0.1,0.1l-0.1,0.1l-0.2,0l-0.6,0.1l-0.6,0.2l-0.2,0l-0.6,0.1l-0.2,0l-0.1,0l-0.1-0.1l0-0.2
			l-0.1-0.2l0-0.3l0-0.2l-0.1-0.7l0-0.2l-0.2-0.7l-0.1-0.2l-0.1-0.7l0-0.2l-0.1-0.7l0-0.2l-0.2-0.7l0-0.2l-0.1-0.7l0-0.2l-0.1-0.7
			l0-0.2l-0.1-0.7l0-0.2l-0.1-0.4l0-0.2l0-0.1l0-0.2l0.1-0.1l0.2-0.1l0.1,0l0.2-0.1l0.6-0.1l1.6-0.2l0.9-0.2l0.2,0l0.9-0.1l0.5-0.1
			l0.2,0l0.2,0l0.3,0l0.2,0l0.2,0l0.2,0l0.2,0.1l0.2,0.1l0.3,0.1l0.2,0.1l0.2,0.1l0.2,0.1l0.2,0.2l0.2,0.1l0.2,0.2l0.1,0.2l0.1,0.2
			l0.1,0.2l0.1,0.2l0.1,0.2l0.1,0.3l0,0.2l0,0.2l0,0.2l0,0.2l0,0.2l0,0.2l-0.1,0.2l-0.1,0.2l-0.1,0.2l-0.1,0.2l-0.1,0.2l-0.2,0.3
			l-0.1,0.1l-0.2,0.2l-0.1,0.1l-0.2,0.1l-0.2,0.1l-0.1,0.1l0.1,0.1l0.6,0.6l0.1,0.1l0.6,0.6l0.2,0.1l0.6,0.6l0.2,0.1l0.5,0.4
			l0.1,0.1l0.1,0.1L116.3,127.2z M111.6,122.7l0.2-0.1l0.1-0.1l0.1-0.2l0.1-0.2l0-0.2l0-0.2l-0.1-0.2l-0.1-0.2l-0.1-0.2l-0.1-0.2
			l-0.1-0.1l-0.2-0.1l-0.2,0l-0.3,0l-0.2,0l-0.7,0.1l-0.2,0l-0.7,0.2l-0.2,0l-0.1,0.1l-0.1,0.1l0,0.1l0.1,0.3l0.1,0.2l0.1,0.2
			l0.1,0.2l0.1,0.7l0,0.1l0,0.1l0.1,0l0.2,0l0.7-0.1l0.2,0l0.9-0.2L111.6,122.7z"/>
		<path fill="#FF8B00" d="M127,123.1l-0.1,0.1l-0.9,0.4l-0.7,0.3l-0.2,0.1l-0.6,0.3l-0.2,0.1l-0.1,0l-0.1-0.1l-0.6-0.4l-0.2-0.1
			l-0.6-0.4l-0.2-0.1l-0.6-0.4l-0.2-0.1l-0.6-0.4l-0.1-0.1l-0.1,0l-0.2,0l-0.4,0.1l-0.2,0.1l-0.1,0.1l0,0.2l0.3,0.7l0.1,0.2l0.3,0.7
			l0.1,0.2l0.1,0.3l0.1,0.2l0.1,0.2l0,0.2l0,0.1l-0.1,0.1l-0.2,0.1l-0.6,0.2l-0.6,0.3l-0.2,0.1l-0.6,0.2l-0.2,0l-0.1,0l-0.1-0.1
			l-0.1-0.2l-0.1-0.2l-0.1-0.3l-0.1-0.2l-0.2-0.7l-0.1-0.2l-0.3-0.7l-0.1-0.2l-0.3-0.7l-0.1-0.2l-0.2-0.7l-0.1-0.2l-0.3-0.7
			l-0.1-0.2l-0.2-0.7l-0.1-0.2l-0.2-0.7l-0.1-0.2l-0.3-0.7l-0.1-0.2l-0.2-0.4l-0.1-0.2l0-0.1l0-0.2l0-0.1l0.1-0.1l0.1-0.1l0.2-0.1
			l0.6-0.2l1.5-0.6l0.8-0.4l0.2-0.1l0.8-0.3l0.5-0.2l0.2-0.1l0.2,0l0.3,0l0.2,0l0.2,0l0.2,0l0.2,0l0.2,0l0.3,0.1l0.2,0.1l0.2,0.1
			l0.2,0.1l0.3,0.2l0.2,0.1l0.2,0.2l0.2,0.1l0.2,0.2l0.1,0.2l0.1,0.2l0.1,0.2l0.1,0.3l0.1,0.2l0.1,0.2l0.1,0.2l0,0.2l0,0.2l0,0.2
			l0,0.2l0,0.2l0,0.2l-0.1,0.2l-0.1,0.2l-0.1,0.3l-0.1,0.2l-0.2,0.2l-0.1,0.1l-0.1,0.2l-0.1,0.1l-0.1,0.1l0.1,0.1l0.7,0.5l0.2,0.1
			l0.7,0.4l0.2,0.1l0.7,0.4l0.2,0.1l0.6,0.3l0.2,0.1l0.1,0.1L127,123.1z M121.5,119.7l0.1-0.1l0.1-0.1l0.1-0.2l0-0.2l0-0.2l-0.1-0.2
			l-0.1-0.2l-0.1-0.2l-0.1-0.2l-0.2-0.2l-0.2-0.1l-0.2-0.1l-0.2,0l-0.3,0l-0.2,0.1l-0.6,0.2l-0.2,0.1l-0.6,0.3l-0.1,0.1l-0.1,0.1
			l0,0.1l0,0.1l0.1,0.3l0.1,0.2l0.1,0.2l0.1,0.2l0.3,0.7l0.1,0.1l0.1,0.1l0.1,0l0.2,0l0.7-0.2l0.2-0.1l0.8-0.4L121.5,119.7z"/>
		<path fill="#FF8B00" d="M134.8,112.3l0.1,0.2l0.2,0.3l0.1,0.2l0.2,0.4l0.2,0.3l0.1,0.2l0.1,0.2l0.1,0.2l0,0.3l0,0.2l0,0.7l0,0.2
			l0,0.2l0,0.2l0,0.3l0,0.2l-0.1,0.2l-0.1,0.2l-0.1,0.3l-0.1,0.2l-0.1,0.2l-0.1,0.2L135,118l-0.1,0.2l-0.3,0.4l-0.2,0.2l-0.1,0.2
			l-0.2,0.2l-0.2,0.2l-0.2,0.1l-0.6,0.4l-0.4,0.2l-0.4,0.2l-0.2,0.1l-0.2,0.1l-0.7,0.2l-0.2,0.1l-0.2,0.1l-0.5,0.1l-0.2,0l-0.2,0
			l-0.2,0l-0.2,0l-0.2-0.1l-0.2-0.1l-0.5-0.1l-0.2-0.1l-0.2-0.1l-0.2-0.1l-0.2-0.2l-0.5-0.4l-0.2-0.2l-0.1-0.1l-0.2-0.2l-0.1-0.1
			l-0.2-0.2l-0.1-0.2l-0.1-0.2l-0.1-0.2l-0.1-0.2l-0.1-0.2l-0.1-0.2l-0.1-0.2l-0.1-0.2l-0.1-0.2l-0.1-0.2l-0.1-0.2l-0.1-0.3l0-0.2
			l0-0.1l0-0.2l0-0.4l0-0.2l0-0.1l0-0.2l0.1-0.3l0.1-0.2l0.1-0.2l0.2-0.4l0.1-0.2l0.1-0.2l0.1-0.2l0.2-0.3l0.1-0.2l0.1-0.2l0.1-0.2
			l0.4-0.4l0.1-0.1l0.5-0.4l0.3-0.3l0.3-0.2l0.3-0.2l0.2-0.1l0.2-0.1l0.2-0.1l0.2-0.1l0.2-0.1l0.2-0.1l0.2-0.1l0.3-0.1l0.2,0l0.5,0
			l0.2,0l0.2,0l0.3,0l0.2,0l0.2,0l0.2,0.1l0.3,0.1l0.2,0.1l0.2,0.1l0.2,0.1l0.3,0.1l0.2,0.1l0.2,0.1l0.2,0.1l0.2,0.2l0.3,0.3
			l0.1,0.2l0.2,0.2L134.8,112.3z M132.6,114l-0.1-0.2l-0.1-0.2l-0.1-0.2l-0.3-0.3l-0.2-0.1l-0.3-0.2l-0.2-0.1l-0.3-0.1l-0.2,0
			l-0.3-0.1l-0.2,0l-0.4,0l-0.2,0l-0.2,0.1l-0.2,0.1l-0.4,0.2l-0.2,0.1l-0.2,0.2l-0.1,0.1l-0.2,0.3L128,114l-0.2,0.3l-0.1,0.2
			l-0.1,0.3l0,0.2l0,0.2l0,0.2l0,0.1l0.1,0.3l0.1,0.2l0,0.1l0.1,0.2l0.1,0.2l0.1,0.2l0.1,0.2l0.1,0.2l0.1,0.2l0.2,0.2l0.1,0.1
			l0.2,0.1l0.1,0.1l0.2,0.1l0.1,0.1l0.2,0.1l0.1,0.1l0.2,0.1l0.1,0l0.2,0l0.4,0l0.2,0l0.2,0l0.2,0l0.3-0.1l0.2-0.1l0.3-0.2l0.2-0.1
			l0.3-0.2l0.2-0.1l0.2-0.2l0.1-0.2l0.1-0.3l0.1-0.2l0.1-0.3l0-0.2l0-0.3l0-0.2L133,115l0-0.2l-0.1-0.3l-0.1-0.2L132.6,114z"/>
	</g>
	<g>
		
			<rect x="140.7" y="104.3" transform="matrix(0.7071 0.7071 -0.7071 0.7071 118.2475 -67.8671)" fill="#FF8B00" width="0.8" height="9"/>
	</g>
	<g>
		<path fill="#FF8B00" d="M144.2,106h-0.4l0-0.4c0-0.9,0.6-2.7,2.7-2.7h0.4l0,0.4c0,0,0,1.2-0.8,2C145.7,105.7,145,106,144.2,106z
			 M146.1,103.7c-1,0.2-1.3,1-1.4,1.5c0.4-0.1,0.7-0.2,0.9-0.5C145.9,104.4,146,104,146.1,103.7z"/>
	</g>
	<g>
		<path fill="#FF8B00" d="M143.8,108.8c-0.7,0-1.3-0.3-1.9-0.9l-0.3-0.3l0.3-0.3c0,0,0.9-0.8,2-0.8c0.7,0,1.3,0.3,1.8,0.8l0.3,0.3
			l-0.3,0.3C145.7,108,144.9,108.8,143.8,108.8z M142.8,107.7c0.3,0.2,0.6,0.3,1,0.3c0.4,0,0.8-0.2,1.1-0.4
			c-0.3-0.2-0.6-0.3-0.9-0.3C143.5,107.4,143.1,107.5,142.8,107.7z"/>
	</g>
	<g>
		<path fill="#FF8B00" d="M142.1,110.4c-0.7,0-1.3-0.3-1.9-0.9l-0.3-0.3l0.3-0.3c0,0,0.9-0.8,2-0.8c0.7,0,1.3,0.3,1.8,0.8l0.3,0.3
			l-0.3,0.3C144.1,109.6,143.2,110.4,142.1,110.4z M141.2,109.3c0.3,0.2,0.6,0.3,1,0.3c0.4,0,0.8-0.2,1.1-0.4
			c-0.3-0.2-0.6-0.3-0.9-0.3C141.8,109,141.4,109.2,141.2,109.3z"/>
	</g>
	<g>
		<path fill="#FF8B00" d="M140.5,112.1c-0.7,0-1.3-0.3-1.9-0.9l-0.3-0.3l0.3-0.3c0,0,0.9-0.8,2-0.8c0.7,0,1.3,0.3,1.8,0.8l0.3,0.3
			l-0.3,0.3C142.4,111.3,141.6,112.1,140.5,112.1z M139.5,111c0.3,0.2,0.6,0.3,1,0.3c0.4,0,0.8-0.2,1.1-0.4
			c-0.3-0.2-0.6-0.3-0.9-0.3C140.2,110.6,139.8,110.8,139.5,111z"/>
	</g>
	<g>
		<path fill="#FF8B00" d="M143,107.4l-0.3-0.3c-0.6-0.6-0.9-1.2-0.9-1.9c0-1.1,0.8-1.9,0.9-1.9l0.3-0.3l0.3,0.3
			c1.4,1.4,0.6,3.1,0,3.8L143,107.4z M143,104.2c-0.2,0.3-0.4,0.6-0.4,1.1c0,0.3,0.1,0.7,0.3,1C143.2,105.8,143.6,105,143,104.2z"/>
	</g>
	<g>
		<path fill="#FF8B00" d="M141.4,109.1l-0.3-0.3c-0.6-0.6-0.9-1.2-0.9-1.9c0-1.1,0.8-1.9,0.9-1.9l0.3-0.3l0.3,0.3
			c1.4,1.4,0.6,3.1,0,3.8L141.4,109.1z M141.4,105.8c-0.2,0.3-0.4,0.6-0.4,1.1c0,0.3,0.1,0.7,0.3,1
			C141.6,107.4,141.9,106.6,141.4,105.8z"/>
	</g>
	<g>
		<path fill="#FF8B00" d="M139.7,110.7l-0.3-0.3c-0.6-0.6-0.9-1.2-0.9-1.9c0-1.1,0.8-1.9,0.9-1.9l0.3-0.3l0.3,0.3
			c1.5,1.4,0.6,3.1,0,3.8L139.7,110.7z M139.7,107.5c-0.2,0.3-0.4,0.6-0.4,1.1c0,0.3,0.1,0.7,0.3,1
			C140,109.1,140.3,108.3,139.7,107.5z"/>
	</g>
	<g>
		<g>
			
				<rect x="54.4" y="110.1" transform="matrix(0.7072 0.707 -0.707 0.7072 95.3734 -9.3323)" fill="#FF8B00" width="9" height="0.8"/>
		</g>
		<g>
			<path fill="#FF8B00" d="M56.2,107.7h-0.4c-0.8,0-1.5-0.2-1.9-0.7c-0.8-0.8-0.8-1.9-0.8-2l0-0.4h0.4c2,0,2.7,1.8,2.7,2.7
				L56.2,107.7z M53.9,105.4c0.1,0.3,0.2,0.7,0.5,1c0.2,0.2,0.5,0.4,0.9,0.5C55.2,106.3,54.9,105.6,53.9,105.4z"/>
		</g>
		<g>
			<path fill="#FF8B00" d="M56.2,110.5L56.2,110.5c-1.1,0-1.9-0.8-2-0.9l-0.3-0.3l0.3-0.3c0.5-0.5,1.1-0.8,1.8-0.8
				c1.1,0,2,0.8,2,0.8l0.3,0.3l-0.3,0.3C57.5,110.2,56.9,110.5,56.2,110.5z M55.2,109.3c0.3,0.2,0.6,0.4,1.1,0.4l0,0
				c0.3,0,0.7-0.1,1-0.3c-0.3-0.2-0.7-0.3-1.1-0.3C55.8,109,55.5,109.1,55.2,109.3z"/>
		</g>
		<g>
			<path fill="#FF8B00" d="M57.9,112.1C57.9,112.1,57.9,112.1,57.9,112.1c-1.1,0-1.9-0.8-2-0.9l-0.3-0.3l0.3-0.3
				c0.5-0.5,1.2-0.8,1.8-0.8c1.1,0,2,0.8,2,0.8L60,111l-0.3,0.3C59.2,111.8,58.5,112.1,57.9,112.1z M56.8,111
				c0.3,0.2,0.6,0.4,1.1,0.4l0,0c0.3,0,0.7-0.1,1-0.3c-0.3-0.2-0.7-0.3-1.1-0.3C57.4,110.7,57.1,110.8,56.8,111z"/>
		</g>
		<g>
			<path fill="#FF8B00" d="M59.5,113.7L59.5,113.7c-1.1,0-1.9-0.8-2-0.9l-0.3-0.3l0.3-0.3c0.5-0.5,1.2-0.8,1.8-0.8
				c1.1,0,2,0.8,2,0.8l0.3,0.3l-0.3,0.3C60.8,113.5,60.2,113.7,59.5,113.7z M58.4,112.6c0.3,0.2,0.6,0.4,1.1,0.4l0,0
				c0.3,0,0.7-0.1,1-0.3c-0.3-0.2-0.7-0.3-1.1-0.3C59,112.3,58.7,112.4,58.4,112.6z"/>
		</g>
		<g>
			<path fill="#FF8B00" d="M57,109.1l-0.3-0.3c-0.6-0.7-1.4-2.4,0-3.8l0.3-0.3l0.3,0.3c0,0,0.8,0.8,0.9,1.9c0,0.7-0.3,1.3-0.9,1.9
				L57,109.1z M57,105.9c-0.6,0.8-0.2,1.6,0,2.1c0.2-0.3,0.3-0.6,0.3-1C57.4,106.5,57.2,106.1,57,105.9z"/>
		</g>
		<g>
			<path fill="#FF8B00" d="M58.6,110.7l-0.3-0.3c-0.6-0.7-1.4-2.4,0-3.8l0.3-0.3l0.3,0.3c0,0,0.8,0.8,0.9,1.9c0,0.7-0.3,1.3-0.9,1.9
				L58.6,110.7z M58.6,107.5c-0.6,0.8-0.2,1.6,0,2.1c0.2-0.3,0.3-0.6,0.3-1C59,108.1,58.8,107.8,58.6,107.5z"/>
		</g>
		<g>
			<path fill="#FF8B00" d="M60.3,112.4l-0.3-0.3c-0.6-0.7-1.4-2.4,0-3.8l0.3-0.3l0.3,0.3c0,0,0.8,0.8,0.9,1.9c0,0.7-0.3,1.3-0.9,1.9
				L60.3,112.4z M60.3,109.1c-0.6,0.8-0.2,1.6,0,2.1c0.2-0.3,0.3-0.6,0.3-1C60.6,109.8,60.4,109.4,60.3,109.1z"/>
		</g>
	</g>
</g>
</svg>
