<?xml version="1.0" encoding="utf-8"?>
<!-- Generator: Adobe Illustrator 18.0.0, SVG Export Plug-In . SVG Version: 6.00 Build 0)  -->
<!DOCTYPE svg PUBLIC "-//W3C//DTD SVG 1.1//EN" "http://www.w3.org/Graphics/SVG/1.1/DTD/svg11.dtd">
<svg version="1.1" id="Capa_1" xmlns="http://www.w3.org/2000/svg" xmlns:xlink="http://www.w3.org/1999/xlink" x="0px" y="0px"
	 viewBox="0 0 200 200" enable-background="new 0 0 200 200" xml:space="preserve">
<g>
	<g>
		<path fill="#FF8B00" d="M120.1,103.1c-0.7-0.1-1.4-0.3-2-0.5c-1.6-0.4-3.2-0.9-4.7-1.4c-2.1-0.8-4.2-1.6-6.1-2.6
			c-0.2-0.1-0.4-0.2-0.6-0.3c-1.6-0.9-3.2-1.8-4.7-2.8c-0.9-0.6-1.9-1.3-2.8-2c-0.4-0.3-0.7-0.5-1.1-0.8c-0.5-0.4-1-0.8-1.4-1.2
			c-0.5-0.4-0.9-0.8-1.4-1.3c-0.3-0.2-0.5-0.5-0.8-0.7c0,0,0,0-0.1-0.1c-0.1-0.1-0.2-0.3-0.3-0.4c-0.4-0.7-0.8-1.5-1.2-2.2
			c-0.8-1.6-1.5-3.1-2.2-4.8c0,0,0-0.1,0-0.1c-1-0.8-1.7-2-1.7-3.4c0,0,0,0,0-0.1c-0.6-0.6-1.2-1.1-1.7-1.7
			c-0.1-0.1-0.3-0.3-0.4-0.4c0-0.1-0.1-0.1-0.1-0.2c0.1,0.2,0.2,0.4,0.2,0.7c0.4,1.2,0.8,2.4,1.1,3.7c-0.2-0.1-0.4-0.3-0.6-0.4
			c-0.4-0.3-0.8-0.6-1.2-0.9c-0.4-0.3-0.9-0.7-1.3-1.1c0.2,0.4,0.4,0.9,0.6,1.4c0.7,0.8,1.5,1.5,2.1,2.3c0.2,1.7,0.2,3.3,0.2,5.1
			c0,1.7-0.1,3.7-0.2,5.2c-0.1,0.6-0.2,1.1-0.2,1.7c0,0.2,0,0.3,0,0.4c0.1,1.6,0.7,3.1,1.6,4.2c0.1,0.1,0.2,0.3,0.4,0.4
			c0.9,0.9,2,1.6,3.3,2c-1,1.5-2.3,3-3.6,4.2l0,0c1.7-1.6,3.6-2.9,5.7-4c0.1,0,0.3,0,0.4,0c-1,1.8-2.1,3.4-3.5,4.9l0,0
			c1.5-1.6,3.2-3.1,5.1-4.2c0.6,0.4,1.2,0.8,1.8,1.2c1,0.7,1.9,1.4,2.8,2.1c0.1-0.1,0.2-0.1,0.2-0.2c-1.1-1.3-2-2.7-2.9-4.2
			c0.4-0.2,0.7-0.4,1.1-0.5c1,1.3,2.1,2.4,3.3,3.5c0.2-0.1,0.4-0.3,0.6-0.4c-0.9-1.2-1.7-2.4-2.4-3.7c0.1-0.1,0.3-0.1,0.4-0.2
			c0.6-0.2,1.1-0.4,1.7-0.5c1.3,1,2.6,1.9,3.9,2.8c2.6,1.7,5.4,3.2,8.4,4.4c1.4-0.6,2.8-1.3,4.1-2c0.2-0.1,0.4-0.2,0.6-0.3
			c0.1-0.1,0.3-0.2,0.4-0.3C120.8,103.2,120.5,103.2,120.1,103.1z"/>
		<path fill="#FF8B00" d="M60.3,115.2c0-0.7,0.1-1.3,0.4-1.9c0.3-0.6,0.6-1.1,1.1-1.6c0.5-0.5,1-0.8,1.6-1.1
			c0.6-0.3,1.2-0.4,1.9-0.4c0.7,0,1.3,0.1,1.9,0.4c0.6,0.3,1.1,0.6,1.6,1.1c0.4,0.5,0.8,1,1.1,1.6c0.3,0.6,0.4,1.2,0.4,1.9
			c0,0.7-0.1,1.3-0.4,1.9c-0.3,0.6-0.6,1.1-1.1,1.6c-0.5,0.4-1,0.8-1.6,1.1c-0.6,0.3-1.3,0.4-1.9,0.4c-0.7,0-1.3-0.1-1.9-0.4
			c-0.6-0.3-1.1-0.6-1.6-1.1c-0.5-0.5-0.8-1-1.1-1.6C60.4,116.6,60.3,115.9,60.3,115.2z M61.2,115.2c0,0.6,0.1,1.1,0.3,1.6
			c0.2,0.5,0.5,0.9,0.9,1.3c0.4,0.4,0.8,0.7,1.3,0.9c0.5,0.2,1,0.3,1.6,0.3c0.6,0,1.1-0.1,1.6-0.3c0.5-0.2,0.9-0.5,1.3-0.9
			c0.4-0.4,0.7-0.8,0.9-1.3c0.2-0.5,0.3-1,0.3-1.6c0-0.6-0.1-1.1-0.3-1.6c-0.2-0.5-0.5-0.9-0.9-1.3c-0.4-0.4-0.8-0.7-1.3-0.9
			c-0.5-0.2-1-0.3-1.6-0.3c-0.6,0-1.1,0.1-1.6,0.3c-0.5,0.2-0.9,0.5-1.3,0.9c-0.4,0.4-0.7,0.8-0.9,1.3
			C61.3,114.1,61.2,114.7,61.2,115.2z"/>
		<path fill="#FF8B00" d="M84.7,110.4v10.2c-0.3-0.3-0.6-0.7-1-1.1c-0.4-0.4-0.8-0.9-1.3-1.4c-0.4-0.5-0.9-1-1.4-1.5
			c-0.5-0.5-0.9-1-1.4-1.5c-0.4-0.5-0.9-1-1.2-1.4c-0.4-0.4-0.7-0.8-0.9-1.1c0,0-0.1-0.1-0.1-0.2c-0.1-0.1-0.1-0.1-0.2-0.2l0,0.4
			v7.6h-0.9v-10.2c0.3,0.3,0.6,0.7,1,1.2c0.4,0.4,0.8,0.9,1.2,1.4c0.4,0.5,0.9,1,1.4,1.5c0.5,0.5,0.9,1,1.4,1.5
			c0.4,0.5,0.9,0.9,1.2,1.4c0.4,0.4,0.7,0.8,0.9,1.1c0,0,0.1,0.1,0.1,0.2c0.1,0.1,0.1,0.1,0.2,0.2l0-0.4v-7.5H84.7z"/>
		<path fill="#FF8B00" d="M111.8,110.4h0.9v9.7h-0.9V110.4z"/>
		<path fill="#FF8B00" d="M126.6,119.4c-0.3,0.2-0.7,0.4-1.2,0.5c-0.5,0.2-1,0.2-1.7,0.2c-0.8,0-1.4-0.1-2-0.4
			c-0.6-0.3-1.1-0.6-1.5-1.1c-0.4-0.5-0.8-1-1-1.6c-0.2-0.6-0.3-1.2-0.3-1.9c0-0.7,0.1-1.4,0.4-2c0.3-0.6,0.6-1.2,1.1-1.6
			c0.5-0.4,1-0.8,1.6-1.1c0.6-0.3,1.3-0.4,2-0.4c0.2,0,0.5,0,0.7,0c0.2,0,0.5,0.1,0.7,0.1c0.2,0.1,0.4,0.1,0.6,0.2
			c0.2,0.1,0.4,0.2,0.5,0.3c0,0.1-0.1,0.1-0.1,0.2c0,0-0.1,0.1-0.1,0.1c0,0-0.1,0.1-0.1,0.2c0,0.1-0.1,0.1-0.1,0.2
			c-0.3-0.2-0.6-0.3-1-0.4c-0.4-0.1-0.8-0.1-1.1-0.1c-0.6,0-1.1,0.1-1.6,0.3c-0.5,0.2-0.9,0.5-1.3,0.9c-0.4,0.4-0.7,0.8-0.9,1.3
			c-0.2,0.5-0.3,1-0.3,1.6c0,0.5,0.1,1,0.3,1.5c0.2,0.5,0.5,0.9,0.8,1.3c0.4,0.4,0.8,0.7,1.3,0.9c0.5,0.2,1,0.3,1.6,0.3
			c0.3,0,0.5,0,0.8-0.1c0.2,0,0.5-0.1,0.7-0.2c0.2-0.1,0.4-0.1,0.6-0.2c0.2-0.1,0.3-0.1,0.4-0.2L126.6,119.4z"/>
		<path fill="#FF8B00" d="M105.6,120.1c-0.1-0.2-0.3-0.7-0.5-1c-0.2-0.3-0.3-0.7-0.5-1c-0.2-0.3-0.3-0.6-0.5-0.9
			c-0.2-0.3-0.3-0.5-0.5-0.8c-0.1-0.2-0.2-0.4-0.3-0.6c0.6-0.3,1-0.7,1.2-1.1c0.2-0.5,0.4-1,0.4-1.6c0-0.5-0.1-0.9-0.3-1.3
			c-0.2-0.4-0.4-0.7-0.7-0.9c-0.3-0.2-0.6-0.1-1-0.2c-0.4-0.1-0.8,0.2-1.2,0.2H99v10.1h1.1v-5v-1v-3h1.8c0.4,0,0.7-0.4,1-0.3
			c0.3,0.1,0.5,0,0.7,0.2c0.2,0.2,0.3,0.3,0.4,0.5c0.1,0.2,0.1,0.4,0.1,0.7c0,0.2,0,0.4-0.1,0.6c-0.1,0.2-0.2,0.4-0.4,0.6
			c-0.2,0.2-0.4,0.3-0.7,0.5c-0.3,0.1-0.7,0.1-1.1,0.1c0,0,0.8,1.4,1,1.6c0.1,0.2,0.3,0.5,0.4,0.7c0.2,0.3,0.3,0.5,0.5,0.8
			c0.2,0.3,0.3,0.5,0.5,0.8c0.1,0.2,0.3,1,0.4,1.1c0.1,0.2,0.2,1,0.3,1h1.1C105.9,121.1,105.8,120.3,105.6,120.1z"/>
		<path fill="#FF8B00" d="M139.2,119.3c-0.2-0.5-0.5-1.4-0.7-2c-0.3-0.6-0.5-1.4-0.8-2.1c-0.3-0.7-0.6-1.4-0.8-2.1
			c-0.3-0.6-0.5-1.3-0.7-1.8c-0.2-0.5-0.4-1-0.5-1.3c-0.1,0.3-0.3,0.8-0.6,1.3c-0.2,0.5-0.5,1.1-0.7,1.8c-0.3,0.6-0.5,1.3-0.8,2
			c-0.3,0.7-0.6,1.4-0.8,2c-0.3,0.6-0.5,1.7-0.7,2.3c-0.2,0.5-0.4,1.3-0.5,1.8h0.9c0.2-0.5,0.4-1.4,0.6-2c0.2-0.6,0.5-1.5,0.8-2.2
			l0.3-0.9c0.3-0.7,0.5-1.4,0.8-2c0.3-0.6,0.5-1.2,0.6-1.6c0,0,0-0.1,0.1-0.2c0-0.1,0-0.2,0.1-0.2c0,0.1,0,0.1,0.1,0.2
			c0,0.1,0.1,0.1,0.1,0.2c0.2,0.4,0.4,0.9,0.6,1.6c0.2,0.6,1.6,4.5,1.9,5.1c0.2,0.6,0.5,1.6,0.6,2.1h0.9
			C139.6,120.6,139.4,119.8,139.2,119.3z"/>
		<polygon fill="#FF8B00" points="91.1,121.1 92.1,121.1 92.1,114 91.1,113 		"/>
		<polygon fill="#FF8B00" points="92.1,111.1 91.1,111.1 91.1,112 92.1,113 		"/>
	</g>
</g>
</svg>
