<?xml version="1.0" encoding="utf-8"?>
<!-- Generator: Adobe Illustrator 18.0.0, SVG Export Plug-In . SVG Version: 6.00 Build 0)  -->
<!DOCTYPE svg PUBLIC "-//W3C//DTD SVG 1.1//EN" "http://www.w3.org/Graphics/SVG/1.1/DTD/svg11.dtd">
<svg version="1.1" id="Capa_1" xmlns="http://www.w3.org/2000/svg" xmlns:xlink="http://www.w3.org/1999/xlink" x="0px" y="0px"
	 viewBox="0 0 1000 1000" enable-background="new 0 0 1000 1000" xml:space="preserve">
<g>
	<g>
		<path fill="#332F2E" d="M500,1000C224.3,1000,0,775.7,0,500S224.3,0,500,0s500,224.3,500,500S775.7,1000,500,1000z M500,3.3
			C226.1,3.3,3.3,226.1,3.3,500S226.1,996.7,500,996.7S996.7,773.9,996.7,500S773.9,3.3,500,3.3z"/>
	</g>
	<g>
		<path fill="#332F2E" d="M748.2,357.2c0-2.1-0.2-4.1-1.1-6.1c-1.8-3.9-5.3-6.5-9.1-7.3L505.3,231c-3.8-1.8-8.2-1.8-12,0
			L258.1,344.9c-4.6,2.2-5.1,6.7-8.1,11.9v0.1c0,0.1,0,0.2,0,0.5v285.8c0,5.3,3.3,10.1,8.1,12.3c0,0,247.1,113.8,247.2,113.7
			L740.5,655c4.7-2.3,7.3-7,7.3-12.3V357.5C748,357.4,748.2,357.3,748.2,357.2z M486,735.1L280,634.5V379.4L486,480V735.1z
			 M670.3,627.3c-3.3,2.6-8.5,1.4-11.7-2.7l-62.7-80.2c-0.1-0.2,0-0.5-0.1-0.7l-3.6,2.8c-12.8,10-33.2,5.2-45.5-10.5
			c-12.3-15.8-12-36.7,0.8-46.7l18.6-14.5c12.8-10,33.2-5.3,45.5,10.5s12,36.7-0.8,46.7l-3.2,2.5c0.1,0.2,0,0.5,0.2,0.7l62.7,80.2
			C673.7,619.4,673.6,624.8,670.3,627.3z M690.2,597.6l-14.9,11.6l-31-39.6l14.9-11.6c3.3-2.6,8.3-1.2,11.4,2.9l6.9,8.8l-6.5,5.1
			c-1.6,1.3-1.7,4-0.1,6c1.6,2,4.2,2.6,5.8,1.4l6.5-5.1l6.9,8.8C693.3,589.9,693.4,595,690.2,597.6z M499.3,453.6L295.5,356
			l203.8-97.8l204.2,98.9L499.3,453.6z"/>
		<path fill="#332F2E" d="M577.6,489.4L559,503.9c-6.2,4.9-6.4,15.1-0.4,22.8s16,10,22.2,5.1l18.6-14.5c6.2-4.9,6.4-15.1,0.4-22.8
			C593.7,486.8,583.8,484.5,577.6,489.4z"/>
	</g>
</g>
</svg>
