<?xml version="1.0" encoding="utf-8"?>
<!-- Generator: Adobe Illustrator 18.0.0, SVG Export Plug-In . SVG Version: 6.00 Build 0)  -->
<!DOCTYPE svg PUBLIC "-//W3C//DTD SVG 1.1//EN" "http://www.w3.org/Graphics/SVG/1.1/DTD/svg11.dtd">
<svg version="1.1" id="Capa_1" xmlns="http://www.w3.org/2000/svg" xmlns:xlink="http://www.w3.org/1999/xlink" x="0px" y="0px"
	 viewBox="0 0 1000 1000" enable-background="new 0 0 1000 1000" xml:space="preserve">
<g>
	<g>
		<path fill="#332F2E" d="M500,1000C224.3,1000,0,775.7,0,500S224.3,0,500,0s500,224.3,500,500S775.7,1000,500,1000z M500,3.3
			C226.1,3.3,3.3,226.1,3.3,500S226.1,996.7,500,996.7S996.7,773.9,996.7,500S773.9,3.3,500,3.3z"/>
	</g>
	<g>
		<path fill="#332F2E" d="M635.1,590c2.1-3.2,3.1-7.1,2.7-11c-0.8-7.5-7-12-13.8-9.9s-11.6,9.8-10.8,17.4c0.4,4,2.4,7.1,5.1,8.9
			l-1.1,20c-0.1,1.2,0.7,1.9,1.8,1.6l20.1-6.1c1-0.3,1.6-1.5,1.3-2.5L635.1,590z"/>
		<path fill="#332F2E" d="M613.6,473.4c-19.8,6-34,28.9-31.5,50.9l2.6,23.8l71.8-21.9l-2.6-23.8
			C651.5,480.4,633.4,467.4,613.6,473.4z"/>
		<path fill="#332F2E" d="M745.5,356.4c0-2.1-0.1-4.1-1-6.1c-1.8-3.9-5.2-6.5-9.1-7.3L502.8,230.2c-3.8-1.8-8.2-1.8-12,0
			L255.3,344.1c-4.6,2.2-8.3,6.7-8.3,11.9v0.1c0,0.1,0,0.2,0,0.5v285.8c0,5.3,3.5,10.1,8.3,12.3c0,0,245.6,115.2,245.9,115.1
			c0.1,0,236.7-115.5,236.7-115.5c4.7-2.3,7-7.1,7-12.4V356.8C745,356.7,745.5,356.6,745.5,356.4z M483,734.3L277,633.7V378.6
			l206,100.6V734.3z M633.2,652c-34,10.4-65-11.9-69.1-49.7l-3.8-34.1c-0.7-6.5,2.3-10.8,5.6-13.2l-2.7-24.8
			c-3.7-33.6,17.9-68.5,48.1-77.7c30.2-9.2,57.8,10.6,61.5,44.2l2.8,25.1c3.7,0.5,7.3,2.7,8,8.9l3.8,34.1
			C691.4,602.5,667.2,641.7,633.2,652z M496.8,457.7L293,357.7l203.8-99.9l205.5,98.7L496.8,457.7z"/>
	</g>
</g>
</svg>
