<?xml version="1.0" encoding="utf-8"?>
<!-- Generator: Adobe Illustrator 18.0.0, SVG Export Plug-In . SVG Version: 6.00 Build 0)  -->
<!DOCTYPE svg PUBLIC "-//W3C//DTD SVG 1.1//EN" "http://www.w3.org/Graphics/SVG/1.1/DTD/svg11.dtd">
<svg version="1.1" id="Capa_1" xmlns="http://www.w3.org/2000/svg" xmlns:xlink="http://www.w3.org/1999/xlink" x="0px" y="0px"
	 viewBox="0 0 568 424" enable-background="new 0 0 568 424" xml:space="preserve">
<g>
	<g>
		<g>
			<g>
				<path fill="#FF8B00" d="M233.4,188.7h0.2l18.6-41.9h1.9v44.6h-1.7v-40.5l-0.2,0l-18.1,40.5h-1.3l-18.5-41.4l-0.2,0v41.4h-1.7
					v-44.6h2.3L233.4,188.7z"/>
			</g>
			<g>
				<path fill="#FF8B00" d="M309.1,178h-21.8l-5,13.3h-1.8l16.7-44.6h2l16.7,44.6h-1.8L309.1,178z M288,176.4h20.5l-9.3-24.9
					l-0.9-2.6h-0.2l-0.8,2.6L288,176.4z"/>
			</g>
			<g>
				<path fill="#FF8B00" d="M343.4,170.5v20.9h-1.7v-44.6h14.5c4.7,0,8.3,1,10.8,3c2.5,2,3.8,5,3.8,8.9c0,2.5-0.8,4.8-2.4,6.8
					c-1.6,2.1-3.8,3.4-6.6,4c3.2,0.6,5.5,1.7,6.9,3.5c1.4,1.8,2.1,4.1,2.1,6.9v4.2c0,1.4,0.2,2.6,0.5,3.7c0.3,1.1,0.9,2,1.7,2.7v0.8
					h-1.6c-0.7-0.8-1.3-1.9-1.7-3.1c-0.4-1.2-0.6-2.6-0.6-4.1v-4.1c0-3-1-5.4-3.1-7.1c-2.1-1.7-5-2.5-8.9-2.5H343.4z M343.4,168.8
					h12.6c4.6,0,7.9-1,10.1-2.9c2.2-1.9,3.2-4.3,3.2-7.2c0-3.3-1.1-5.9-3.3-7.6c-2.2-1.8-5.4-2.6-9.7-2.6h-12.9V168.8z"/>
			</g>
			<g>
				<path fill="#FF8B00" d="M432.2,177.7l0.1,0.2c0.1,4.6-1.3,8.1-4.1,10.5c-2.8,2.4-6.6,3.6-11.2,3.6c-4.9,0-8.8-1.8-11.7-5.4
					c-2.9-3.6-4.4-8.3-4.4-14.2v-6.7c0-5.8,1.5-10.6,4.4-14.2c2.9-3.6,6.8-5.4,11.7-5.4c4.7,0,8.4,1.2,11.2,3.6
					c2.8,2.4,4.2,5.9,4.1,10.4l-0.1,0.2h-1.4c0-4-1.3-7.1-3.7-9.3c-2.5-2.2-5.9-3.3-10.2-3.3c-4.3,0-7.8,1.6-10.5,4.9
					c-2.7,3.3-4,7.6-4,12.9v6.7c0,5.4,1.3,9.7,4,13c2.7,3.3,6.2,4.9,10.5,4.9c4.3,0,7.7-1.1,10.2-3.2c2.5-2.1,3.7-5.3,3.7-9.5H432.2
					z"/>
			</g>
			<g>
				<path fill="#FF8B00" d="M485.3,178h-21.8l-5,13.3h-1.8l16.7-44.6h2l16.7,44.6h-1.8L485.3,178z M464.2,176.4h20.5l-9.3-24.9
					l-0.9-2.6h-0.2l-0.8,2.6L464.2,176.4z"/>
			</g>
			<g>
				<path fill="#FF8B00" d="M544.4,180.9c0-2.6-1-4.6-3.1-6.2c-2.1-1.6-5.7-3.2-10.7-4.8c-5-1.5-8.7-3.2-11.1-4.9
					c-2.4-1.7-3.6-4.3-3.6-7.6c0-3.3,1.4-6.1,4.2-8.1c2.8-2.1,6.3-3.1,10.6-3.1c4.4,0,8,1.1,10.7,3.4c2.7,2.3,4,5.5,3.9,9.6
					l-0.1,0.2h-1.4c0-3.3-1.2-6.1-3.7-8.3c-2.4-2.2-5.6-3.3-9.5-3.3c-4,0-7.2,0.9-9.6,2.8c-2.4,1.9-3.6,4.1-3.6,6.7
					c0,2.6,1,4.7,2.9,6.3c1.9,1.6,5.5,3.2,10.7,4.7c5.1,1.6,8.8,3.2,11.3,5c2.5,1.7,3.7,4.2,3.7,7.6c0,3.4-1.5,6.1-4.4,8.1
					c-2.9,2-6.5,3.1-10.8,3.1c-4.5,0-8.3-1-11.5-3.1c-3.2-2.1-4.8-5.4-4.7-9.9l0.1-0.2h1.4c0,4,1.5,7,4.5,8.8
					c3,1.8,6.4,2.7,10.3,2.7c3.9,0,7.1-0.9,9.7-2.7C543.2,185.8,544.4,183.6,544.4,180.9z"/>
			</g>
		</g>
		<g>
			<g>
				<g>
					<path fill="#FF8B00" d="M552.2,151.6c-2.3,0-4.1-1.8-4.1-4.1c0-2.3,1.8-4.1,4.1-4.1c2.3,0,4.1,1.8,4.1,4.1
						C556.3,149.8,554.5,151.6,552.2,151.6z M552.2,144.1c-1.9,0-3.5,1.6-3.5,3.5c0,1.9,1.6,3.5,3.5,3.5c1.9,0,3.5-1.6,3.5-3.5
						C555.7,145.6,554.2,144.1,552.2,144.1z"/>
				</g>
			</g>
			<g>
				<g>
					<path fill="#FF8B00" d="M551.6,148v1.5h-0.8v-3.9h1.3c0.4,0,0.8,0.1,1,0.3c0.2,0.2,0.4,0.5,0.4,0.8c0,0.2-0.1,0.4-0.2,0.5
						c-0.1,0.1-0.3,0.3-0.5,0.4c0.2,0.1,0.4,0.2,0.5,0.3c0.1,0.2,0.2,0.4,0.2,0.6v0.3c0,0.1,0,0.2,0,0.3c0,0.1,0.1,0.2,0.2,0.3v0.1
						H553c-0.1-0.1-0.1-0.2-0.1-0.3c0-0.1,0-0.3,0-0.4v-0.3c0-0.2-0.1-0.3-0.2-0.5c-0.1-0.1-0.3-0.2-0.4-0.2H551.6z M551.6,147.4
						h0.6c0.2,0,0.4,0,0.5-0.1c0.1-0.1,0.2-0.2,0.2-0.4c0-0.2-0.1-0.3-0.2-0.4c-0.1-0.1-0.3-0.2-0.5-0.2h-0.6V147.4z"/>
				</g>
			</g>
		</g>
	</g>
	<g>
		<path fill="#EAE3E0" d="M295.3,270.9l42.9,19.6c2.9,1.3,3.4,5.3,0.8,7.2l-45.5,34.9c-4.5,3.4-10.4,4.1-15.6,1.8l-65.3-29.8
			c-3.5-1.6-4.1-8.7-0.4-9.9l80-23.9C293.2,270.4,294.3,270.5,295.3,270.9z"/>
	</g>
	<g>
		<g>
			<path fill="#D8D1CF" d="M292.2,270.8c1-0.3,2.1-0.3,3.1,0.2l42.9,19.6c2.9,1.3,3.4,5.3,0.8,7.2l-45.5,34.9
				c-3.8,2.9-8.6,3.8-13.2,2.6v-60.9L292.2,270.8z"/>
		</g>
	</g>
	<g>
		<g>
			<path fill="#9D9996" d="M292.2,270.8c1-0.3,2.1-0.3,3.1,0.2l42.9,19.6c2.9,1.3,3.4,5.3,0.8,7.2l-45.5,34.9
				c-0.5,0.4-1.1,0.8-1.7,1.1v-62.9L292.2,270.8z"/>
		</g>
	</g>
	<g>
		<path fill="#C3BEBB" d="M295.3,268l42.9,19.6c2.9,1.3,3.4,5.3,0.8,7.2l-45.5,34.9c-4.5,3.4-10.4,4.1-15.6,1.8l-65.3-29.8
			c-3.5-1.6-3.2-6.7,0.4-7.9l79.1-25.9C293.2,267.5,294.3,267.5,295.3,268z"/>
	</g>
	<g>
		<g>
			<path fill="#ACA8A5" d="M287.6,269.4c1-0.3,2.1-0.3,3.1,0.2l42.9,19.6c2.9,1.3,4.5,7,1.9,8.9l-27.7,20.8l-59.8-36.5L287.6,269.4z
				"/>
		</g>
	</g>
	<g>
		<path fill="#C3BEBB" d="M409,131.2v197.1c0,6-9.4,13-14.9,10.5L163.8,228.1c-2.9-1.3-4.8-4.2-4.8-7.4l-4.7-202.7
			c0-6,10.9-9.3,16.3-6.8l229.1,105.5C405.4,119.2,409,124.9,409,131.2z"/>
	</g>
	<g>
		<g>
			<path fill="#B2ADAA" d="M399.9,116.7c5.6,2.6,9.2,8.2,9.2,14.4v197.1c0,6-9.4,13-14.9,10.5l-22.9-11V121.1L399.9,116.7z"/>
		</g>
	</g>
	<g>
		<path fill="#232B38" d="M403.2,134.7v197.1c0,6-6.2,9.9-11.6,7.4L157.9,231.7c-2.9-1.3-4.8-4.2-4.8-7.4V22.1c0-6,6.2-9.9,11.6-7.4
			l229.1,105.5C399.5,122.8,403.2,128.5,403.2,134.7z"/>
	</g>
	<g opacity="0.2">
		<path d="M174.6,237.4l220.6,95.5c6.2,2.7,6.2,11,0,13.8l-143.4,62.7c-2.9,1.3-6.2,1.3-9.1,0L19.3,312.7c-4.2-1.8-4.2-7.5,0-9.3
			l150.8-65.9C171.5,236.8,173.2,236.8,174.6,237.4z"/>
	</g>
	<g>
		<g>
			<path fill="#EAE3E0" d="M403.2,331.9c0,6-6.2,9.9-11.6,7.4L157.9,231.7c-2.9-1.3-4.8-4.2-4.8-7.4v-26.6l250,115.1V331.9z"/>
		</g>
	</g>
	<g opacity="0.41">
		<g>
			<path fill="#ACA8A5" d="M157.9,228.8l233.7,107.6c5.4,2.5,11.6-1.5,11.6-7.4v3c0,6-6.2,9.9-11.6,7.4L157.9,231.7
				c-2.9-1.3-4.8-4.2-4.8-7.4v-3C153.1,224.5,155,227.4,157.9,228.8z"/>
		</g>
	</g>
	<g>
		<g>
			<path fill="#332F2E" d="M392.3,134.1v158c0,2.5-2.6,4.1-4.8,3.1L164.9,193.8c-1.2-0.6-2-1.8-2-3.1v-158c0-2.5,2.6-4.1,4.8-3.1
				L390.3,131C391.5,131.5,392.3,132.7,392.3,134.1z"/>
		</g>
		<g opacity="8.000000e-002">
			<g>
				<path fill="#FFFFFF" d="M153.1,22.1c0-6,6.2-9.9,11.6-7.4l86.9,40l32.9,203.5l-131.4-60.5V22.1z"/>
			</g>
		</g>
	</g>
	<g>
		<g>
			<path fill="#FFFFFF" d="M402.9,143.8c0,0-0.1,9.6-0.2,24.1c0,7.2-0.1,15.7-0.1,24.7c0,9,0,18.7,0,28.3c0,9.6,0,19.3,0,28.3
				c0,9,0.1,17.5,0.1,24.7c0.1,14.5,0.2,24.1,0.2,24.1c0,0.1,0.1,0.2,0.2,0.2c0.1,0,0.2-0.1,0.2-0.2c0,0,0.1-9.6,0.2-24.1
				c0-7.2,0.1-15.7,0.1-24.7c0-9,0-18.7,0-28.3c0-9.6,0-19.3,0-28.3c0-9-0.1-17.5-0.1-24.7c-0.1-14.5-0.2-24.1-0.2-24.1
				c0-0.1-0.1-0.2-0.2-0.2C403,143.5,402.9,143.6,402.9,143.8z"/>
		</g>
		<g>
			<path fill="#FFFFFF" d="M189.7,26.2c0,0,12.3,5.7,30.7,14.3c9.2,4.3,20,9.3,31.5,14.6c11.5,5.3,23.9,11,36.2,16.7
				c12.3,5.7,24.6,11.3,36.2,16.6c11.6,5.3,22.4,10.2,31.6,14.5c18.5,8.4,30.9,14,30.9,14c0.1,0.1,0.3,0,0.3-0.1
				c0.1-0.1,0-0.3-0.1-0.3c0,0-12.3-5.7-30.7-14.3c-9.2-4.3-20-9.3-31.5-14.6c-11.5-5.3-23.9-11-36.2-16.7
				c-12.3-5.7-24.6-11.3-36.2-16.6C240.8,49,230,44.1,220.7,39.8c-18.5-8.4-30.9-14-30.9-14c-0.1-0.1-0.3,0-0.3,0.1
				C189.5,26,189.6,26.2,189.7,26.2z"/>
		</g>
	</g>
	<g>
		<g>
			<path fill="#FFFFFF" d="M262.9,192.2h-2.2v-40l-17.8,40h-1.6l-0.1-0.1l-18.2-40.8v40.9h-2.2v-45.1h2.7l18.5,41.8l18.5-41.8h2.3
				V192.2z M261.3,191.7h1.2v-44.1H261l-18.6,41.9h-0.5l-18.6-41.9h-1.9v44.1h1.2v-41.3l0.6-0.1l0.1,0.2l18.4,41.3h1l18.1-40.6
				l0.6,0.1V191.7z"/>
		</g>
		<g>
			<path fill="#FFFFFF" d="M324.9,192.2h-2.3l-5-13.3h-21.4l-5,13.3h-2.3l16.8-45.1h2.4l0.1,0.2L324.9,192.2z M322.9,191.7h1.3
				l-16.5-44.1H306l-16.5,44.1h1.3l5-13.3h22.1L322.9,191.7z M317.5,177.3h-21.3l9.5-25.3l0.9-2.8h0.5l0.9,2.8L317.5,177.3z
				 M297,176.8h19.8l-9.2-24.6l-0.7-2.2l-0.7,2.1L297,176.8z"/>
		</g>
		<g>
			<path fill="#FFFFFF" d="M381.9,192.3h-2l-0.1-0.1c-0.8-0.9-1.3-1.9-1.7-3.2c-0.4-1.2-0.6-2.7-0.6-4.2v-4.1c0-2.9-1-5.2-3-6.9
				c-2-1.6-4.9-2.5-8.7-2.5h-13.6v20.9h-2.2v-45.1h14.8c4.7,0,8.4,1,11,3.1c2.6,2.1,3.9,5.1,3.9,9.1c0,2.6-0.8,4.9-2.5,7
				c-1.4,1.8-3.3,3.1-5.7,3.8c2.7,0.6,4.7,1.8,6,3.4c1.4,1.8,2.1,4.2,2.1,7v4.2c0,1.4,0.2,2.6,0.5,3.7c0.3,1.1,0.9,1.9,1.6,2.6
				l0.1,0.1V192.3z M380.2,191.7h1.3v-0.4c-0.8-0.7-1.3-1.6-1.7-2.7c-0.3-1.1-0.5-2.4-0.5-3.8v-4.2c0-2.7-0.7-5-2-6.7
				c-1.3-1.7-3.6-2.9-6.7-3.4l-1.3-0.2l1.2-0.3c2.7-0.6,4.9-1.9,6.4-3.9c1.6-2,2.4-4.2,2.4-6.7c0-3.8-1.2-6.7-3.7-8.7
				c-2.5-2-6.1-3-10.7-3h-14.3v44.1h1.2v-20.9h14.1c3.9,0,6.9,0.9,9,2.6c2.1,1.7,3.2,4.2,3.2,7.3v4.1c0,1.5,0.2,2.9,0.5,4.1
				C379,190,379.5,191,380.2,191.7z M364.6,169.7h-12.8v-20.8h13.1c4.3,0,7.7,0.9,9.9,2.7c2.2,1.8,3.4,4.4,3.4,7.8
				c0,2.9-1.1,5.4-3.3,7.4C372.6,168.7,369.2,169.7,364.6,169.7z M352.3,169.2h12.3c4.5,0,7.8-0.9,9.9-2.8c2.1-1.9,3.1-4.2,3.1-7
				c0-3.2-1.1-5.7-3.2-7.4c-2.1-1.7-5.3-2.6-9.6-2.6h-12.6V169.2z"/>
		</g>
	</g>
	<g>
		<g>
			<g opacity="0.5">
				<g>
					<path fill="#FFFFFF" d="M350.3,209.4c-0.3,0-0.5-0.2-0.5-0.5v0c0-0.3,0.2-0.5,0.5-0.5c0.3,0,0.5,0.2,0.5,0.5
						C350.8,209.2,350.5,209.4,350.3,209.4z"/>
				</g>
				<g>
					<path fill="#FFFFFF" d="M350.3,206.4c-0.3,0-0.5-0.2-0.5-0.5v-0.1c0-0.3,0.2-0.5,0.5-0.5c0.3,0,0.5,0.2,0.5,0.5
						S350.5,206.4,350.3,206.4z M350.3,203.3c-0.3,0-0.5-0.2-0.5-0.5v-0.1c0-0.3,0.2-0.5,0.5-0.5c0.3,0,0.5,0.2,0.5,0.5v0.1
						C350.8,203.1,350.5,203.3,350.3,203.3z M350.3,200.1c-0.3,0-0.5-0.2-0.5-0.5v-0.1c0-0.3,0.2-0.5,0.5-0.5c0.3,0,0.5,0.2,0.5,0.5
						S350.5,200.1,350.3,200.1z M350.3,197c-0.3,0-0.5-0.2-0.5-0.5v-0.1c0-0.3,0.2-0.5,0.5-0.5c0.3,0,0.5,0.2,0.5,0.5
						C350.8,196.8,350.5,197,350.3,197z M350.3,193.9c-0.3,0-0.5-0.2-0.5-0.5v-0.1c0-0.3,0.2-0.5,0.5-0.5c0.3,0,0.5,0.2,0.5,0.5
						C350.8,193.7,350.5,193.9,350.3,193.9z M350.3,190.8c-0.3,0-0.5-0.2-0.5-0.5v-0.1c0-0.3,0.2-0.5,0.5-0.5c0.3,0,0.5,0.2,0.5,0.5
						S350.5,190.8,350.3,190.8z M350.3,187.7c-0.3,0-0.5-0.2-0.5-0.5v-0.1c0-0.3,0.2-0.5,0.5-0.5c0.3,0,0.5,0.2,0.5,0.5
						C350.8,187.5,350.5,187.7,350.3,187.7z M350.3,184.6c-0.3,0-0.5-0.2-0.5-0.5v-0.1c0-0.3,0.2-0.5,0.5-0.5c0.3,0,0.5,0.2,0.5,0.5
						S350.5,184.6,350.3,184.6z M350.3,181.5c-0.3,0-0.5-0.2-0.5-0.5V181c0-0.3,0.2-0.5,0.5-0.5c0.3,0,0.5,0.2,0.5,0.5
						C350.8,181.3,350.5,181.5,350.3,181.5z M350.3,178.4c-0.3,0-0.5-0.2-0.5-0.5v-0.1c0-0.3,0.2-0.5,0.5-0.5c0.3,0,0.5,0.2,0.5,0.5
						S350.5,178.4,350.3,178.4z M350.3,175.3c-0.3,0-0.5-0.2-0.5-0.5v-0.1c0-0.3,0.2-0.5,0.5-0.5c0.3,0,0.5,0.2,0.5,0.5
						C350.8,175.1,350.5,175.3,350.3,175.3z M350.3,172.2c-0.3,0-0.5-0.2-0.5-0.5v-0.1c0-0.3,0.2-0.5,0.5-0.5c0.3,0,0.5,0.2,0.5,0.5
						C350.8,172,350.5,172.2,350.3,172.2z M350.3,169.1c-0.3,0-0.5-0.2-0.5-0.5v-0.1c0-0.3,0.2-0.5,0.5-0.5c0.3,0,0.5,0.2,0.5,0.5
						S350.5,169.1,350.3,169.1z M350.3,166c-0.3,0-0.5-0.2-0.5-0.5v-0.1c0-0.3,0.2-0.5,0.5-0.5c0.3,0,0.5,0.2,0.5,0.5
						C350.8,165.8,350.5,166,350.3,166z M350.3,162.9c-0.3,0-0.5-0.2-0.5-0.5v-0.1c0-0.3,0.2-0.5,0.5-0.5c0.3,0,0.5,0.2,0.5,0.5
						S350.5,162.9,350.3,162.9z M350.3,159.8c-0.3,0-0.5-0.2-0.5-0.5v-0.1c0-0.3,0.2-0.5,0.5-0.5c0.3,0,0.5,0.2,0.5,0.5
						C350.8,159.6,350.5,159.8,350.3,159.8z M350.3,156.7c-0.3,0-0.5-0.2-0.5-0.5v-0.1c0-0.3,0.2-0.5,0.5-0.5c0.3,0,0.5,0.2,0.5,0.5
						S350.5,156.7,350.3,156.7z M350.3,153.6c-0.3,0-0.5-0.2-0.5-0.5v-0.1c0-0.3,0.2-0.5,0.5-0.5c0.3,0,0.5,0.2,0.5,0.5
						S350.5,153.6,350.3,153.6z M350.3,150.5c-0.3,0-0.5-0.2-0.5-0.5V150c0-0.3,0.2-0.5,0.5-0.5c0.3,0,0.5,0.2,0.5,0.5
						C350.8,150.3,350.5,150.5,350.3,150.5z M350.3,147.5c-0.3,0-0.5-0.2-0.5-0.5v-0.1c0-0.3,0.2-0.5,0.5-0.5c0.3,0,0.5,0.2,0.5,0.5
						v0.1C350.8,147.3,350.5,147.5,350.3,147.5z M350.3,144.3c-0.3,0-0.5-0.2-0.5-0.5v-0.1c0-0.3,0.2-0.5,0.5-0.5
						c0.3,0,0.5,0.2,0.5,0.5C350.8,144.1,350.5,144.3,350.3,144.3z M350.3,141.2c-0.3,0-0.5-0.2-0.5-0.5v-0.1c0-0.3,0.2-0.5,0.5-0.5
						c0.3,0,0.5,0.2,0.5,0.5S350.5,141.2,350.3,141.2z M350.3,138.1c-0.3,0-0.5-0.2-0.5-0.5v-0.1c0-0.3,0.2-0.5,0.5-0.5
						c0.3,0,0.5,0.2,0.5,0.5S350.5,138.1,350.3,138.1z M350.3,135c-0.3,0-0.5-0.2-0.5-0.5v-0.1c0-0.3,0.2-0.5,0.5-0.5
						c0.3,0,0.5,0.2,0.5,0.5C350.8,134.8,350.5,135,350.3,135z M350.3,132c-0.3,0-0.5-0.2-0.5-0.5v-0.1c0-0.3,0.2-0.5,0.5-0.5
						c0.3,0,0.5,0.2,0.5,0.5v0.1C350.8,131.8,350.5,132,350.3,132z M350.3,128.8c-0.3,0-0.5-0.2-0.5-0.5v-0.1c0-0.3,0.2-0.5,0.5-0.5
						c0.3,0,0.5,0.2,0.5,0.5C350.8,128.6,350.5,128.8,350.3,128.8z M350.3,125.7c-0.3,0-0.5-0.2-0.5-0.5v-0.1c0-0.3,0.2-0.5,0.5-0.5
						c0.3,0,0.5,0.2,0.5,0.5C350.8,125.5,350.5,125.7,350.3,125.7z"/>
				</g>
				<g>
					<path fill="#FFFFFF" d="M350.3,122.7c-0.3,0-0.5-0.2-0.5-0.5v0c0-0.3,0.2-0.5,0.5-0.5c0.3,0,0.5,0.2,0.5,0.5
						C350.8,122.4,350.5,122.7,350.3,122.7z"/>
				</g>
			</g>
			<g opacity="0.5">
				<g>
					<path fill="#FFFFFF" d="M262.5,209.4c-0.3,0-0.5-0.2-0.5-0.5v0c0-0.3,0.2-0.5,0.5-0.5c0.3,0,0.5,0.2,0.5,0.5
						C263,209.2,262.8,209.4,262.5,209.4z"/>
				</g>
				<g>
					<path fill="#FFFFFF" d="M262.5,206.4c-0.3,0-0.5-0.2-0.5-0.5v-0.1c0-0.3,0.2-0.5,0.5-0.5c0.3,0,0.5,0.2,0.5,0.5
						S262.8,206.4,262.5,206.4z M262.5,203.3c-0.3,0-0.5-0.2-0.5-0.5v-0.1c0-0.3,0.2-0.5,0.5-0.5c0.3,0,0.5,0.2,0.5,0.5v0.1
						C263,203.1,262.8,203.3,262.5,203.3z M262.5,200.1c-0.3,0-0.5-0.2-0.5-0.5v-0.1c0-0.3,0.2-0.5,0.5-0.5c0.3,0,0.5,0.2,0.5,0.5
						S262.8,200.1,262.5,200.1z M262.5,197c-0.3,0-0.5-0.2-0.5-0.5v-0.1c0-0.3,0.2-0.5,0.5-0.5c0.3,0,0.5,0.2,0.5,0.5
						C263,196.8,262.8,197,262.5,197z M262.5,193.9c-0.3,0-0.5-0.2-0.5-0.5v-0.1c0-0.3,0.2-0.5,0.5-0.5c0.3,0,0.5,0.2,0.5,0.5
						C263,193.7,262.8,193.9,262.5,193.9z M262.5,190.8c-0.3,0-0.5-0.2-0.5-0.5v-0.1c0-0.3,0.2-0.5,0.5-0.5c0.3,0,0.5,0.2,0.5,0.5
						S262.8,190.8,262.5,190.8z M262.5,187.7c-0.3,0-0.5-0.2-0.5-0.5v-0.1c0-0.3,0.2-0.5,0.5-0.5c0.3,0,0.5,0.2,0.5,0.5
						C263,187.5,262.8,187.7,262.5,187.7z M262.5,184.6c-0.3,0-0.5-0.2-0.5-0.5v-0.1c0-0.3,0.2-0.5,0.5-0.5c0.3,0,0.5,0.2,0.5,0.5
						S262.8,184.6,262.5,184.6z M262.5,181.5c-0.3,0-0.5-0.2-0.5-0.5V181c0-0.3,0.2-0.5,0.5-0.5c0.3,0,0.5,0.2,0.5,0.5
						C263,181.3,262.8,181.5,262.5,181.5z M262.5,178.4c-0.3,0-0.5-0.2-0.5-0.5v-0.1c0-0.3,0.2-0.5,0.5-0.5c0.3,0,0.5,0.2,0.5,0.5
						S262.8,178.4,262.5,178.4z M262.5,175.3c-0.3,0-0.5-0.2-0.5-0.5v-0.1c0-0.3,0.2-0.5,0.5-0.5c0.3,0,0.5,0.2,0.5,0.5
						C263,175.1,262.8,175.3,262.5,175.3z M262.5,172.2c-0.3,0-0.5-0.2-0.5-0.5v-0.1c0-0.3,0.2-0.5,0.5-0.5c0.3,0,0.5,0.2,0.5,0.5
						C263,172,262.8,172.2,262.5,172.2z M262.5,169.1c-0.3,0-0.5-0.2-0.5-0.5v-0.1c0-0.3,0.2-0.5,0.5-0.5c0.3,0,0.5,0.2,0.5,0.5
						S262.8,169.1,262.5,169.1z M262.5,166c-0.3,0-0.5-0.2-0.5-0.5v-0.1c0-0.3,0.2-0.5,0.5-0.5c0.3,0,0.5,0.2,0.5,0.5
						C263,165.8,262.8,166,262.5,166z M262.5,162.9c-0.3,0-0.5-0.2-0.5-0.5v-0.1c0-0.3,0.2-0.5,0.5-0.5c0.3,0,0.5,0.2,0.5,0.5
						S262.8,162.9,262.5,162.9z M262.5,159.8c-0.3,0-0.5-0.2-0.5-0.5v-0.1c0-0.3,0.2-0.5,0.5-0.5c0.3,0,0.5,0.2,0.5,0.5
						C263,159.6,262.8,159.8,262.5,159.8z M262.5,156.7c-0.3,0-0.5-0.2-0.5-0.5v-0.1c0-0.3,0.2-0.5,0.5-0.5c0.3,0,0.5,0.2,0.5,0.5
						S262.8,156.7,262.5,156.7z M262.5,153.6c-0.3,0-0.5-0.2-0.5-0.5v-0.1c0-0.3,0.2-0.5,0.5-0.5c0.3,0,0.5,0.2,0.5,0.5
						S262.8,153.6,262.5,153.6z M262.5,150.5c-0.3,0-0.5-0.2-0.5-0.5V150c0-0.3,0.2-0.5,0.5-0.5c0.3,0,0.5,0.2,0.5,0.5
						C263,150.3,262.8,150.5,262.5,150.5z M262.5,147.5c-0.3,0-0.5-0.2-0.5-0.5v-0.1c0-0.3,0.2-0.5,0.5-0.5c0.3,0,0.5,0.2,0.5,0.5
						v0.1C263,147.3,262.8,147.5,262.5,147.5z M262.5,144.3c-0.3,0-0.5-0.2-0.5-0.5v-0.1c0-0.3,0.2-0.5,0.5-0.5
						c0.3,0,0.5,0.2,0.5,0.5C263,144.1,262.8,144.3,262.5,144.3z M262.5,141.2c-0.3,0-0.5-0.2-0.5-0.5v-0.1c0-0.3,0.2-0.5,0.5-0.5
						c0.3,0,0.5,0.2,0.5,0.5S262.8,141.2,262.5,141.2z M262.5,138.1c-0.3,0-0.5-0.2-0.5-0.5v-0.1c0-0.3,0.2-0.5,0.5-0.5
						c0.3,0,0.5,0.2,0.5,0.5S262.8,138.1,262.5,138.1z M262.5,135c-0.3,0-0.5-0.2-0.5-0.5v-0.1c0-0.3,0.2-0.5,0.5-0.5
						c0.3,0,0.5,0.2,0.5,0.5C263,134.8,262.8,135,262.5,135z M262.5,132c-0.3,0-0.5-0.2-0.5-0.5v-0.1c0-0.3,0.2-0.5,0.5-0.5
						c0.3,0,0.5,0.2,0.5,0.5v0.1C263,131.8,262.8,132,262.5,132z M262.5,128.8c-0.3,0-0.5-0.2-0.5-0.5v-0.1c0-0.3,0.2-0.5,0.5-0.5
						c0.3,0,0.5,0.2,0.5,0.5C263,128.6,262.8,128.8,262.5,128.8z M262.5,125.7c-0.3,0-0.5-0.2-0.5-0.5v-0.1c0-0.3,0.2-0.5,0.5-0.5
						c0.3,0,0.5,0.2,0.5,0.5C263,125.5,262.8,125.7,262.5,125.7z"/>
				</g>
				<g>
					<path fill="#FFFFFF" d="M262.5,122.7c-0.3,0-0.5-0.2-0.5-0.5v0c0-0.3,0.2-0.5,0.5-0.5c0.3,0,0.5,0.2,0.5,0.5
						C263,122.4,262.8,122.7,262.5,122.7z"/>
				</g>
			</g>
			<g opacity="0.5">
				<g>
					<path fill="#FFFFFF" d="M221,209.4c-0.3,0-0.5-0.2-0.5-0.5v0c0-0.3,0.2-0.5,0.5-0.5c0.3,0,0.5,0.2,0.5,0.5
						C221.5,209.2,221.3,209.4,221,209.4z"/>
				</g>
				<g>
					<path fill="#FFFFFF" d="M221,206.4c-0.3,0-0.5-0.2-0.5-0.5v-0.1c0-0.3,0.2-0.5,0.5-0.5c0.3,0,0.5,0.2,0.5,0.5
						S221.3,206.4,221,206.4z M221,203.3c-0.3,0-0.5-0.2-0.5-0.5v-0.1c0-0.3,0.2-0.5,0.5-0.5c0.3,0,0.5,0.2,0.5,0.5v0.1
						C221.5,203.1,221.3,203.3,221,203.3z M221,200.1c-0.3,0-0.5-0.2-0.5-0.5v-0.1c0-0.3,0.2-0.5,0.5-0.5c0.3,0,0.5,0.2,0.5,0.5
						S221.3,200.1,221,200.1z M221,197c-0.3,0-0.5-0.2-0.5-0.5v-0.1c0-0.3,0.2-0.5,0.5-0.5c0.3,0,0.5,0.2,0.5,0.5
						C221.5,196.8,221.3,197,221,197z M221,193.9c-0.3,0-0.5-0.2-0.5-0.5v-0.1c0-0.3,0.2-0.5,0.5-0.5c0.3,0,0.5,0.2,0.5,0.5
						C221.5,193.7,221.3,193.9,221,193.9z M221,190.8c-0.3,0-0.5-0.2-0.5-0.5v-0.1c0-0.3,0.2-0.5,0.5-0.5c0.3,0,0.5,0.2,0.5,0.5
						S221.3,190.8,221,190.8z M221,187.7c-0.3,0-0.5-0.2-0.5-0.5v-0.1c0-0.3,0.2-0.5,0.5-0.5c0.3,0,0.5,0.2,0.5,0.5
						C221.5,187.5,221.3,187.7,221,187.7z M221,184.6c-0.3,0-0.5-0.2-0.5-0.5v-0.1c0-0.3,0.2-0.5,0.5-0.5c0.3,0,0.5,0.2,0.5,0.5
						S221.3,184.6,221,184.6z M221,181.5c-0.3,0-0.5-0.2-0.5-0.5V181c0-0.3,0.2-0.5,0.5-0.5c0.3,0,0.5,0.2,0.5,0.5
						C221.5,181.3,221.3,181.5,221,181.5z M221,178.4c-0.3,0-0.5-0.2-0.5-0.5v-0.1c0-0.3,0.2-0.5,0.5-0.5c0.3,0,0.5,0.2,0.5,0.5
						S221.3,178.4,221,178.4z M221,175.3c-0.3,0-0.5-0.2-0.5-0.5v-0.1c0-0.3,0.2-0.5,0.5-0.5c0.3,0,0.5,0.2,0.5,0.5
						C221.5,175.1,221.3,175.3,221,175.3z M221,172.2c-0.3,0-0.5-0.2-0.5-0.5v-0.1c0-0.3,0.2-0.5,0.5-0.5c0.3,0,0.5,0.2,0.5,0.5
						C221.5,172,221.3,172.2,221,172.2z M221,169.1c-0.3,0-0.5-0.2-0.5-0.5v-0.1c0-0.3,0.2-0.5,0.5-0.5c0.3,0,0.5,0.2,0.5,0.5
						S221.3,169.1,221,169.1z M221,166c-0.3,0-0.5-0.2-0.5-0.5v-0.1c0-0.3,0.2-0.5,0.5-0.5c0.3,0,0.5,0.2,0.5,0.5
						C221.5,165.8,221.3,166,221,166z M221,162.9c-0.3,0-0.5-0.2-0.5-0.5v-0.1c0-0.3,0.2-0.5,0.5-0.5c0.3,0,0.5,0.2,0.5,0.5
						S221.3,162.9,221,162.9z M221,159.8c-0.3,0-0.5-0.2-0.5-0.5v-0.1c0-0.3,0.2-0.5,0.5-0.5c0.3,0,0.5,0.2,0.5,0.5
						C221.5,159.6,221.3,159.8,221,159.8z M221,156.7c-0.3,0-0.5-0.2-0.5-0.5v-0.1c0-0.3,0.2-0.5,0.5-0.5c0.3,0,0.5,0.2,0.5,0.5
						S221.3,156.7,221,156.7z M221,153.6c-0.3,0-0.5-0.2-0.5-0.5v-0.1c0-0.3,0.2-0.5,0.5-0.5c0.3,0,0.5,0.2,0.5,0.5
						S221.3,153.6,221,153.6z M221,150.5c-0.3,0-0.5-0.2-0.5-0.5V150c0-0.3,0.2-0.5,0.5-0.5c0.3,0,0.5,0.2,0.5,0.5
						C221.5,150.3,221.3,150.5,221,150.5z M221,147.5c-0.3,0-0.5-0.2-0.5-0.5v-0.1c0-0.3,0.2-0.5,0.5-0.5c0.3,0,0.5,0.2,0.5,0.5v0.1
						C221.5,147.3,221.3,147.5,221,147.5z M221,144.3c-0.3,0-0.5-0.2-0.5-0.5v-0.1c0-0.3,0.2-0.5,0.5-0.5c0.3,0,0.5,0.2,0.5,0.5
						C221.5,144.1,221.3,144.3,221,144.3z M221,141.2c-0.3,0-0.5-0.2-0.5-0.5v-0.1c0-0.3,0.2-0.5,0.5-0.5c0.3,0,0.5,0.2,0.5,0.5
						S221.3,141.2,221,141.2z M221,138.1c-0.3,0-0.5-0.2-0.5-0.5v-0.1c0-0.3,0.2-0.5,0.5-0.5c0.3,0,0.5,0.2,0.5,0.5
						S221.3,138.1,221,138.1z M221,135c-0.3,0-0.5-0.2-0.5-0.5v-0.1c0-0.3,0.2-0.5,0.5-0.5c0.3,0,0.5,0.2,0.5,0.5
						C221.5,134.8,221.3,135,221,135z M221,132c-0.3,0-0.5-0.2-0.5-0.5v-0.1c0-0.3,0.2-0.5,0.5-0.5c0.3,0,0.5,0.2,0.5,0.5v0.1
						C221.5,131.8,221.3,132,221,132z M221,128.8c-0.3,0-0.5-0.2-0.5-0.5v-0.1c0-0.3,0.2-0.5,0.5-0.5c0.3,0,0.5,0.2,0.5,0.5
						C221.5,128.6,221.3,128.8,221,128.8z M221,125.7c-0.3,0-0.5-0.2-0.5-0.5v-0.1c0-0.3,0.2-0.5,0.5-0.5c0.3,0,0.5,0.2,0.5,0.5
						C221.5,125.5,221.3,125.7,221,125.7z"/>
				</g>
				<g>
					<path fill="#FFFFFF" d="M221,122.7c-0.3,0-0.5-0.2-0.5-0.5v0c0-0.3,0.2-0.5,0.5-0.5c0.3,0,0.5,0.2,0.5,0.5
						C221.5,122.4,221.3,122.7,221,122.7z"/>
				</g>
			</g>
		</g>
		<g opacity="0.5">
			<g>
				<path fill="#FFFFFF" d="M317.5,178.9c0-0.3,0.2-0.5,0.5-0.5l0,0c0.3,0,0.5,0.2,0.5,0.5l0,0c0,0.3-0.2,0.5-0.5,0.5l0,0
					C317.7,179.4,317.5,179.2,317.5,178.9z M314.4,178.9c0-0.3,0.2-0.5,0.5-0.5l0,0c0.3,0,0.5,0.2,0.5,0.5l0,0
					c0,0.3-0.2,0.5-0.5,0.5l0,0C314.7,179.4,314.4,179.2,314.4,178.9z M311.4,178.9c0-0.3,0.2-0.5,0.5-0.5l0,0
					c0.3,0,0.5,0.2,0.5,0.5l0,0c0,0.3-0.2,0.5-0.5,0.5l0,0C311.7,179.4,311.4,179.2,311.4,178.9z M308.4,178.9
					c0-0.3,0.2-0.5,0.5-0.5l0,0c0.3,0,0.5,0.2,0.5,0.5l0,0c0,0.3-0.2,0.5-0.5,0.5l0,0C308.6,179.4,308.4,179.2,308.4,178.9z
					 M305.4,178.9c0-0.3,0.2-0.5,0.5-0.5l0,0c0.3,0,0.5,0.2,0.5,0.5l0,0c0,0.3-0.2,0.5-0.5,0.5l0,0
					C305.6,179.4,305.4,179.2,305.4,178.9z M302.4,178.9c0-0.3,0.2-0.5,0.5-0.5l0,0c0.3,0,0.5,0.2,0.5,0.5l0,0
					c0,0.3-0.2,0.5-0.5,0.5l0,0C302.6,179.4,302.4,179.2,302.4,178.9z M299.4,178.9c0-0.3,0.2-0.5,0.5-0.5l0,0
					c0.3,0,0.5,0.2,0.5,0.5l0,0c0,0.3-0.2,0.5-0.5,0.5l0,0C299.6,179.4,299.4,179.2,299.4,178.9z M296.4,178.9
					c0-0.3,0.2-0.5,0.5-0.5l0,0c0.3,0,0.5,0.2,0.5,0.5l0,0c0,0.3-0.2,0.5-0.5,0.5l0,0C296.6,179.4,296.4,179.2,296.4,178.9z
					 M293.4,178.9c0-0.3,0.2-0.5,0.5-0.5l0,0c0.3,0,0.5,0.2,0.5,0.5l0,0c0,0.3-0.2,0.5-0.5,0.5l0,0
					C293.6,179.4,293.4,179.2,293.4,178.9z M290.4,178.9c0-0.3,0.2-0.5,0.5-0.5l0,0c0.3,0,0.5,0.2,0.5,0.5l0,0
					c0,0.3-0.2,0.5-0.5,0.5l0,0C290.6,179.4,290.4,179.2,290.4,178.9z M287.3,178.9c0-0.3,0.2-0.5,0.5-0.5l0,0
					c0.3,0,0.5,0.2,0.5,0.5l0,0c0,0.3-0.2,0.5-0.5,0.5l0,0C287.6,179.4,287.3,179.2,287.3,178.9z M284.3,178.9
					c0-0.3,0.2-0.5,0.5-0.5l0,0c0.3,0,0.5,0.2,0.5,0.5l0,0c0,0.3-0.2,0.5-0.5,0.5l0,0C284.6,179.4,284.3,179.2,284.3,178.9z
					 M281.3,178.9c0-0.3,0.2-0.5,0.5-0.5l0,0c0.3,0,0.5,0.2,0.5,0.5l0,0c0,0.3-0.2,0.5-0.5,0.5l0,0
					C281.5,179.4,281.3,179.2,281.3,178.9z M278.3,178.9c0-0.3,0.2-0.5,0.5-0.5l0,0c0.3,0,0.5,0.2,0.5,0.5l0,0
					c0,0.3-0.2,0.5-0.5,0.5l0,0C278.5,179.4,278.3,179.2,278.3,178.9z M275.3,178.9c0-0.3,0.2-0.5,0.5-0.5l0,0
					c0.3,0,0.5,0.2,0.5,0.5l0,0c0,0.3-0.2,0.5-0.5,0.5l0,0C275.5,179.4,275.3,179.2,275.3,178.9z M272.3,178.9
					c0-0.3,0.2-0.5,0.5-0.5l0,0c0.3,0,0.5,0.2,0.5,0.5l0,0c0,0.3-0.2,0.5-0.5,0.5l0,0C272.5,179.4,272.3,179.2,272.3,178.9z
					 M269.3,178.9c0-0.3,0.2-0.5,0.5-0.5l0,0c0.3,0,0.5,0.2,0.5,0.5l0,0c0,0.3-0.2,0.5-0.5,0.5l0,0
					C269.5,179.4,269.3,179.2,269.3,178.9z M266.3,178.9c0-0.3,0.2-0.5,0.5-0.5l0,0c0.3,0,0.5,0.2,0.5,0.5l0,0
					c0,0.3-0.2,0.5-0.5,0.5l0,0C266.5,179.4,266.3,179.2,266.3,178.9z"/>
			</g>
			<g>
				<path fill="#FFFFFF" d="M316.8,176.9c0-0.3,0.2-0.5,0.5-0.5l0,0c0.3,0,0.5,0.2,0.5,0.5l0,0c0,0.3-0.2,0.5-0.5,0.5l0,0
					C317,177.4,316.8,177.2,316.8,176.9z M313.8,176.9c0-0.3,0.2-0.5,0.5-0.5l0,0c0.3,0,0.5,0.2,0.5,0.5l0,0c0,0.3-0.2,0.5-0.5,0.5
					l0,0C314,177.4,313.8,177.2,313.8,176.9z M310.7,176.9c0-0.3,0.2-0.5,0.5-0.5l0,0c0.3,0,0.5,0.2,0.5,0.5l0,0
					c0,0.3-0.2,0.5-0.5,0.5l0,0C311,177.4,310.7,177.2,310.7,176.9z M307.7,176.9c0-0.3,0.2-0.5,0.5-0.5l0,0c0.3,0,0.5,0.2,0.5,0.5
					l0,0c0,0.3-0.2,0.5-0.5,0.5l0,0C308,177.4,307.7,177.2,307.7,176.9z M304.7,176.9c0-0.3,0.2-0.5,0.5-0.5l0,0
					c0.3,0,0.5,0.2,0.5,0.5l0,0c0,0.3-0.2,0.5-0.5,0.5l0,0C304.9,177.4,304.7,177.2,304.7,176.9z M301.7,176.9
					c0-0.3,0.2-0.5,0.5-0.5l0,0c0.3,0,0.5,0.2,0.5,0.5l0,0c0,0.3-0.2,0.5-0.5,0.5l0,0C301.9,177.4,301.7,177.2,301.7,176.9z
					 M298.7,176.9c0-0.3,0.2-0.5,0.5-0.5l0,0c0.3,0,0.5,0.2,0.5,0.5l0,0c0,0.3-0.2,0.5-0.5,0.5l0,0
					C298.9,177.4,298.7,177.2,298.7,176.9z M295.7,176.9c0-0.3,0.2-0.5,0.5-0.5l0,0c0.3,0,0.5,0.2,0.5,0.5l0,0
					c0,0.3-0.2,0.5-0.5,0.5l0,0C295.9,177.4,295.7,177.2,295.7,176.9z M292.7,176.9c0-0.3,0.2-0.5,0.5-0.5l0,0
					c0.3,0,0.5,0.2,0.5,0.5l0,0c0,0.3-0.2,0.5-0.5,0.5l0,0C292.9,177.4,292.7,177.2,292.7,176.9z M289.7,176.9
					c0-0.3,0.2-0.5,0.5-0.5l0,0c0.3,0,0.5,0.2,0.5,0.5l0,0c0,0.3-0.2,0.5-0.5,0.5l0,0C289.9,177.4,289.7,177.2,289.7,176.9z
					 M286.7,176.9c0-0.3,0.2-0.5,0.5-0.5l0,0c0.3,0,0.5,0.2,0.5,0.5l0,0c0,0.3-0.2,0.5-0.5,0.5l0,0
					C286.9,177.4,286.7,177.2,286.7,176.9z M283.7,176.9c0-0.3,0.2-0.5,0.5-0.5l0,0c0.3,0,0.5,0.2,0.5,0.5l0,0
					c0,0.3-0.2,0.5-0.5,0.5l0,0C283.9,177.4,283.7,177.2,283.7,176.9z M280.6,176.9c0-0.3,0.2-0.5,0.5-0.5l0,0
					c0.3,0,0.5,0.2,0.5,0.5l0,0c0,0.3-0.2,0.5-0.5,0.5l0,0C280.9,177.4,280.6,177.2,280.6,176.9z M277.6,176.9
					c0-0.3,0.2-0.5,0.5-0.5l0,0c0.3,0,0.5,0.2,0.5,0.5l0,0c0,0.3-0.2,0.5-0.5,0.5l0,0C277.8,177.4,277.6,177.2,277.6,176.9z
					 M274.6,176.9c0-0.3,0.2-0.5,0.5-0.5l0,0c0.3,0,0.5,0.2,0.5,0.5l0,0c0,0.3-0.2,0.5-0.5,0.5l0,0
					C274.8,177.4,274.6,177.2,274.6,176.9z M271.6,176.9c0-0.3,0.2-0.5,0.5-0.5l0,0c0.3,0,0.5,0.2,0.5,0.5l0,0
					c0,0.3-0.2,0.5-0.5,0.5l0,0C271.8,177.4,271.6,177.2,271.6,176.9z M268.6,176.9c0-0.3,0.2-0.5,0.5-0.5l0,0
					c0.3,0,0.5,0.2,0.5,0.5l0,0c0,0.3-0.2,0.5-0.5,0.5l0,0C268.8,177.4,268.6,177.2,268.6,176.9z M265.6,176.9
					c0-0.3,0.2-0.5,0.5-0.5l0,0c0.3,0,0.5,0.2,0.5,0.5l0,0c0,0.3-0.2,0.5-0.5,0.5l0,0C265.8,177.4,265.6,177.2,265.6,176.9z
					 M262.6,176.9c0-0.3,0.2-0.5,0.5-0.5l0,0c0.3,0,0.5,0.2,0.5,0.5l0,0c0,0.3-0.2,0.5-0.5,0.5l0,0
					C262.8,177.4,262.6,177.2,262.6,176.9z M259.6,176.9c0-0.3,0.2-0.5,0.5-0.5l0,0c0.3,0,0.5,0.2,0.5,0.5l0,0
					c0,0.3-0.2,0.5-0.5,0.5l0,0C259.8,177.4,259.6,177.2,259.6,176.9z M256.6,176.9c0-0.3,0.2-0.5,0.5-0.5l0,0
					c0.3,0,0.5,0.2,0.5,0.5l0,0c0,0.3-0.2,0.5-0.5,0.5l0,0C256.8,177.4,256.6,177.2,256.6,176.9z M253.5,176.9
					c0-0.3,0.2-0.5,0.5-0.5l0,0c0.3,0,0.5,0.2,0.5,0.5l0,0c0,0.3-0.2,0.5-0.5,0.5l0,0C253.8,177.4,253.5,177.2,253.5,176.9z
					 M250.5,176.9c0-0.3,0.2-0.5,0.5-0.5l0,0c0.3,0,0.5,0.2,0.5,0.5l0,0c0,0.3-0.2,0.5-0.5,0.5l0,0
					C250.8,177.4,250.5,177.2,250.5,176.9z M247.5,176.9c0-0.3,0.2-0.5,0.5-0.5l0,0c0.3,0,0.5,0.2,0.5,0.5l0,0
					c0,0.3-0.2,0.5-0.5,0.5l0,0C247.7,177.4,247.5,177.2,247.5,176.9z M244.5,176.9c0-0.3,0.2-0.5,0.5-0.5l0,0
					c0.3,0,0.5,0.2,0.5,0.5l0,0c0,0.3-0.2,0.5-0.5,0.5l0,0C244.7,177.4,244.5,177.2,244.5,176.9z M241.5,176.9
					c0-0.3,0.2-0.5,0.5-0.5l0,0c0.3,0,0.5,0.2,0.5,0.5l0,0c0,0.3-0.2,0.5-0.5,0.5l0,0C241.7,177.4,241.5,177.2,241.5,176.9z
					 M238.5,176.9c0-0.3,0.2-0.5,0.5-0.5l0,0c0.3,0,0.5,0.2,0.5,0.5l0,0c0,0.3-0.2,0.5-0.5,0.5l0,0
					C238.7,177.4,238.5,177.2,238.5,176.9z M235.5,176.9c0-0.3,0.2-0.5,0.5-0.5l0,0c0.3,0,0.5,0.2,0.5,0.5l0,0
					c0,0.3-0.2,0.5-0.5,0.5l0,0C235.7,177.4,235.5,177.2,235.5,176.9z M232.5,176.9c0-0.3,0.2-0.5,0.5-0.5l0,0
					c0.3,0,0.5,0.2,0.5,0.5l0,0c0,0.3-0.2,0.5-0.5,0.5l0,0C232.7,177.4,232.5,177.2,232.5,176.9z M229.5,176.9
					c0-0.3,0.2-0.5,0.5-0.5l0,0c0.3,0,0.5,0.2,0.5,0.5l0,0c0,0.3-0.2,0.5-0.5,0.5l0,0C229.7,177.4,229.5,177.2,229.5,176.9z
					 M226.4,176.9c0-0.3,0.2-0.5,0.5-0.5l0,0c0.3,0,0.5,0.2,0.5,0.5l0,0c0,0.3-0.2,0.5-0.5,0.5l0,0
					C226.7,177.4,226.4,177.2,226.4,176.9z M223.4,176.9c0-0.3,0.2-0.5,0.5-0.5l0,0c0.3,0,0.5,0.2,0.5,0.5l0,0
					c0,0.3-0.2,0.5-0.5,0.5l0,0C223.7,177.4,223.4,177.2,223.4,176.9z M220.4,176.9c0-0.3,0.2-0.5,0.5-0.5l0,0
					c0.3,0,0.5,0.2,0.5,0.5l0,0c0,0.3-0.2,0.5-0.5,0.5l0,0C220.6,177.4,220.4,177.2,220.4,176.9z M217.4,176.9
					c0-0.3,0.2-0.5,0.5-0.5l0,0c0.3,0,0.5,0.2,0.5,0.5l0,0c0,0.3-0.2,0.5-0.5,0.5l0,0C217.6,177.4,217.4,177.2,217.4,176.9z
					 M214.4,176.9c0-0.3,0.2-0.5,0.5-0.5l0,0c0.3,0,0.5,0.2,0.5,0.5l0,0c0,0.3-0.2,0.5-0.5,0.5l0,0
					C214.6,177.4,214.4,177.2,214.4,176.9z M211.4,176.9c0-0.3,0.2-0.5,0.5-0.5l0,0c0.3,0,0.5,0.2,0.5,0.5l0,0
					c0,0.3-0.2,0.5-0.5,0.5l0,0C211.6,177.4,211.4,177.2,211.4,176.9z"/>
			</g>
			<g>
				<path fill="#FFFFFF" d="M365.7,169.4c0-0.3,0.2-0.5,0.5-0.5l0,0c0.3,0,0.5,0.2,0.5,0.5l0,0c0,0.3-0.2,0.5-0.5,0.5l0,0
					C366,169.9,365.7,169.7,365.7,169.4z M362.7,169.4c0-0.3,0.2-0.5,0.5-0.5l0,0c0.3,0,0.5,0.2,0.5,0.5l0,0c0,0.3-0.2,0.5-0.5,0.5
					l0,0C362.9,169.9,362.7,169.7,362.7,169.4z M359.7,169.4c0-0.3,0.2-0.5,0.5-0.5l0,0c0.3,0,0.5,0.2,0.5,0.5l0,0
					c0,0.3-0.2,0.5-0.5,0.5l0,0C359.9,169.9,359.7,169.7,359.7,169.4z M356.7,169.4c0-0.3,0.2-0.5,0.5-0.5l0,0
					c0.3,0,0.5,0.2,0.5,0.5l0,0c0,0.3-0.2,0.5-0.5,0.5l0,0C356.9,169.9,356.7,169.7,356.7,169.4z M353.7,169.4
					c0-0.3,0.2-0.5,0.5-0.5l0,0c0.3,0,0.5,0.2,0.5,0.5l0,0c0,0.3-0.2,0.5-0.5,0.5l0,0C353.9,169.9,353.7,169.7,353.7,169.4z
					 M350.7,169.4c0-0.3,0.2-0.5,0.5-0.5l0,0c0.3,0,0.5,0.2,0.5,0.5l0,0c0,0.3-0.2,0.5-0.5,0.5l0,0
					C350.9,169.9,350.7,169.7,350.7,169.4z M347.7,169.4c0-0.3,0.2-0.5,0.5-0.5l0,0c0.3,0,0.5,0.2,0.5,0.5l0,0
					c0,0.3-0.2,0.5-0.5,0.5l0,0C347.9,169.9,347.7,169.7,347.7,169.4z M344.7,169.4c0-0.3,0.2-0.5,0.5-0.5l0,0
					c0.3,0,0.5,0.2,0.5,0.5l0,0c0,0.3-0.2,0.5-0.5,0.5l0,0C344.9,169.9,344.7,169.7,344.7,169.4z M341.6,169.4
					c0-0.3,0.2-0.5,0.5-0.5l0,0c0.3,0,0.5,0.2,0.5,0.5l0,0c0,0.3-0.2,0.5-0.5,0.5l0,0C341.9,169.9,341.6,169.7,341.6,169.4z
					 M338.6,169.4c0-0.3,0.2-0.5,0.5-0.5l0,0c0.3,0,0.5,0.2,0.5,0.5l0,0c0,0.3-0.2,0.5-0.5,0.5l0,0
					C338.9,169.9,338.6,169.7,338.6,169.4z M335.6,169.4c0-0.3,0.2-0.5,0.5-0.5l0,0c0.3,0,0.5,0.2,0.5,0.5l0,0
					c0,0.3-0.2,0.5-0.5,0.5l0,0C335.8,169.9,335.6,169.7,335.6,169.4z M332.6,169.4c0-0.3,0.2-0.5,0.5-0.5l0,0
					c0.3,0,0.5,0.2,0.5,0.5l0,0c0,0.3-0.2,0.5-0.5,0.5l0,0C332.8,169.9,332.6,169.7,332.6,169.4z M329.6,169.4
					c0-0.3,0.2-0.5,0.5-0.5l0,0c0.3,0,0.5,0.2,0.5,0.5l0,0c0,0.3-0.2,0.5-0.5,0.5l0,0C329.8,169.9,329.6,169.7,329.6,169.4z
					 M326.6,169.4c0-0.3,0.2-0.5,0.5-0.5l0,0c0.3,0,0.5,0.2,0.5,0.5l0,0c0,0.3-0.2,0.5-0.5,0.5l0,0
					C326.8,169.9,326.6,169.7,326.6,169.4z M323.6,169.4c0-0.3,0.2-0.5,0.5-0.5l0,0c0.3,0,0.5,0.2,0.5,0.5l0,0
					c0,0.3-0.2,0.5-0.5,0.5l0,0C323.8,169.9,323.6,169.7,323.6,169.4z M320.6,169.4c0-0.3,0.2-0.5,0.5-0.5l0,0
					c0.3,0,0.5,0.2,0.5,0.5l0,0c0,0.3-0.2,0.5-0.5,0.5l0,0C320.8,169.9,320.6,169.7,320.6,169.4z M317.6,169.4
					c0-0.3,0.2-0.5,0.5-0.5l0,0c0.3,0,0.5,0.2,0.5,0.5l0,0c0,0.3-0.2,0.5-0.5,0.5l0,0C317.8,169.9,317.6,169.7,317.6,169.4z
					 M314.6,169.4c0-0.3,0.2-0.5,0.5-0.5l0,0c0.3,0,0.5,0.2,0.5,0.5l0,0c0,0.3-0.2,0.5-0.5,0.5l0,0
					C314.8,169.9,314.6,169.7,314.6,169.4z M311.5,169.4c0-0.3,0.2-0.5,0.5-0.5l0,0c0.3,0,0.5,0.2,0.5,0.5l0,0
					c0,0.3-0.2,0.5-0.5,0.5l0,0C311.8,169.9,311.5,169.7,311.5,169.4z"/>
			</g>
			<g>
				<path fill="#FFFFFF" d="M392.5,147.6c0-0.3,0.2-0.5,0.5-0.5l0,0c0.3,0,0.5,0.2,0.5,0.5l0,0c0,0.3-0.2,0.5-0.5,0.5l0,0
					C392.8,148.1,392.5,147.9,392.5,147.6z M389.5,147.6c0-0.3,0.2-0.5,0.5-0.5l0,0c0.3,0,0.5,0.2,0.5,0.5l0,0
					c0,0.3-0.2,0.5-0.5,0.5l0,0C389.7,148.1,389.5,147.9,389.5,147.6z M386.5,147.6c0-0.3,0.2-0.5,0.5-0.5l0,0
					c0.3,0,0.5,0.2,0.5,0.5l0,0c0,0.3-0.2,0.5-0.5,0.5l0,0C386.7,148.1,386.5,147.9,386.5,147.6z M383.5,147.6
					c0-0.3,0.2-0.5,0.5-0.5l0,0c0.3,0,0.5,0.2,0.5,0.5l0,0c0,0.3-0.2,0.5-0.5,0.5l0,0C383.7,148.1,383.5,147.9,383.5,147.6z
					 M380.5,147.6c0-0.3,0.2-0.5,0.5-0.5l0,0c0.3,0,0.5,0.2,0.5,0.5l0,0c0,0.3-0.2,0.5-0.5,0.5l0,0
					C380.7,148.1,380.5,147.9,380.5,147.6z M377.5,147.6c0-0.3,0.2-0.5,0.5-0.5l0,0c0.3,0,0.5,0.2,0.5,0.5l0,0
					c0,0.3-0.2,0.5-0.5,0.5l0,0C377.7,148.1,377.5,147.9,377.5,147.6z M374.5,147.6c0-0.3,0.2-0.5,0.5-0.5l0,0
					c0.3,0,0.5,0.2,0.5,0.5l0,0c0,0.3-0.2,0.5-0.5,0.5l0,0C374.7,148.1,374.5,147.9,374.5,147.6z M371.4,147.6
					c0-0.3,0.2-0.5,0.5-0.5l0,0c0.3,0,0.5,0.2,0.5,0.5l0,0c0,0.3-0.2,0.5-0.5,0.5l0,0C371.7,148.1,371.4,147.9,371.4,147.6z
					 M368.4,147.6c0-0.3,0.2-0.5,0.5-0.5l0,0c0.3,0,0.5,0.2,0.5,0.5l0,0c0,0.3-0.2,0.5-0.5,0.5l0,0
					C368.7,148.1,368.4,147.9,368.4,147.6z M365.4,147.6c0-0.3,0.2-0.5,0.5-0.5l0,0c0.3,0,0.5,0.2,0.5,0.5l0,0
					c0,0.3-0.2,0.5-0.5,0.5l0,0C365.7,148.1,365.4,147.9,365.4,147.6z M362.4,147.6c0-0.3,0.2-0.5,0.5-0.5l0,0
					c0.3,0,0.5,0.2,0.5,0.5l0,0c0,0.3-0.2,0.5-0.5,0.5l0,0C362.6,148.1,362.4,147.9,362.4,147.6z M359.4,147.6
					c0-0.3,0.2-0.5,0.5-0.5l0,0c0.3,0,0.5,0.2,0.5,0.5l0,0c0,0.3-0.2,0.5-0.5,0.5l0,0C359.6,148.1,359.4,147.9,359.4,147.6z
					 M356.4,147.6c0-0.3,0.2-0.5,0.5-0.5l0,0c0.3,0,0.5,0.2,0.5,0.5l0,0c0,0.3-0.2,0.5-0.5,0.5l0,0
					C356.6,148.1,356.4,147.9,356.4,147.6z M353.4,147.6c0-0.3,0.2-0.5,0.5-0.5l0,0c0.3,0,0.5,0.2,0.5,0.5l0,0
					c0,0.3-0.2,0.5-0.5,0.5l0,0C353.6,148.1,353.4,147.9,353.4,147.6z M350.4,147.6c0-0.3,0.2-0.5,0.5-0.5l0,0
					c0.3,0,0.5,0.2,0.5,0.5l0,0c0,0.3-0.2,0.5-0.5,0.5l0,0C350.6,148.1,350.4,147.9,350.4,147.6z M347.4,147.6
					c0-0.3,0.2-0.5,0.5-0.5l0,0c0.3,0,0.5,0.2,0.5,0.5l0,0c0,0.3-0.2,0.5-0.5,0.5l0,0C347.6,148.1,347.4,147.9,347.4,147.6z
					 M344.3,147.6c0-0.3,0.2-0.5,0.5-0.5l0,0c0.3,0,0.5,0.2,0.5,0.5l0,0c0,0.3-0.2,0.5-0.5,0.5l0,0
					C344.6,148.1,344.3,147.9,344.3,147.6z M341.3,147.6c0-0.3,0.2-0.5,0.5-0.5l0,0c0.3,0,0.5,0.2,0.5,0.5l0,0
					c0,0.3-0.2,0.5-0.5,0.5l0,0C341.6,148.1,341.3,147.9,341.3,147.6z M338.3,147.6c0-0.3,0.2-0.5,0.5-0.5l0,0
					c0.3,0,0.5,0.2,0.5,0.5l0,0c0,0.3-0.2,0.5-0.5,0.5l0,0C338.6,148.1,338.3,147.9,338.3,147.6z M335.3,147.6
					c0-0.3,0.2-0.5,0.5-0.5l0,0c0.3,0,0.5,0.2,0.5,0.5l0,0c0,0.3-0.2,0.5-0.5,0.5l0,0C335.5,148.1,335.3,147.9,335.3,147.6z
					 M332.3,147.6c0-0.3,0.2-0.5,0.5-0.5l0,0c0.3,0,0.5,0.2,0.5,0.5l0,0c0,0.3-0.2,0.5-0.5,0.5l0,0
					C332.5,148.1,332.3,147.9,332.3,147.6z M329.3,147.6c0-0.3,0.2-0.5,0.5-0.5l0,0c0.3,0,0.5,0.2,0.5,0.5l0,0
					c0,0.3-0.2,0.5-0.5,0.5l0,0C329.5,148.1,329.3,147.9,329.3,147.6z M326.3,147.6c0-0.3,0.2-0.5,0.5-0.5l0,0
					c0.3,0,0.5,0.2,0.5,0.5l0,0c0,0.3-0.2,0.5-0.5,0.5l0,0C326.5,148.1,326.3,147.9,326.3,147.6z M323.3,147.6
					c0-0.3,0.2-0.5,0.5-0.5l0,0c0.3,0,0.5,0.2,0.5,0.5l0,0c0,0.3-0.2,0.5-0.5,0.5l0,0C323.5,148.1,323.3,147.9,323.3,147.6z
					 M320.3,147.6c0-0.3,0.2-0.5,0.5-0.5l0,0c0.3,0,0.5,0.2,0.5,0.5l0,0c0,0.3-0.2,0.5-0.5,0.5l0,0
					C320.5,148.1,320.3,147.9,320.3,147.6z M317.3,147.6c0-0.3,0.2-0.5,0.5-0.5l0,0c0.3,0,0.5,0.2,0.5,0.5l0,0
					c0,0.3-0.2,0.5-0.5,0.5l0,0C317.5,148.1,317.3,147.9,317.3,147.6z M314.2,147.6c0-0.3,0.2-0.5,0.5-0.5l0,0
					c0.3,0,0.5,0.2,0.5,0.5l0,0c0,0.3-0.2,0.5-0.5,0.5l0,0C314.5,148.1,314.2,147.9,314.2,147.6z M311.2,147.6
					c0-0.3,0.2-0.5,0.5-0.5l0,0c0.3,0,0.5,0.2,0.5,0.5l0,0c0,0.3-0.2,0.5-0.5,0.5l0,0C311.5,148.1,311.2,147.9,311.2,147.6z
					 M308.2,147.6c0-0.3,0.2-0.5,0.5-0.5l0,0c0.3,0,0.5,0.2,0.5,0.5l0,0c0,0.3-0.2,0.5-0.5,0.5l0,0
					C308.4,148.1,308.2,147.9,308.2,147.6z M305.2,147.6c0-0.3,0.2-0.5,0.5-0.5l0,0c0.3,0,0.5,0.2,0.5,0.5l0,0
					c0,0.3-0.2,0.5-0.5,0.5l0,0C305.4,148.1,305.2,147.9,305.2,147.6z"/>
			</g>
			<g>
				<path fill="#FFFFFF" d="M262.4,147c0-0.3,0.2-0.5,0.5-0.5l0,0c0.3,0,0.5,0.2,0.5,0.5l0,0c0,0.3-0.2,0.5-0.5,0.5l0,0
					C262.6,147.5,262.4,147.2,262.4,147z M259.4,147c0-0.3,0.2-0.5,0.5-0.5l0,0c0.3,0,0.5,0.2,0.5,0.5l0,0c0,0.3-0.2,0.5-0.5,0.5
					l0,0C259.6,147.5,259.4,147.2,259.4,147z M256.3,147c0-0.3,0.2-0.5,0.5-0.5l0,0c0.3,0,0.5,0.2,0.5,0.5l0,0
					c0,0.3-0.2,0.5-0.5,0.5l0,0C256.6,147.5,256.3,147.2,256.3,147z M253.3,147c0-0.3,0.2-0.5,0.5-0.5l0,0c0.3,0,0.5,0.2,0.5,0.5
					l0,0c0,0.3-0.2,0.5-0.5,0.5l0,0C253.6,147.5,253.3,147.2,253.3,147z M250.3,147c0-0.3,0.2-0.5,0.5-0.5l0,0
					c0.3,0,0.5,0.2,0.5,0.5l0,0c0,0.3-0.2,0.5-0.5,0.5l0,0C250.6,147.5,250.3,147.2,250.3,147z"/>
			</g>
			<g>
				<path fill="#FFFFFF" d="M331.2,191.8c0-0.3,0.2-0.5,0.5-0.5l0,0c0.3,0,0.5,0.2,0.5,0.5l0,0c0,0.3-0.2,0.5-0.5,0.5l0,0
					C331.5,192.3,331.2,192.1,331.2,191.8z M328.2,191.8c0-0.3,0.2-0.5,0.5-0.5l0,0c0.3,0,0.5,0.2,0.5,0.5l0,0
					c0,0.3-0.2,0.5-0.5,0.5l0,0C328.5,192.3,328.2,192.1,328.2,191.8z M325.2,191.8c0-0.3,0.2-0.5,0.5-0.5l0,0
					c0.3,0,0.5,0.2,0.5,0.5l0,0c0,0.3-0.2,0.5-0.5,0.5l0,0C325.5,192.3,325.2,192.1,325.2,191.8z M322.2,191.8
					c0-0.3,0.2-0.5,0.5-0.5l0,0c0.3,0,0.5,0.2,0.5,0.5l0,0c0,0.3-0.2,0.5-0.5,0.5l0,0C322.4,192.3,322.2,192.1,322.2,191.8z"/>
			</g>
			<g>
				<path fill="#FFFFFF" d="M351.5,191.8c0-0.3,0.2-0.5,0.5-0.5l0,0c0.3,0,0.5,0.2,0.5,0.5l0,0c0,0.3-0.2,0.5-0.5,0.5l0,0
					C351.7,192.3,351.5,192.1,351.5,191.8z M348.4,191.8c0-0.3,0.2-0.5,0.5-0.5l0,0c0.3,0,0.5,0.2,0.5,0.5l0,0
					c0,0.3-0.2,0.5-0.5,0.5l0,0C348.7,192.3,348.4,192.1,348.4,191.8z M345.4,191.8c0-0.3,0.2-0.5,0.5-0.5l0,0
					c0.3,0,0.5,0.2,0.5,0.5l0,0c0,0.3-0.2,0.5-0.5,0.5l0,0C345.7,192.3,345.4,192.1,345.4,191.8z"/>
			</g>
			<g>
				<path fill="#FFFFFF" d="M381.4,191.8c0-0.3,0.2-0.5,0.5-0.5l0,0c0.3,0,0.5,0.2,0.5,0.5l0,0c0,0.3-0.2,0.5-0.5,0.5l0,0
					C381.6,192.3,381.4,192.1,381.4,191.8z M378.4,191.8c0-0.3,0.2-0.5,0.5-0.5l0,0c0.3,0,0.5,0.2,0.5,0.5l0,0
					c0,0.3-0.2,0.5-0.5,0.5l0,0C378.6,192.3,378.4,192.1,378.4,191.8z M375.4,191.8c0-0.3,0.2-0.5,0.5-0.5l0,0
					c0.3,0,0.5,0.2,0.5,0.5l0,0c0,0.3-0.2,0.5-0.5,0.5l0,0C375.6,192.3,375.4,192.1,375.4,191.8z M372.3,191.8
					c0-0.3,0.2-0.5,0.5-0.5l0,0c0.3,0,0.5,0.2,0.5,0.5l0,0c0,0.3-0.2,0.5-0.5,0.5l0,0C372.6,192.3,372.3,192.1,372.3,191.8z
					 M369.3,191.8c0-0.3,0.2-0.5,0.5-0.5l0,0c0.3,0,0.5,0.2,0.5,0.5l0,0c0,0.3-0.2,0.5-0.5,0.5l0,0
					C369.6,192.3,369.3,192.1,369.3,191.8z"/>
			</g>
		</g>
	</g>
</g>
</svg>
