<?xml version="1.0" encoding="utf-8"?>
<!-- Generator: Adobe Illustrator 18.0.0, SVG Export Plug-In . SVG Version: 6.00 Build 0)  -->
<!DOCTYPE svg PUBLIC "-//W3C//DTD SVG 1.1//EN" "http://www.w3.org/Graphics/SVG/1.1/DTD/svg11.dtd">
<svg version="1.1" id="Capa_1" xmlns="http://www.w3.org/2000/svg" xmlns:xlink="http://www.w3.org/1999/xlink" x="0px" y="0px"
	 viewBox="0 0 628 530" enable-background="new 0 0 628 530" xml:space="preserve">
<g>
	<polygon opacity="0.2" points="608,441.7 339.3,525.5 62.9,337 333.1,257.7 	"/>
	<g>
		<path fill="#FF8B00" d="M533.1,84.2h-34.2v31.8h39v2.5h-41.5V50.2h41.5v2.5h-39v28.9h34.2V84.2z M551,118.5V50.2h18
			c7.1,0,12.5,1.5,16.5,4.4c3.9,2.9,5.9,7.3,5.9,13.1c0,4.1-1,7.5-3.1,10.3c-2.1,2.8-5,4.5-8.9,5.2c4.3,0.6,7.8,2.4,10.7,5.6
			c2.9,3.2,4.4,6.8,4.4,10.9c0,6-1.9,10.6-5.8,13.9c-3.9,3.3-9,4.9-15.3,4.9H551z M553.6,82.2h16.4c6.2,0,10.9-1.2,14.1-3.6
			c3.2-2.4,4.7-6.1,4.7-11.1c0-4.9-1.7-8.6-5-11c-3.3-2.5-8.2-3.7-14.7-3.7h-15.4V82.2z M553.6,84.8v31.2h19.7
			c5.8,0,10.3-1.4,13.6-4.3c3.3-2.8,5-6.8,5-11.9c0-4.2-1.6-7.7-4.8-10.6c-3.2-2.9-7.6-4.4-13.3-4.4H553.6z"/>
		<path fill="#FF8B00" d="M419.9,103l3,10.7h0.3l3-10.7l16.1-52.8h2.8l16,52.8l2.9,10.7h0.3l3-10.7l14.1-52.8h2.8l-18.4,68.3h-2.9
			l-16.9-56.9l-2.3-6.8h-0.3l-2.2,6.8l-17.1,56.9h-2.9l-18.4-68.3h2.8L419.9,103z"/>
	</g>
	<g>
		<g enable-background="new    ">
			<g>
				<polygon fill="#CF7100" points="320.9,12.5 324.7,10.9 329.8,280.7 325.9,282.3 				"/>
			</g>
			<g>
				<polygon fill="#D17200" points="325.9,282.3 329.8,280.7 609.1,441.9 605.3,443.6 				"/>
			</g>
			<g>
				<polygon fill="#020202" points="320.9,12.5 324.7,10.9 604.1,172.2 600.2,173.8 				"/>
			</g>
			<g>
				<polygon fill="#020202" points="600.2,173.8 604.1,172.2 609.1,441.9 605.3,443.6 				"/>
			</g>
			<g>
				<path fill="#874A00" d="M320.2,11.3l280.6,162l5.1,271.5l-280.6-162L320.2,11.3z M605.3,443.6l-5-269.8L320.9,12.5l5,269.8
					L605.3,443.6"/>
			</g>
			<g>
				<polygon fill="#010101" points="600.2,173.8 605.3,443.6 325.9,282.3 320.9,12.5 				"/>
			</g>
			<g>
				<polygon fill="#CF7100" points="600.9,173.3 604.7,171.7 609.8,443.2 605.9,444.8 				"/>
			</g>
			<g>
				<polygon fill="#D17200" points="320.2,11.3 324.1,9.6 604.7,171.7 600.9,173.3 				"/>
			</g>
		</g>
	</g>
	<g>
		<path fill="#FF8B00" d="M17,117.5V49.2h18.9c7.8,0,14.5,2.8,20,8.4c5.5,5.6,8.2,12.8,8.2,21.5v8.3c0,8.8-2.7,15.9-8.2,21.5
			c-5.5,5.6-12.1,8.4-20,8.4H17z M19.6,51.8V115h16.4c7.1,0,13.1-2.6,18.1-7.8c5-5.2,7.5-11.7,7.5-19.6v-8.5
			c0-7.8-2.5-14.3-7.5-19.5c-5-5.2-11-7.8-18.1-7.8H19.6z"/>
		<path fill="#FF8B00" d="M84.3,117.5h-2.5V49.2h2.5V117.5z"/>
		<path fill="#FF8B00" d="M145.9,101.1c0-4.3-1.6-7.7-4.7-10.3c-3.1-2.6-8.6-4.9-16.3-7c-7.8-2.1-13.5-4.5-17.1-7.1
			c-3.6-2.7-5.4-6.6-5.4-11.7c0-5.1,2.1-9.2,6.4-12.2c4.2-3,9.7-4.5,16.3-4.5c6.7,0,12.1,1.9,16.3,5.6c4.2,3.7,6.3,8.5,6.1,14.3
			l-0.1,0.3h-2.2c0-5.1-1.9-9.3-5.6-12.7c-3.8-3.3-8.6-5-14.6-5c-6.2,0-11.1,1.4-14.7,4.1c-3.6,2.8-5.4,6.1-5.4,10s1.5,7.1,4.5,9.7
			c3,2.6,8.4,4.8,16.2,6.8c7.6,2,13.3,4.4,17.1,7.3c3.9,2.9,5.8,7,5.8,12.3c0,5.4-2.2,9.7-6.6,12.8c-4.4,3.1-9.9,4.7-16.5,4.7
			c-6.8,0-12.7-1.6-17.7-4.8c-4.9-3.2-7.3-8.2-7.2-15.1l0.1-0.3h2.1c0,6.2,2.3,10.7,6.8,13.5c4.6,2.8,9.8,4.2,15.8,4.2
			c6,0,10.9-1.4,14.8-4.1C143.9,109.1,145.9,105.5,145.9,101.1z"/>
		<path fill="#FF8B00" d="M199,83.2h-34.2V115h39v2.5h-41.5V49.2h41.5v2.5h-39v28.9H199V83.2z"/>
		<path fill="#FF8B00" d="M266,117.5h-2.5l-43.8-63.6l-0.3,0.1v63.5h-2.6V49.2h2.6l43.8,63.4l0.3-0.1V49.2h2.5V117.5z M255.5,33.1
			c0,2.6-0.8,4.7-2.4,6.3c-1.6,1.6-3.5,2.4-5.9,2.4c-2.4,0-4.8-1-7.2-2.9c-2.4-2-4.5-2.9-6.2-2.9c-1.6,0-3,0.6-4.1,1.7
			c-1.1,1.2-1.6,2.7-1.6,4.6l-2.6-0.5c0-2.5,0.8-4.5,2.3-6.1c1.6-1.5,3.5-2.3,5.9-2.3c2.3,0,4.6,1,7.2,2.9c2.5,1.9,4.6,2.9,6.3,2.9
			c1.6,0,2.9-0.6,4-1.9c1.1-1.2,1.7-2.8,1.7-4.8L255.5,33.1z"/>
		<path fill="#FF8B00" d="M333.1,88.5c0,9.2-2.3,16.5-6.8,21.9c-4.6,5.4-10.8,8.1-18.8,8.1c-8,0-14.3-2.7-18.9-8.1
			c-4.6-5.4-6.9-12.7-6.9-21.9V78.3c0-9.2,2.3-16.5,6.8-21.9c4.5-5.4,10.8-8.1,18.9-8.1c8,0,14.3,2.7,18.9,8.1
			c4.6,5.4,6.9,12.7,6.9,21.9V88.5z M330.6,78.2c0-8.4-2-15-6-20c-4-4.9-9.8-7.4-17.2-7.4c-7.4,0-13.1,2.5-17.1,7.4
			c-4,4.9-6,11.6-6,20v10.3c0,8.4,2,15.1,6,20.1c4,4.9,9.7,7.4,17.2,7.4s13.2-2.5,17.2-7.4c4-4.9,6-11.6,6-20.1V78.2z"/>
	</g>
	<g>
		<g enable-background="new    ">
			<g>
				<polygon fill="#CF7100" points="217,305.8 219.3,304.8 219.5,316.1 217.2,317 				"/>
			</g>
			<g>
				<polygon fill="#D17200" points="217.2,317 219.5,316.1 318,372.9 315.7,373.9 				"/>
			</g>
			<g>
				<polygon fill="#020202" points="217,305.8 219.3,304.8 317.8,361.6 315.5,362.6 				"/>
			</g>
			<g>
				<polygon fill="#020202" points="315.5,362.6 317.8,361.6 318,372.9 315.7,373.9 				"/>
			</g>
			<g>
				<polygon fill="#010101" points="315.5,362.6 315.7,373.9 217.2,317 217,305.8 				"/>
			</g>
			<g>
				<polygon fill="#CF7100" points="316.1,362.1 318.4,361.1 318.7,374.1 316.4,375.1 				"/>
			</g>
			<g>
				<polygon fill="#D17200" points="216.4,304.5 218.7,303.5 318.4,361.1 316.1,362.1 				"/>
			</g>
			<g>
				<path fill="#874A00" d="M216.4,304.5l99.8,57.6l0.2,13l-99.8-57.6L216.4,304.5z M315.7,373.9l-0.2-11.3L217,305.8l0.2,11.3
					L315.7,373.9"/>
			</g>
		</g>
		<g enable-background="new    ">
			<g>
				<polygon fill="#CF7100" points="216.7,287.6 219,286.6 219.2,297.8 216.9,298.8 				"/>
			</g>
			<g>
				<polygon fill="#D17200" points="216.9,298.8 219.2,297.8 483.1,450.2 480.8,451.2 				"/>
			</g>
			<g>
				<polygon fill="#020202" points="216.7,287.6 219,286.6 482.9,438.9 480.6,439.9 				"/>
			</g>
			<g>
				<polygon fill="#020202" points="480.6,439.9 482.9,438.9 483.1,450.2 480.8,451.2 				"/>
			</g>
			<g>
				<path fill="#874A00" d="M216,286.3l265.2,153.1l0.2,13L216.3,299.3L216,286.3z M480.8,451.2l-0.2-11.3L216.7,287.6l0.2,11.3
					L480.8,451.2"/>
			</g>
			<g>
				<polygon fill="#010101" points="480.6,439.9 480.8,451.2 216.9,298.8 216.7,287.6 				"/>
			</g>
			<g>
				<polygon fill="#CF7100" points="481.2,439.4 483.5,438.4 483.7,451.4 481.4,452.4 				"/>
			</g>
			<g>
				<polygon fill="#D17200" points="216,286.3 218.3,285.3 483.5,438.4 481.2,439.4 				"/>
			</g>
		</g>
		<g enable-background="new    ">
			<g>
				<polygon fill="#CF7100" points="282.3,223.3 284.6,222.3 286,296.1 283.7,297.1 				"/>
			</g>
			<g>
				<polygon fill="#D17200" points="283.7,297.1 286,296.1 346.5,331 344.2,332 				"/>
			</g>
			<g>
				<polygon fill="#020202" points="282.3,223.3 284.6,222.3 345.1,257.3 342.8,258.3 				"/>
			</g>
			<g>
				<polygon fill="#020202" points="342.8,258.3 345.1,257.3 346.5,331 344.2,332 				"/>
			</g>
			<g>
				<path fill="#874A00" d="M281.7,222.1l61.8,35.7l1.4,75.5l-61.8-35.7L281.7,222.1z M344.2,332l-1.4-73.7l-60.5-34.9l1.4,73.7
					L344.2,332"/>
			</g>
			<g>
				<polygon fill="#010101" points="342.8,258.3 344.2,332 283.7,297.1 282.3,223.3 				"/>
			</g>
			<g>
				<polygon fill="#CF7100" points="343.5,257.8 345.8,256.8 347.2,332.3 344.9,333.2 				"/>
			</g>
			<g>
				<polygon fill="#D17200" points="281.7,222.1 284,221.1 345.8,256.8 343.5,257.8 				"/>
			</g>
		</g>
		<g enable-background="new    ">
			<g>
				<polygon fill="#CF7100" points="214.8,184.3 217.1,183.3 218.4,257.1 216.1,258.1 				"/>
			</g>
			<g>
				<polygon fill="#D17200" points="216.1,258.1 218.4,257.1 278.9,292 276.6,293 				"/>
			</g>
			<g>
				<polygon fill="#020202" points="214.8,184.3 217.1,183.3 277.6,218.3 275.3,219.2 				"/>
			</g>
			<g>
				<polygon fill="#020202" points="275.3,219.2 277.6,218.3 278.9,292 276.6,293 				"/>
			</g>
			<g>
				<path fill="#874A00" d="M214.1,183.1l61.8,35.7l1.4,75.5l-61.8-35.7L214.1,183.1z M276.6,293l-1.4-73.7l-60.5-34.9l1.4,73.7
					L276.6,293"/>
			</g>
			<g>
				<polygon fill="#010101" points="275.3,219.2 276.6,293 216.1,258.1 214.8,184.3 				"/>
			</g>
			<g>
				<polygon fill="#CF7100" points="275.9,218.8 278.2,217.8 279.6,293.2 277.3,294.2 				"/>
			</g>
			<g>
				<polygon fill="#D17200" points="214.1,183.1 216.4,182.1 278.2,217.8 275.9,218.8 				"/>
			</g>
		</g>
		<g enable-background="new    ">
			<g>
				<polygon fill="#CF7100" points="350.6,262.7 352.9,261.7 354.2,335.5 351.9,336.5 				"/>
			</g>
			<g>
				<polygon fill="#D17200" points="351.9,336.5 354.2,335.5 414.7,370.4 412.4,371.4 				"/>
			</g>
			<g>
				<polygon fill="#020202" points="350.6,262.7 352.9,261.7 413.4,296.7 411.1,297.7 				"/>
			</g>
			<g>
				<polygon fill="#020202" points="411.1,297.7 413.4,296.7 414.7,370.4 412.4,371.4 				"/>
			</g>
			<g>
				<polygon fill="#010101" points="411.1,297.7 412.4,371.4 351.9,336.5 350.6,262.7 				"/>
			</g>
			<g>
				<polygon fill="#CF7100" points="411.7,297.2 414,296.2 415.4,371.6 413.1,372.6 				"/>
			</g>
			<g>
				<polygon fill="#D17200" points="349.9,261.5 352.2,260.5 414,296.2 411.7,297.2 				"/>
			</g>
			<g>
				<path fill="#874A00" d="M349.9,261.5l61.8,35.7l1.4,75.5L351.3,337L349.9,261.5z M412.4,371.4l-1.4-73.7l-60.5-34.9l1.4,73.7
					L412.4,371.4"/>
			</g>
		</g>
		<g enable-background="new    ">
			<g>
				<polygon fill="#CF7100" points="418.1,301.7 420.4,300.7 421.8,374.5 419.5,375.5 				"/>
			</g>
			<g>
				<polygon fill="#D17200" points="419.5,375.5 421.8,374.5 482.3,409.4 480,410.4 				"/>
			</g>
			<g>
				<polygon fill="#020202" points="418.1,301.7 420.4,300.7 480.9,335.7 478.6,336.7 				"/>
			</g>
			<g>
				<polygon fill="#020202" points="478.6,336.7 480.9,335.7 482.3,409.4 480,410.4 				"/>
			</g>
			<g>
				<polygon fill="#010101" points="478.6,336.7 480,410.4 419.5,375.5 418.1,301.7 				"/>
			</g>
			<g>
				<polygon fill="#CF7100" points="479.3,336.2 481.6,335.2 483,410.7 480.7,411.7 				"/>
			</g>
			<g>
				<polygon fill="#D17200" points="417.5,300.5 419.8,299.5 481.6,335.2 479.3,336.2 				"/>
			</g>
			<g>
				<path fill="#874A00" d="M417.5,300.5l61.8,35.7l1.4,75.5L418.9,376L417.5,300.5z M480,410.4l-1.4-73.7l-60.5-34.9l1.4,73.7
					L480,410.4"/>
			</g>
		</g>
		<g enable-background="new    ">
			<g>
				<polygon fill="#CF7100" points="212.9,87.2 215.2,86.2 216.7,166.8 214.5,167.8 				"/>
			</g>
			<g>
				<polygon fill="#D17200" points="214.5,167.8 216.7,166.8 480.6,319.2 478.3,320.2 				"/>
			</g>
			<g>
				<polygon fill="#020202" points="212.9,87.2 215.2,86.2 479.1,238.5 476.8,239.5 				"/>
			</g>
			<g>
				<polygon fill="#020202" points="476.8,239.5 479.1,238.5 480.6,319.2 478.3,320.2 				"/>
			</g>
			<g>
				<polygon fill="#010101" points="476.8,239.5 478.3,320.2 214.5,167.8 212.9,87.2 				"/>
			</g>
			<g>
				<polygon fill="#CF7100" points="477.4,239 479.7,238 481.3,320.4 479,321.4 				"/>
			</g>
			<g>
				<polygon fill="#D17200" points="212.3,85.9 214.6,84.9 479.7,238 477.4,239 				"/>
			</g>
			<g>
				<path fill="#874A00" d="M212.3,85.9L477.4,239l1.5,82.4L213.8,168.3L212.3,85.9z M478.3,320.2l-1.5-80.7L212.9,87.2l1.5,80.7
					L478.3,320.2"/>
			</g>
		</g>
		<g enable-background="new    ">
			<g>
				<polygon fill="#CF7100" points="280.2,107.1 282.5,106.1 282.7,117.4 280.4,118.4 				"/>
			</g>
			<g>
				<polygon fill="#D17200" points="280.4,118.4 282.7,117.4 479,230.7 476.7,231.7 				"/>
			</g>
			<g>
				<polygon fill="#020202" points="280.2,107.1 282.5,106.1 478.8,219.4 476.5,220.4 				"/>
			</g>
			<g>
				<polygon fill="#020202" points="476.5,220.4 478.8,219.4 479,230.7 476.7,231.7 				"/>
			</g>
			<g>
				<polygon fill="#010101" points="476.5,220.4 476.7,231.7 280.4,118.4 280.2,107.1 				"/>
			</g>
			<g>
				<polygon fill="#CF7100" points="477.1,219.9 479.4,218.9 479.6,232 477.3,232.9 				"/>
			</g>
			<g>
				<polygon fill="#D17200" points="279.5,105.9 281.8,104.9 479.4,218.9 477.1,219.9 				"/>
			</g>
			<g>
				<path fill="#874A00" d="M279.5,105.9l197.6,114.1l0.2,13L279.8,118.9L279.5,105.9z M476.7,231.7l-0.2-11.3L280.2,107.1l0.2,11.3
					L476.7,231.7"/>
			</g>
		</g>
		<g enable-background="new    ">
			<g>
				<polygon fill="#CF7100" points="212.6,68.1 214.9,67.1 215.1,78.4 212.8,79.4 				"/>
			</g>
			<g>
				<polygon fill="#D17200" points="212.8,79.4 215.1,78.4 275.6,113.3 273.3,114.3 				"/>
			</g>
			<g>
				<polygon fill="#020202" points="212.6,68.1 214.9,67.1 275.4,102 273.1,103 				"/>
			</g>
			<g>
				<polygon fill="#020202" points="273.1,103 275.4,102 275.6,113.3 273.3,114.3 				"/>
			</g>
			<g>
				<path fill="#874A00" d="M211.9,66.8l61.8,35.7l0.2,13l-61.8-35.7L211.9,66.8z M273.3,114.3l-0.2-11.3l-60.5-34.9l0.2,11.3
					L273.3,114.3"/>
			</g>
			<g>
				<polygon fill="#010101" points="273.1,103 273.3,114.3 212.8,79.4 212.6,68.1 				"/>
			</g>
			<g>
				<polygon fill="#CF7100" points="273.7,102.5 276,101.5 276.3,114.5 274,115.5 				"/>
			</g>
			<g>
				<polygon fill="#D17200" points="211.9,66.8 214.2,65.8 276,101.5 273.7,102.5 				"/>
			</g>
		</g>
	</g>
	<g>
		<g enable-background="new    ">
			<g>
				<polygon fill="#FE8A00" points="167.9,138.8 171,137.5 180.3,155 177.3,156.3 				"/>
			</g>
			<g>
				<polygon fill="#010101" points="180.4,153.8 183.4,152.5 180.3,155 177.3,156.3 				"/>
			</g>
			<g>
				<polygon fill="#020202" points="174.3,142.5 177.4,141.1 183.4,152.5 180.4,153.8 				"/>
			</g>
			<g>
				<polygon fill="#FE8A00" points="175.2,143 178.3,141.7 184.4,153 181.3,154.4 				"/>
			</g>
			<g>
				<polygon fill="#804600" points="181.3,154.4 184.4,153 180.4,156.2 177.3,157.5 				"/>
			</g>
			<g>
				<polygon fill="#804600" points="176.8,131.8 179.9,130.4 171,137.5 167.9,138.8 				"/>
			</g>
			<g>
				<polygon fill="#010101" points="176.8,131.8 180.1,137.9 174.3,142.5 180.4,153.8 177.3,156.3 167.9,138.8 				"/>
			</g>
			<g>
				<polygon fill="#020202" points="176.8,131.8 179.9,130.4 183.1,136.6 180.1,137.9 				"/>
			</g>
			<g>
				<polygon fill="#010101" points="180.1,137.9 183.1,136.6 177.4,141.1 174.3,142.5 				"/>
			</g>
			<g>
				<path fill="#874A00" d="M181,138.4l-5.8,4.6l6.1,11.4l-4,3.2L167,138.2l9.8-7.7L181,138.4z M180.4,153.8l-6.1-11.4l5.8-4.6
					l-3.3-6.1l-8.9,7l9.3,17.5L180.4,153.8"/>
			</g>
			<g>
				<polygon fill="#804600" points="181,138.4 184.1,137.1 178.3,141.7 175.2,143 				"/>
			</g>
			<g>
				<polygon fill="#FE8A00" points="176.8,130.5 179.9,129.2 184.1,137.1 181,138.4 				"/>
			</g>
		</g>
		<g enable-background="new    ">
			<g>
				<polygon fill="#FE8A00" points="410.9,286.9 413.9,285.6 417.2,291.7 414.1,293.1 				"/>
			</g>
			<g>
				<polygon fill="#FE8A00" points="410.6,271 413.6,269.6 419.7,281 416.6,282.4 				"/>
			</g>
			<g>
				<polygon fill="#804600" points="416.6,282.4 419.7,281 413.9,285.6 410.9,286.9 				"/>
			</g>
			<g>
				<polygon fill="#804600" points="413.7,268.5 416.7,267.2 413.6,269.6 410.6,271 				"/>
			</g>
			<g>
				<polygon fill="#010101" points="413.7,268.5 423,286 414.1,293.1 410.9,286.9 416.6,282.4 410.6,271 				"/>
			</g>
			<g>
				<polygon fill="#010101" points="423,286 426.1,284.7 417.2,291.7 414.1,293.1 				"/>
			</g>
			<g>
				<polygon fill="#020202" points="413.7,268.5 416.7,267.2 426.1,284.7 423,286 				"/>
			</g>
			<g>
				<path fill="#874A00" d="M413.6,267.3l10.3,19.3l-9.8,7.7l-4.2-7.9l5.8-4.6l-6.1-11.4L413.6,267.3z M410.9,286.9l3.3,6.1l8.9-7
					l-9.3-17.5l-3.1,2.5l6.1,11.4L410.9,286.9"/>
			</g>
			<g>
				<polygon fill="#804600" points="423.9,286.6 427,285.2 417.2,293 414.1,294.3 				"/>
			</g>
			<g>
				<polygon fill="#FE8A00" points="413.6,267.3 416.7,266 427,285.2 423.9,286.6 				"/>
			</g>
		</g>
	</g>
	<g>
		<g enable-background="new    ">
			<g>
				<polygon fill="#FE8A00" points="198.1,232.1 204.2,229.4 249.9,315.3 243.8,317.9 				"/>
			</g>
			<g>
				<polygon fill="#804600" points="243.8,317.9 249.9,315.3 206.5,349.6 200.4,352.2 				"/>
			</g>
			<g>
				<polygon fill="#874A00" points="198.1,232.1 243.8,317.9 200.4,352.2 190.7,334.2 225,307 188.9,239.3 				"/>
			</g>
		</g>
		<g enable-background="new    ">
			<g>
				<polygon fill="#FE8A00" points="93.5,231.1 99.6,228.5 135.7,296.2 129.5,298.8 				"/>
			</g>
			<g>
				<polygon fill="#804600" points="129.5,298.8 135.7,296.2 126.5,303.4 120.4,306.1 				"/>
			</g>
			<g>
				<polygon fill="#804600" points="127.8,204 133.9,201.4 99.6,228.5 93.5,231.1 				"/>
			</g>
			<g>
				<polygon fill="#FE8A00" points="118.1,185.9 124.3,183.3 133.9,201.4 127.8,204 				"/>
			</g>
			<g>
				<polygon fill="#874A00" points="118.1,185.9 127.8,204 93.5,231.1 129.5,298.8 120.4,306.1 74.7,220.3 				"/>
			</g>
		</g>
		<g enable-background="new    ">
			<g>
				<polygon fill="#E67D00" points="162.6,198.5 168.7,195.8 181.8,206.7 175.7,209.3 				"/>
			</g>
			<g>
				<polygon fill="#B96500" points="175.7,209.3 181.8,206.7 164.5,338.5 158.4,341.1 				"/>
			</g>
			<g>
				<polygon fill="#874A00" points="162.6,198.5 175.7,209.3 158.4,341.1 145.3,330.3 				"/>
			</g>
		</g>
	</g>
</g>
</svg>
