<?xml version="1.0" encoding="utf-8"?>
<!-- Generator: Adobe Illustrator 18.0.0, SVG Export Plug-In . SVG Version: 6.00 Build 0)  -->
<!DOCTYPE svg PUBLIC "-//W3C//DTD SVG 1.1//EN" "http://www.w3.org/Graphics/SVG/1.1/DTD/svg11.dtd">
<svg version="1.1" id="Capa_1" xmlns="http://www.w3.org/2000/svg" xmlns:xlink="http://www.w3.org/1999/xlink" x="0px" y="0px"
	 viewBox="0 0 716 434" enable-background="new 0 0 716 434" xml:space="preserve">
<g>
	<g>
		<path fill="#FF8B00" d="M258.6,232.1v-67.9h20.2c7.8,0,14.4,2.8,19.9,8.4c5.4,5.6,8.2,12.7,8.2,21.4v8.3c0,8.7-2.7,15.8-8.2,21.4
			c-5.4,5.6-12.1,8.4-19.9,8.4H258.6z M261.1,166.7v62.8h17.7c7.1,0,13.1-2.6,18-7.7c5-5.2,7.5-11.7,7.5-19.5v-8.4
			c0-7.8-2.5-14.2-7.5-19.4c-5-5.2-11-7.7-18-7.7H261.1z"/>
		<path fill="#FF8B00" d="M326.9,232.1h-2.5v-67.9h2.5V232.1z"/>
		<path fill="#FF8B00" d="M387.5,216.1c0-3.9-1.6-7-4.8-9.4c-3.2-2.4-8.6-4.8-16.3-7.3c-7.6-2.3-13.3-4.8-16.9-7.4
			c-3.6-2.6-5.4-6.5-5.4-11.6c0-5.1,2.1-9.2,6.4-12.4c4.2-3.2,9.6-4.7,16.2-4.7c6.8,0,12.2,1.7,16.3,5.2c4.1,3.5,6.1,8.3,6,14.6
			l-0.1,0.3h-2.1c0-5.1-1.9-9.3-5.6-12.6c-3.7-3.3-8.6-5-14.5-5c-6.1,0-11,1.4-14.6,4.3c-3.6,2.9-5.4,6.3-5.4,10.2
			c0,3.9,1.5,7.1,4.4,9.5c2.9,2.4,8.3,4.8,16.2,7.2c7.7,2.4,13.4,4.9,17.2,7.6c3.8,2.6,5.6,6.5,5.6,11.5c0,5.2-2.2,9.3-6.7,12.4
			c-4.4,3.1-9.9,4.7-16.5,4.7c-6.8,0-12.7-1.6-17.6-4.8c-4.9-3.2-7.3-8.2-7.1-15l0.1-0.3h2.1c0,6.2,2.3,10.6,6.8,13.4
			c4.5,2.8,9.8,4.2,15.7,4.2c5.9,0,10.8-1.4,14.7-4.1C385.5,223.7,387.5,220.2,387.5,216.1z"/>
		<path fill="#FF8B00" d="M439.6,198h-32.6v31.6h37.4v2.5h-39.9v-67.9h39.9v2.5h-37.4v28.7h32.6V198z"/>
		<path fill="#FF8B00" d="M505.9,232.1h-2.5l-43.5-63.2l-0.3,0.1v63.1H457v-67.9h2.6l43.5,63.1l0.3-0.1v-63h2.5V232.1z M495.4,148.1
			c0,2.5-0.8,4.6-2.4,6.2c-1.6,1.6-3.5,2.4-5.8,2.4c-2.4,0-4.8-1-7.2-2.9c-2.4-1.9-4.5-2.9-6.2-2.9c-1.6,0-3,0.6-4,1.7
			c-1.1,1.2-1.6,2.7-1.6,4.6l-2.6-0.5c0-2.5,0.8-4.5,2.3-6c1.6-1.5,3.5-2.3,5.9-2.3c2.2,0,4.6,1,7.1,2.9c2.5,1.9,4.6,2.9,6.2,2.9
			c1.6,0,2.9-0.6,4-1.8c1.1-1.2,1.7-2.8,1.7-4.7L495.4,148.1z"/>
		<path fill="#FF8B00" d="M572.7,203.2c0,9.2-2.3,16.4-6.8,21.8c-4.5,5.4-10.8,8-18.7,8c-8,0-14.3-2.7-18.8-8
			c-4.6-5.4-6.8-12.6-6.8-21.8v-10.2c0-9.1,2.3-16.4,6.8-21.8c4.5-5.4,10.8-8.1,18.8-8.1c8,0,14.2,2.7,18.8,8.1
			c4.6,5.4,6.9,12.6,6.9,21.8V203.2z M570.2,193c0-8.3-2-15-6-19.9c-4-4.9-9.7-7.4-17.1-7.4c-7.4,0-13,2.5-17,7.4
			c-4,4.9-6,11.5-6,19.9v10.3c0,8.4,2,15,6,20c4,4.9,9.7,7.4,17.1,7.4c7.4,0,13.1-2.4,17.1-7.3c4-4.9,6-11.6,6-20V193z"/>
		<path fill="#FF8B00" d="M293.8,293h-32.6v31.6h37.4v2.5h-39.9v-67.9h39.9v2.5h-37.4v28.7h32.6V293z"/>
		<path fill="#FF8B00" d="M311.2,327.1v-67.9h20.2c7.8,0,14.4,2.8,19.9,8.4c5.4,5.6,8.2,12.7,8.2,21.4v8.3c0,8.7-2.7,15.8-8.2,21.4
			c-5.4,5.6-12.1,8.4-19.9,8.4H311.2z M313.8,261.7v62.8h17.7c7.1,0,13.1-2.6,18-7.7c5-5.2,7.5-11.7,7.5-19.5v-8.4
			c0-7.8-2.5-14.2-7.5-19.4c-5-5.2-11-7.7-18-7.7H313.8z"/>
		<path fill="#FF8B00" d="M379.5,327.1H377v-67.9h2.5V327.1z"/>
		<path fill="#FF8B00" d="M443.8,261.7H420v65.4h-2.5v-65.4H392v-2.5h51.8V261.7z"/>
		<path fill="#FF8B00" d="M502.5,298.2c0,9.2-2.3,16.4-6.8,21.8c-4.5,5.4-10.8,8-18.7,8c-8,0-14.3-2.7-18.8-8
			c-4.6-5.4-6.8-12.6-6.8-21.8v-10.2c0-9.1,2.3-16.4,6.8-21.8c4.5-5.4,10.8-8.1,18.8-8.1c8,0,14.2,2.7,18.8,8.1
			c4.6,5.4,6.9,12.6,6.9,21.8V298.2z M500,288c0-8.3-2-15-6-19.9c-4-4.9-9.7-7.4-17.1-7.4c-7.4,0-13,2.5-17,7.4
			c-4,4.9-6,11.5-6,19.9v10.3c0,8.4,2,15,6,20c4,4.9,9.7,7.4,17.1,7.4c7.4,0,13.1-2.4,17.1-7.3c4-4.9,6-11.6,6-20V288z"/>
		<path fill="#FF8B00" d="M520.3,295.3v31.9h-2.5v-67.9h22.1c7.1,0,12.7,1.5,16.5,4.6c3.9,3.1,5.8,7.6,5.8,13.5
			c0,3.8-1.2,7.3-3.7,10.4c-2.4,3.1-5.8,5.2-10,6.1c4.9,0.8,8.4,2.6,10.5,5.4c2.1,2.7,3.2,6.2,3.2,10.5v6.4c0,2.1,0.3,4,0.8,5.7
			c0.5,1.7,1.4,3,2.5,4.1v1.2H563c-1.1-1.3-2-2.9-2.5-4.7c-0.6-1.9-0.8-4-0.8-6.3v-6.2c0-4.6-1.6-8.2-4.7-10.8
			c-3.2-2.6-7.7-3.9-13.5-3.9H520.3z M520.3,292.7h19.1c6.9,0,12-1.5,15.3-4.4c3.3-2.9,4.9-6.6,4.9-10.9c0-5.1-1.7-8.9-5-11.6
			c-3.3-2.7-8.2-4-14.8-4h-19.6V292.7z"/>
		<path fill="#FF8B00" d="M586,327.1h-2.5v-67.9h2.5V327.1z"/>
		<path fill="#FF8B00" d="M643.1,306.8H610l-7.6,20.3h-2.8l25.4-67.9h3.1l25.4,67.9h-2.8L643.1,306.8z M610.9,304.3h31.3l-14.2-38
			l-1.3-4h-0.3l-1.3,4L610.9,304.3z"/>
		<path fill="#FF8B00" d="M666.9,324.6h36.7v2.5h-39.3v-67.9h2.6V324.6z"/>
	</g>
	<g>
		<g>
			<polygon fill="#FC8A00" points="70.9,146.7 97.7,158.3 92.7,425.7 65.9,414.1 			"/>
		</g>
		<g>
			<polygon fill="#985300" points="70.9,146.7 65.9,414.1 63.9,415.3 68.9,147.9 			"/>
		</g>
		<g>
			<g enable-background="new    ">
				<g>
					<polygon fill="#FC8A00" points="279.1,19.6 281.4,20.5 275.8,320.7 273.5,319.7 					"/>
				</g>
				<g>
					<polygon fill="#8A4B00" points="273.5,319.7 275.8,320.7 91.4,427.2 89.1,426.2 					"/>
				</g>
				<g>
					<polygon fill="#985300" points="279.1,19.6 273.5,319.7 89.1,426.2 94.7,126 					"/>
				</g>
			</g>
		</g>
		<g>
			<g enable-background="new    ">
				<g>
					<polygon fill="#FCFCFC" points="251.7,17.1 274.6,27 269.2,315.9 246.3,306 					"/>
				</g>
				<g>
					<polygon fill="#8A8A8A" points="246.3,306 269.2,315.9 91.3,418.7 68.3,408.7 					"/>
				</g>
				<g>
					<polygon fill="#989898" points="251.7,17.1 246.3,306 68.3,408.7 73.7,119.8 					"/>
				</g>
			</g>
		</g>
		<g>
			<g enable-background="new    ">
				<g>
					<polygon fill="#FC8A00" points="253.8,8.8 256.1,9.8 250.5,310 248.2,309 					"/>
				</g>
				<g>
					<polygon fill="#8A4B00" points="248.2,309 250.5,310 66.2,416.4 63.9,415.5 					"/>
				</g>
				<g>
					<polygon fill="#985300" points="253.8,8.8 248.2,309 63.9,415.5 69.5,115.3 					"/>
				</g>
			</g>
		</g>
		<g>
			<g enable-background="new    ">
				<g>
					<polygon fill="#8A8A8A" points="71.7,118.1 74,119.1 73.7,119.3 71.4,118.3 					"/>
				</g>
				<g enable-background="new    ">
					<defs>
						<path id="SVGID_1_" enable-background="new    " d="M71.4,118.3l2.3,1c-2.1,10.3-4,22.8-6.1,33l-2.3-1
							C67.3,141.1,69.3,128.6,71.4,118.3z"/>
					</defs>
					<clipPath id="SVGID_2_">
						<use xlink:href="#SVGID_1_"  overflow="visible"/>
					</clipPath>
					<g clip-path="url(#SVGID_2_)" enable-background="new    ">
						<path fill="#FAFAFA" d="M71.4,118.3l2.3,1c-2.1,10.3-4,22.8-6.1,33l-2.3-1C67.3,141.1,69.3,128.6,71.4,118.3"/>
					</g>
				</g>
				<g>
					<polygon fill="#F7F7F7" points="65.2,151.3 67.5,152.3 61.4,183.2 59.2,182.3 					"/>
				</g>
				<g>
					<polygon fill="#8A8A8A" points="45.6,260.2 47.9,261.2 13.3,281.2 11,280.2 					"/>
				</g>
				<g>
					<polygon fill="#F8F8F8" points="53.9,217.4 56.1,218.3 47.9,261.2 45.6,260.2 					"/>
				</g>
				<g>
					<polygon fill="#8A8A8A" points="88,197.7 90.3,198.6 56.1,218.3 53.9,217.4 					"/>
				</g>
				<g>
					<polygon fill="#EFEFEF" points="96,74.7 98.2,75.7 134.8,211 132.5,210 					"/>
				</g>
				<g>
					<path fill="#989898" d="M96,74.7L132.5,210L96,231.1l-8-33.5l-34.1,19.7l-8.2,42.8l-34.6,20l40-179.6L96,74.7z M59.2,182.3
						l24.4-14.1l-5.7-24.3c-1.9-7.7-4.1-17.8-6.1-25.7l-0.3,0.2c-2.1,10.3-4,22.8-6.1,33L59.2,182.3"/>
				</g>
				<g>
					<polygon fill="#8A8A8A" points="132.5,210 134.8,211 98.3,232.1 96,231.1 					"/>
				</g>
			</g>
		</g>
	</g>
</g>
</svg>
