<?xml version="1.0" encoding="utf-8"?>
<!-- Generator: Adobe Illustrator 19.0.1, SVG Export Plug-In . SVG Version: 6.00 Build 0)  -->
<svg version="1.1" id="Capa_1" xmlns="http://www.w3.org/2000/svg" xmlns:xlink="http://www.w3.org/1999/xlink" x="0px" y="0px"
	 viewBox="-437 -418 900 900" style="enable-background:new -437 -418 900 900;" xml:space="preserve">
<style type="text/css">
	.st0{fill:#4A494A;}
</style>
<path class="st0" d="M439,32c0-234.9-191.1-426-426-426S-413-202.9-413,32c0,124.1,53.4,235.9,138.3,313.8l-0.4,0.4l13.8,11.6
	c0.9,0.8,1.9,1.4,2.8,2.1c7.3,6.1,14.9,11.9,22.7,17.5c2.5,1.8,5,3.6,7.6,5.4c8.3,5.7,16.8,11.1,25.4,16.2c1.9,1.1,3.8,2.2,5.7,3.3
	c9.5,5.4,19.2,10.5,29.1,15.2c0.7,0.3,1.5,0.7,2.2,1c32.4,15,66.9,26.1,103,32.6c0.9,0.2,1.9,0.3,2.9,0.5c11.2,1.9,22.6,3.5,34,4.5
	c1.4,0.1,2.8,0.2,4.2,0.3c11.4,0.9,23,1.5,34.7,1.5c11.6,0,23.1-0.6,34.4-1.5c1.4-0.1,2.9-0.2,4.3-0.3c11.4-1,22.6-2.5,33.7-4.4
	c1-0.2,1.9-0.3,2.9-0.5C124,444.8,158,434,190,419.4c1.2-0.5,2.4-1.1,3.5-1.6c9.6-4.5,18.9-9.3,28.1-14.5c2.3-1.3,4.5-2.6,6.8-3.9
	c8.3-4.9,16.5-10,24.5-15.5c2.9-2,5.7-4,8.5-6.1c6.8-4.9,13.5-9.9,20-15.2c1.4-1.2,3-2.2,4.4-3.4l14.2-11.8l-0.4-0.4
	C385.1,269,439,156.7,439,32z M-382,32c0-217.8,177.2-395,395-395S408-185.8,408,32c0,117.4-51.5,222.9-133.1,295.3
	c-4.6-3.1-9.1-6-13.8-8.3L130,253.4c-11.8-5.9-19.1-17.7-19.1-30.9v-45.8c3-3.7,6.2-8,9.6-12.7c17-24,30.6-50.7,40.5-79.4
	c19.6-9.3,32.3-28.9,32.3-50.9v-54.9c0-13.4-4.9-26.5-13.7-36.7v-72.3c0.8-8,3.7-53.4-29.2-90.8c-28.5-32.6-74.8-49.1-137.4-49.1
	S-95.8-253.6-124.4-221c-32.8,37.4-30,82.8-29.2,90.8v72.3c-8.8,10.2-13.7,23.3-13.7,36.7v54.9c0,17.1,7.7,33,20.8,43.7
	c12.5,49.2,38.4,86.4,47.9,99v44.8c0,12.6-6.9,24.3-18,30.3l-122.5,66.8c-3.9,2.1-7.8,4.6-11.6,7.4C-331.3,253.4-382,148.5-382,32z
	 M244.7,351.6c-5.4,3.9-10.9,7.7-16.5,11.4c-2.6,1.7-5.1,3.3-7.7,5c-7.3,4.5-14.7,8.8-22.3,12.9c-1.7,0.9-3.4,1.7-5.1,2.6
	c-17.4,8.9-35.5,16.6-54,22.9c-0.7,0.2-1.3,0.4-2,0.7c-9.7,3.2-19.5,6.1-29.5,8.6c0,0-0.1,0-0.1,0c-10,2.5-20.2,4.5-30.4,6.2
	c-0.3,0-0.6,0.1-0.8,0.2c-9.6,1.6-19.3,2.7-29,3.5c-1.7,0.2-3.4,0.3-5.2,0.4c-9.6,0.7-19.3,1.2-29,1.2c-9.8,0-19.6-0.5-29.4-1.2
	c-1.7-0.1-3.4-0.2-5.1-0.4c-9.8-0.9-19.6-2-29.3-3.6c-0.4-0.1-0.9-0.2-1.3-0.2c-20.5-3.4-40.6-8.5-60.3-15c-0.6-0.2-1.2-0.4-1.8-0.6
	c-9.7-3.3-19.4-7-28.8-11c-0.1,0-0.1-0.1-0.2-0.1c-9-3.9-17.7-8.1-26.4-12.6c-1.1-0.6-2.3-1.1-3.4-1.8c-7.9-4.2-15.7-8.8-23.3-13.6
	c-2.3-1.4-4.5-2.9-6.7-4.3c-7-4.6-14-9.4-20.7-14.5c-0.7-0.5-1.4-1.1-2.1-1.6c0.5-0.3,1-0.6,1.5-0.8l122.5-66.8
	c21.1-11.5,34.2-33.5,34.2-57.5l0-55.8l-3.6-4.3c-0.3-0.4-33.8-41.1-46.5-96.3l-1.4-6.1l-5.3-3.4c-7.5-4.8-11.9-12.9-11.9-21.6
	v-54.9c0-7.2,3.1-13.9,8.6-18.9l5.1-4.6V-131l-0.1-2c0-0.4-4.6-37.6,21.6-67.5c22.4-25.5,60.8-38.5,114.1-38.5
	c53.1,0,91.3,12.9,113.8,38.2c26.2,29.6,21.9,67.6,21.9,67.9l-0.1,88.3l5.1,4.6c5.6,5,8.6,11.7,8.6,18.9v54.9
	c0,11-7.5,21.1-18.3,24.4l-7.7,2.4l-2.5,7.7c-9.1,28.4-22.2,54.6-38.7,78c-4.1,5.7-8,10.8-11.4,14.7l-3.8,4.4v57.3
	c0,25,13.9,47.4,36.2,58.6l131.2,65.6c0.8,0.4,1.7,0.9,2.5,1.3C248.1,349.2,246.4,350.4,244.7,351.6z"/>
</svg>
